if (_typeface_js && _typeface_js.loadFace) _typeface_js.loadFace({"glyphs":{"0":{"ha":874,"x_min":52,"x_max":823,"o":"m 679 700 q 608 870 679 800 q 437 941 537 941 q 266 870 337 941 q 195 700 195 800 l 195 368 q 266 197 195 268 q 437 127 337 127 q 608 197 537 127 q 679 368 679 268 l 679 700 m 823 368 q 710 96 823 209 q 437 -17 597 -17 q 164 96 277 -17 q 52 368 52 209 l 52 700 q 164 972 52 859 q 437 1085 277 1085 q 710 972 597 1085 q 823 700 823 859 l 823 368 z "},"1":{"ha":968,"x_min":361,"x_max":606,"o":"m 606 1085 l 606 0 l 465 0 l 465 902 l 361 902 l 504 1085 l 606 1085 z "},"2":{"ha":887,"x_min":102,"x_max":784,"o":"m 104 0 q 252 342 142 260 q 441 483 363 425 q 580 608 519 541 q 642 758 642 675 q 584 897 642 840 q 444 955 526 955 q 304 897 363 955 q 243 726 255 848 l 102 777 q 203 998 124 918 q 444 1099 303 1099 q 685 999 585 1099 q 784 758 784 899 q 688 514 784 618 q 546 388 627 448 q 366 252 465 327 q 269 141 279 188 l 784 141 l 784 0 l 104 0 z "},"3":{"ha":887,"x_min":102,"x_max":784,"o":"m 406 559 l 321 561 l 321 700 q 443 712 414 701 q 507 760 472 724 q 541 844 541 797 q 509 923 541 891 q 429 956 476 956 q 351 924 383 956 q 309 841 332 905 l 178 892 q 249 1024 207 984 q 429 1099 324 1099 q 611 1023 536 1099 q 686 844 686 948 q 560 640 686 739 q 687 572 621 636 q 784 328 784 467 q 685 86 784 186 q 444 -14 585 -14 q 203 87 303 -14 q 102 309 124 167 l 243 359 q 304 188 255 237 q 444 130 363 130 q 584 188 526 130 q 642 328 642 245 q 584 473 642 410 q 406 559 526 536 z "},"4":{"ha":916,"x_min":117,"x_max":798,"o":"m 579 1085 l 702 1085 l 702 433 l 798 433 l 798 293 l 702 293 l 702 0 l 562 0 l 562 293 l 117 293 l 579 1085 m 562 768 l 361 433 l 562 433 l 562 768 z "},"5":{"ha":891,"x_min":79,"x_max":812,"o":"m 305 792 q 385 800 343 800 q 530 776 460 800 q 764 578 687 722 q 812 393 812 488 q 793 275 812 334 q 601 40 745 118 q 418 -7 513 -7 q 298 12 359 -7 q 79 176 172 51 l 178 286 q 340 149 254 175 q 416 137 379 137 q 533 167 476 137 q 656 317 626 216 q 669 394 669 356 q 638 511 669 453 q 486 640 588 604 q 389 655 442 655 q 203 619 316 655 l 118 693 l 240 1030 l 240 1085 l 637 1085 l 637 945 l 359 945 l 305 792 z "},"6":{"ha":876,"x_min":58,"x_max":825,"o":"m 198 368 q 269 197 198 268 q 440 127 340 127 q 611 197 540 127 q 682 368 682 268 q 611 539 682 469 q 440 610 540 610 q 269 539 340 610 q 198 368 198 469 m 279 669 q 479 734 340 734 q 713 642 620 734 q 825 368 825 528 q 713 96 825 209 q 440 -17 600 -17 q 168 96 281 -17 q 58 399 59 205 l 58 401 q 162 739 58 593 q 444 1085 267 885 l 629 1085 q 279 669 382 830 z "},"7":{"ha":884,"x_min":104,"x_max":780,"o":"m 780 1085 q 607 675 775 864 q 346 355 438 486 q 247 0 254 224 l 104 0 q 216 424 112 277 q 465 731 321 570 q 621 945 610 893 l 105 945 l 105 1085 l 780 1085 z "},"8":{"ha":878,"x_min":73,"x_max":805,"o":"m 439 130 q 604 188 546 130 q 662 328 662 245 q 604 472 662 410 q 439 557 547 534 q 273 472 330 534 q 216 328 216 410 q 273 188 216 245 q 439 130 331 130 m 439 -14 q 172 86 272 -14 q 73 328 73 186 q 263 640 73 501 q 172 844 172 739 q 246 1023 172 948 q 427 1099 320 1099 l 450 1099 q 631 1023 557 1099 q 706 844 706 948 q 607 642 706 739 q 805 328 805 501 q 705 86 805 186 q 439 -14 606 -14 m 435 955 q 427 956 431 956 q 349 923 381 956 q 316 844 316 891 q 350 760 316 797 q 412 713 385 724 q 439 705 427 707 q 465 713 450 707 q 527 760 492 724 q 562 844 562 797 q 529 923 562 891 q 450 956 496 956 q 442 955 447 956 l 435 955 z "},"9":{"ha":876,"x_min":59,"x_max":826,"o":"m 686 717 q 615 888 686 817 q 444 958 545 958 q 274 888 345 958 q 203 717 203 817 q 274 546 203 616 q 444 475 345 475 q 615 546 545 475 q 686 717 686 616 m 605 416 q 405 351 545 351 q 172 444 264 351 q 59 717 59 557 q 172 989 59 876 q 444 1102 284 1102 q 717 989 604 1102 q 826 686 825 880 l 826 684 q 722 347 826 492 q 440 0 618 200 l 256 0 q 605 416 502 255 z "}," ":{"ha":480,"x_min":0,"x_max":0,"o":""},"!":{"ha":367,"x_min":85,"x_max":281,"o":"m 183 188 q 253 159 224 188 q 281 90 281 131 q 253 20 281 48 q 183 -9 224 -9 q 114 20 143 -9 q 85 90 85 48 q 114 159 85 131 q 183 188 143 188 m 252 1085 l 252 309 l 112 309 l 112 1085 l 252 1085 z "},"\"":{"ha":389,"x_min":17,"x_max":372,"o":"m 17 624 l 17 1083 l 157 1083 l 157 624 l 17 624 m 232 624 l 232 1083 l 372 1083 l 372 624 l 232 624 z "},"#":{"ha":1156,"x_min":85,"x_max":1071,"o":"m 592 701 l 649 701 l 718 979 l 861 979 l 792 701 l 1071 701 l 1035 560 l 757 560 l 742 500 l 1021 500 l 985 360 l 707 360 l 637 81 l 494 81 l 564 360 l 507 360 l 437 81 l 294 81 l 363 360 l 85 360 l 121 500 l 399 500 l 414 560 l 135 560 l 171 701 l 449 701 l 518 979 l 661 979 l 592 701 m 614 560 l 557 560 l 542 500 l 599 500 l 614 560 z "},"$":{"ha":650,"x_min":34,"x_max":616,"o":"m 387 79 l 387 0 l 262 0 l 262 79 q 120 149 182 94 q 34 322 53 209 l 178 368 q 224 238 189 269 q 262 213 242 222 l 262 494 q 121 579 184 523 q 37 758 37 653 q 121 937 37 862 q 262 1006 182 991 l 262 1085 l 387 1085 l 387 1006 q 530 937 468 991 q 616 764 597 877 l 472 718 q 425 848 460 817 q 387 873 408 863 l 387 592 q 529 507 465 563 q 613 328 613 433 q 529 149 613 224 q 387 79 467 94 m 262 642 l 262 873 q 226 849 243 864 q 184 758 184 812 q 224 668 184 705 q 262 642 240 654 m 387 444 l 387 213 q 425 237 407 222 q 466 328 466 274 q 425 418 466 381 q 387 444 410 431 z "},"%":{"ha":857,"x_min":54,"x_max":803,"o":"m 798 875 l 175 -14 l 60 66 l 682 954 l 798 875 m 241 844 q 373 790 318 844 q 427 658 427 735 q 373 526 427 581 q 241 471 318 471 q 109 526 163 471 q 54 658 54 581 q 109 790 54 735 q 241 844 163 844 m 241 705 q 207 691 221 705 q 193 658 193 677 q 207 624 193 637 q 241 610 221 610 q 275 624 260 610 q 289 658 289 637 q 275 691 289 677 q 241 705 260 705 m 616 469 q 748 415 694 469 q 803 283 803 360 q 748 150 803 205 q 616 96 694 96 q 484 150 538 96 q 429 283 429 205 q 484 415 429 360 q 616 469 538 469 m 616 330 q 582 316 596 330 q 568 283 568 302 q 582 249 568 262 q 616 235 596 235 q 650 249 635 235 q 664 283 664 262 q 650 316 664 302 q 616 330 635 330 z "},"&":{"ha":909,"x_min":51,"x_max":848,"o":"m 758 528 q 841 421 821 492 q 848 374 848 397 q 824 288 848 328 q 705 199 787 223 q 629 88 690 149 q 389 -12 530 -12 q 150 88 250 -12 q 51 328 51 187 q 148 570 51 467 q 255 633 206 627 q 150 844 150 739 q 224 1023 150 948 q 404 1097 298 1097 q 583 1023 509 1097 q 654 894 625 983 l 526 844 q 484 925 503 906 q 404 958 451 958 q 323 925 357 958 q 290 844 290 892 q 325 759 290 796 q 390 710 360 722 q 510 698 419 699 l 510 563 l 427 562 q 249 474 307 538 q 190 328 190 410 q 248 186 190 245 q 389 128 307 128 q 566 224 471 128 q 498 290 547 240 q 471 313 481 307 q 455 319 461 319 l 454 319 q 445 312 448 319 q 444 307 444 309 q 446 296 444 302 l 331 218 q 309 266 317 239 q 304 307 304 287 q 324 382 304 346 q 416 453 356 437 q 458 459 437 459 q 532 439 497 459 q 601 375 562 422 q 672 325 639 329 q 681 324 677 324 q 718 348 707 324 q 720 361 720 354 q 689 408 720 382 l 758 528 z "},"'":{"ha":311,"x_min":85,"x_max":225,"o":"m 85 624 l 85 1083 l 225 1083 l 225 624 l 85 624 z "},"(":{"ha":534,"x_min":68,"x_max":467,"o":"m 467 1034 q 305 910 367 987 q 201 543 201 779 q 305 175 201 306 q 467 49 367 97 l 467 -90 q 205 82 294 -31 q 68 543 68 253 q 205 1003 68 832 q 467 1175 294 1116 l 467 1034 z "},")":{"ha":534,"x_min":68,"x_max":467,"o":"m 68 1175 q 330 1003 240 1116 q 467 543 467 832 q 330 82 467 253 q 68 -90 240 -31 l 68 49 q 229 175 168 97 q 334 543 334 306 q 229 910 334 779 q 68 1034 168 987 l 68 1175 z "},"*":{"ha":632,"x_min":66,"x_max":564,"o":"m 386 968 l 484 1043 l 564 928 l 438 833 l 564 739 l 484 623 l 386 698 l 386 583 l 245 583 l 245 699 l 147 623 l 66 739 l 193 833 l 66 928 l 147 1043 l 245 968 l 245 1083 l 386 1083 l 386 968 z "},"+":{"ha":754,"x_min":85,"x_max":669,"o":"m 307 342 l 85 342 l 85 483 l 307 483 l 307 705 l 448 705 l 448 483 l 669 483 l 669 342 l 448 342 l 448 120 l 307 120 l 307 342 z "},",":{"ha":364,"x_min":7,"x_max":297,"o":"m 297 189 l 140 -137 l 7 -137 l 94 189 l 297 189 z "},"-":{"ha":623,"x_min":85,"x_max":538,"o":"m 85 483 l 538 483 l 538 342 l 85 342 l 85 483 z "},".":{"ha":332,"x_min":68,"x_max":264,"o":"m 166 188 q 236 159 207 188 q 264 90 264 131 q 236 20 264 48 q 166 -9 207 -9 q 97 20 126 -9 q 68 90 68 48 q 97 159 68 131 q 166 188 126 188 z "},"/":{"ha":580,"x_min":-34,"x_max":614,"o":"m 457 1085 l 614 1085 l 122 0 l -34 0 l 457 1085 z "},":":{"ha":367,"x_min":85,"x_max":281,"o":"m 183 188 q 253 159 224 188 q 281 90 281 131 q 253 20 281 48 q 183 -9 224 -9 q 114 20 143 -9 q 85 90 85 48 q 114 159 85 131 q 183 188 143 188 m 183 574 q 253 545 224 574 q 281 476 281 517 q 253 406 281 434 q 183 377 224 377 q 114 406 143 377 q 85 476 85 434 q 114 545 85 517 q 183 574 143 574 z "},";":{"ha":431,"x_min":56,"x_max":347,"o":"m 347 189 l 190 -137 l 56 -137 l 143 189 l 347 189 m 194 574 q 263 545 234 574 q 292 476 292 517 q 263 406 292 434 q 194 377 234 377 q 124 406 153 377 q 96 476 96 434 q 124 545 96 517 q 194 574 153 574 z "},"<":{"ha":1020,"x_min":68,"x_max":951,"o":"m 951 73 l 68 395 l 951 716 l 951 566 l 479 395 l 951 222 l 951 73 z "},"=":{"ha":754,"x_min":85,"x_max":669,"o":"m 85 583 l 669 583 l 669 442 l 85 442 l 85 583 m 85 382 l 669 382 l 669 242 l 85 242 l 85 382 z "},">":{"ha":1020,"x_min":68,"x_max":951,"o":"m 68 222 l 541 395 l 68 566 l 68 716 l 951 395 l 68 73 l 68 222 z "},"?":{"ha":697,"x_min":86,"x_max":594,"o":"m 86 804 q 111 903 86 854 q 256 1033 157 998 q 341 1048 299 1048 q 450 1022 397 1048 q 580 878 545 977 q 594 793 594 836 q 568 684 594 737 q 430 522 526 595 q 331 393 365 464 q 310 309 311 351 l 170 309 q 205 453 171 382 q 367 647 260 566 q 441 745 418 698 q 453 794 453 770 q 447 831 453 812 q 389 897 431 876 q 340 908 364 908 q 302 901 321 908 q 237 844 257 886 q 228 805 231 831 l 86 759 l 86 804 m 351 90 q 322 20 351 48 q 253 -9 293 -9 q 183 20 212 -9 q 155 90 155 48 q 183 159 155 131 q 253 188 212 188 q 322 159 293 188 q 351 90 351 131 z "},"@":{"ha":1114,"x_min":85,"x_max":1029,"o":"m 687 349 l 687 422 q 653 480 680 453 q 559 519 614 519 q 465 480 504 519 q 427 386 427 441 q 465 292 427 330 q 559 253 504 253 q 653 292 614 253 q 687 349 680 319 m 686 199 q 557 144 650 144 q 367 210 446 144 q 288 387 288 275 q 367 566 288 497 q 557 635 446 635 q 686 585 656 635 l 686 621 l 821 621 l 819 283 l 819 281 q 830 245 819 245 q 857 270 840 245 q 896 438 896 325 q 810 637 896 551 q 557 722 724 722 q 306 637 391 722 q 221 398 221 551 q 320 146 221 245 q 557 47 418 47 q 722 90 653 47 l 818 -11 q 557 -87 687 -87 q 224 51 363 -87 q 85 385 85 190 q 224 719 85 580 q 557 857 363 857 q 891 718 753 857 q 1029 436 1029 579 q 956 204 1029 293 q 821 132 895 132 q 787 136 804 132 q 686 199 693 155 z "},"A":{"ha":933,"x_min":34,"x_max":899,"o":"m 559 524 l 467 779 l 374 524 l 559 524 m 505 1085 l 899 0 l 750 0 l 610 384 l 323 384 l 184 0 l 34 0 l 429 1085 l 505 1085 z "},"B":{"ha":764,"x_min":102,"x_max":703,"o":"m 321 1085 q 483 1018 416 1085 q 550 857 550 951 q 452 737 550 760 q 613 637 523 727 q 703 387 703 547 q 591 112 703 228 q 380 1 486 3 l 380 0 l 102 0 l 102 1085 l 321 1085 m 242 629 l 242 141 l 380 141 l 380 143 q 488 213 423 146 q 559 387 559 286 q 488 558 559 487 q 317 629 417 629 l 242 629 m 242 945 l 242 773 l 334 773 q 387 797 365 776 q 412 857 412 819 q 386 920 412 895 q 321 945 361 945 l 242 945 z "},"C":{"ha":1114,"x_min":85,"x_max":1046,"o":"m 941 258 l 1046 164 q 639 -12 854 -12 q 247 151 409 -12 q 85 543 85 313 q 247 935 85 772 q 639 1097 409 1097 q 1046 922 854 1097 l 941 826 q 639 955 796 955 q 348 834 469 955 q 227 543 227 713 q 348 250 227 371 q 639 130 469 130 q 941 258 796 130 z "},"D":{"ha":848,"x_min":102,"x_max":779,"o":"m 242 942 l 242 142 q 517 250 410 142 q 637 543 637 371 q 517 835 637 713 q 242 942 410 942 m 205 1085 q 617 935 469 1084 q 779 543 779 772 q 617 150 779 313 q 205 0 469 1 l 102 0 l 102 1085 l 205 1085 z "},"E":{"ha":771,"x_min":102,"x_max":686,"o":"m 686 1085 l 686 945 l 242 945 l 242 613 l 686 613 l 686 473 l 242 473 l 242 141 l 686 141 l 686 0 l 102 0 l 102 1085 l 686 1085 z "},"F":{"ha":709,"x_min":102,"x_max":624,"o":"m 624 1085 l 624 945 l 242 945 l 242 613 l 624 613 l 624 473 l 242 473 l 242 0 l 102 0 l 102 1085 l 624 1085 z "},"G":{"ha":1131,"x_min":85,"x_max":1046,"o":"m 1022 149 q 639 -12 854 -12 q 247 151 409 -12 q 85 543 85 313 q 247 935 85 772 q 639 1097 409 1097 q 1046 922 854 1097 l 941 826 q 639 955 796 955 q 348 834 469 955 q 227 543 227 713 q 348 250 227 371 q 639 130 469 130 q 882 207 785 130 l 882 534 l 1022 534 l 1022 149 z "},"H":{"ha":819,"x_min":102,"x_max":718,"o":"m 242 449 l 242 0 l 102 0 l 102 1085 l 242 1085 l 242 589 l 577 589 l 577 1085 l 718 1085 l 718 0 l 577 0 l 577 449 l 242 449 z "},"I":{"ha":372,"x_min":115,"x_max":256,"o":"m 256 1085 l 256 0 l 115 0 l 115 1085 l 256 1085 z "},"J":{"ha":635,"x_min":85,"x_max":530,"o":"m 530 233 q 468 58 530 120 q 309 -9 402 -9 q 150 57 216 -9 q 85 233 85 123 l 196 277 q 244 150 215 174 q 302 132 266 132 l 305 132 q 369 157 344 132 q 389 239 389 178 l 389 1085 l 530 1085 l 530 233 z "},"K":{"ha":818,"x_min":102,"x_max":758,"o":"m 242 512 l 242 0 l 102 0 l 102 1085 l 242 1085 l 242 743 l 498 1085 l 676 1085 l 343 639 l 758 0 l 587 0 l 252 524 l 242 512 z "},"L":{"ha":691,"x_min":102,"x_max":630,"o":"m 102 0 l 102 1085 l 242 1085 l 242 141 l 630 141 l 630 0 l 102 0 z "},"M":{"ha":1229,"x_min":135,"x_max":1094,"o":"m 263 1085 l 615 477 l 966 1085 l 1094 1085 l 1094 0 l 954 0 l 954 784 l 615 198 l 275 784 l 275 0 l 135 0 l 135 1085 l 263 1085 z "},"N":{"ha":920,"x_min":102,"x_max":819,"o":"m 102 1085 l 230 1085 l 677 311 l 677 1085 l 819 1085 l 819 0 l 696 0 l 242 784 l 242 0 l 102 0 l 102 1085 z "},"O":{"ha":1281,"x_min":85,"x_max":1196,"o":"m 640 1099 q 1033 937 870 1099 q 1196 544 1196 774 q 1033 151 1196 314 q 640 -12 870 -12 q 248 151 410 -12 q 85 544 85 314 q 248 937 85 774 q 640 1099 410 1099 m 640 958 q 348 837 469 958 q 227 544 227 715 q 348 251 227 372 q 640 130 469 130 q 933 251 812 130 q 1054 544 1054 372 q 933 837 1054 715 q 640 958 812 958 z "},"P":{"ha":777,"x_min":102,"x_max":739,"o":"m 242 347 l 242 0 l 102 0 l 102 1085 l 410 1085 q 631 977 541 1067 q 739 717 739 869 q 631 455 739 564 q 370 347 523 347 l 242 347 m 242 944 l 242 488 l 370 488 q 531 555 464 488 q 597 717 597 622 q 531 878 597 811 q 370 944 464 944 l 242 944 z "},"Q":{"ha":1281,"x_min":85,"x_max":1196,"o":"m 640 958 q 348 837 469 958 q 227 544 227 715 q 348 251 227 372 q 640 130 469 130 q 933 251 812 130 q 1054 544 1054 372 q 933 837 1054 715 q 640 958 812 958 m 872 37 q 905 16 888 28 q 969 -15 952 -9 q 983 -17 977 -17 q 1006 -10 995 -17 q 1029 20 1024 0 q 1034 70 1031 26 l 1176 70 q 1165 -18 1171 3 q 1075 -132 1143 -94 q 984 -157 1031 -157 q 931 -149 958 -157 q 815 -91 888 -138 q 734 -54 757 -60 q 710 -50 722 -50 q 671 -61 690 -50 q 630 -114 640 -79 q 625 -159 629 -117 l 484 -159 q 494 -75 489 -94 q 530 -1 506 -33 q 248 151 370 29 q 85 544 85 314 q 248 937 85 774 q 640 1099 410 1099 q 1033 937 870 1099 q 1196 544 1196 774 q 1033 151 1196 314 q 872 37 960 78 z "},"R":{"ha":794,"x_min":102,"x_max":758,"o":"m 242 944 l 242 488 l 370 488 q 531 555 464 488 q 597 717 597 622 q 531 878 597 811 q 370 944 464 944 l 242 944 m 370 347 l 242 347 l 242 0 l 102 0 l 102 1085 l 410 1085 q 631 977 541 1067 q 739 717 739 869 q 631 455 739 564 q 517 371 556 380 l 758 0 l 587 0 l 370 347 z "},"S":{"ha":747,"x_min":34,"x_max":712,"o":"m 378 557 q 191 667 262 595 q 119 844 119 739 q 194 1023 119 948 q 374 1097 268 1097 q 553 1023 478 1097 q 623 894 595 983 l 496 844 q 454 925 473 906 q 374 958 420 958 q 293 925 326 958 q 260 844 260 892 q 293 764 260 797 q 396 696 330 727 q 612 566 524 655 q 712 328 712 468 q 613 88 712 187 q 374 -12 513 -12 q 134 88 233 -12 q 34 307 55 168 l 170 357 q 233 186 183 237 q 374 128 292 128 q 514 186 456 128 q 572 328 572 245 q 514 468 572 410 q 378 557 458 524 z "},"T":{"ha":715,"x_min":34,"x_max":681,"o":"m 428 945 l 428 0 l 287 0 l 287 945 l 34 945 l 34 1085 l 681 1085 l 681 945 l 428 945 z "},"U":{"ha":941,"x_min":102,"x_max":840,"o":"m 699 1085 l 840 1085 l 840 321 q 732 100 821 190 q 471 -9 623 -9 q 210 99 318 -9 q 102 360 102 208 l 102 1085 l 243 1085 l 243 360 q 310 200 243 267 q 471 133 376 133 q 632 199 566 133 q 699 360 699 266 l 699 1085 z "},"V":{"ha":933,"x_min":34,"x_max":899,"o":"m 428 0 l 34 1085 l 183 1085 l 466 307 l 749 1085 l 899 1085 l 504 0 l 428 0 z "},"W":{"ha":1143,"x_min":85,"x_max":1059,"o":"m 501 203 l 501 1085 l 642 1085 l 642 203 q 665 174 648 191 q 769 132 709 132 q 873 175 829 132 q 918 279 918 218 l 918 1085 l 1059 1085 l 1059 273 q 974 77 1056 159 q 769 -9 889 -9 q 572 75 650 -9 q 374 -9 493 -9 q 170 77 254 -9 q 85 273 87 158 l 85 1085 l 225 1085 l 225 279 q 269 175 225 218 q 374 132 313 132 q 478 174 435 132 q 501 203 495 191 z "},"X":{"ha":913,"x_min":34,"x_max":879,"o":"m 34 0 l 375 592 l 91 1085 l 252 1085 l 456 732 l 661 1085 l 822 1085 l 536 592 l 879 0 l 718 0 l 456 452 l 195 0 l 34 0 z "},"Y":{"ha":959,"x_min":34,"x_max":925,"o":"m 409 435 l 34 1085 l 195 1085 l 479 594 l 763 1085 l 925 1085 l 549 435 l 549 0 l 409 0 l 409 435 z "},"Z":{"ha":992,"x_min":102,"x_max":890,"o":"m 647 945 l 133 945 l 133 1085 l 890 1085 l 344 141 l 859 141 l 859 0 l 102 0 l 647 945 z "},"[":{"ha":447,"x_min":85,"x_max":362,"o":"m 225 -94 l 362 -94 l 362 -234 l 85 -234 l 85 1082 l 362 1082 l 362 942 l 225 942 l 225 -94 z "},"\\":{"ha":578,"x_min":-34,"x_max":612,"o":"m 612 0 l 456 0 l -34 1082 l 123 1082 l 612 0 z "},"]":{"ha":447,"x_min":85,"x_max":362,"o":"m 222 942 l 85 942 l 85 1082 l 362 1082 l 362 -234 l 85 -234 l 85 -94 l 222 -94 l 222 942 z "},"^":{"ha":731,"x_min":68,"x_max":663,"o":"m 422 1082 l 663 665 l 501 665 l 366 899 l 231 665 l 68 665 l 309 1082 l 422 1082 z "},"_":{"ha":742,"x_min":17,"x_max":725,"o":"m 17 65 l 725 65 l 725 -75 l 17 -75 l 17 65 z "},"`":{"ha":454,"x_min":68,"x_max":386,"o":"m 386 765 l 252 765 l 68 954 l 239 954 l 386 765 z "},"a":{"ha":950,"x_min":85,"x_max":848,"o":"m 707 316 l 707 419 q 642 538 694 485 q 471 609 570 609 q 299 538 370 609 q 229 368 229 468 q 299 197 229 268 q 471 126 370 126 q 642 197 570 126 q 707 316 694 250 m 707 649 l 707 698 l 848 698 l 848 -1 l 707 -1 l 707 87 q 471 -18 605 -18 q 198 95 311 -18 q 85 368 85 208 q 198 641 85 528 q 471 753 311 753 q 707 649 605 753 z "},"b":{"ha":949,"x_min":102,"x_max":865,"o":"m 242 422 l 242 313 q 307 197 255 250 q 479 127 378 127 q 650 197 579 127 q 721 368 721 268 q 650 539 721 468 q 479 610 579 610 q 307 539 378 610 q 242 422 255 487 m 242 87 l 242 0 l 102 0 l 102 1085 l 242 1085 l 242 650 q 479 755 344 755 q 752 642 639 755 q 865 368 865 528 q 752 95 865 208 q 479 -18 639 -18 q 242 87 344 -18 z "},"c":{"ha":856,"x_min":61,"x_max":795,"o":"m 654 239 l 795 189 q 720 95 743 118 q 447 -18 607 -18 q 174 95 288 -18 q 61 368 61 208 q 174 642 61 528 q 447 755 288 755 q 720 642 607 755 q 795 549 743 618 l 654 497 q 618 540 627 530 q 447 610 547 610 q 276 539 347 610 q 205 368 205 469 q 276 198 205 269 q 447 127 347 127 q 618 197 547 127 q 654 239 627 207 z "},"d":{"ha":950,"x_min":85,"x_max":848,"o":"m 707 316 l 707 420 q 642 539 695 486 q 471 610 571 610 q 299 539 370 610 q 229 368 229 468 q 299 197 229 268 q 471 127 370 127 q 642 197 571 127 q 707 316 695 251 m 707 650 l 707 1085 l 848 1085 l 848 0 l 707 0 l 707 87 q 471 -18 606 -18 q 198 95 311 -18 q 85 368 85 208 q 198 642 85 528 q 471 755 311 755 q 707 650 606 755 z "},"e":{"ha":856,"x_min":61,"x_max":795,"o":"m 319 158 q 447 127 354 127 q 618 197 547 127 q 654 239 627 207 l 795 189 q 720 95 743 118 q 447 -18 607 -18 q 174 95 288 -18 q 61 368 61 208 q 174 642 61 528 q 447 755 288 755 q 687 672 584 755 q 720 642 704 658 q 759 599 727 635 l 688 528 l 319 158 m 553 592 q 447 610 530 610 q 276 539 347 610 q 205 368 205 469 q 224 262 205 286 l 553 592 z "},"f":{"ha":425,"x_min":61,"x_max":465,"o":"m 264 558 l 264 -1 l 123 -1 l 123 558 l 61 558 l 61 699 l 123 699 l 123 824 q 190 973 128 911 q 338 1033 254 1033 q 465 1004 380 1033 l 418 871 q 343 896 359 896 q 288 872 315 896 q 264 819 266 850 l 264 699 l 390 699 l 390 558 l 264 558 z "},"g":{"ha":953,"x_min":85,"x_max":848,"o":"m 707 422 q 642 539 694 487 q 471 610 571 610 q 299 539 370 610 q 229 368 229 468 q 299 197 229 268 q 471 126 370 126 q 642 197 571 126 q 707 312 694 249 l 707 422 m 707 650 l 707 698 l 848 698 l 848 179 q 738 -135 848 -24 q 465 -235 625 -235 q 191 -135 304 -235 q 117 -41 168 -112 l 257 9 q 294 -33 284 -24 q 465 -104 365 -104 q 696 116 632 -104 q 471 -12 631 -12 q 198 98 311 -12 q 85 368 85 208 q 198 641 85 528 q 471 754 311 754 q 707 650 606 754 z "},"h":{"ha":763,"x_min":102,"x_max":661,"o":"m 102 1085 l 243 1085 l 243 623 q 414 736 302 736 q 592 655 526 736 q 661 454 659 575 l 661 0 l 521 0 l 521 448 q 487 552 521 509 q 378 595 452 595 q 243 501 291 595 l 243 0 l 102 0 l 102 1085 z "},"i":{"ha":367,"x_min":85,"x_max":282,"o":"m 254 698 l 254 0 l 113 0 l 113 698 l 254 698 m 183 985 q 253 956 224 985 q 282 886 282 928 q 253 817 282 845 q 183 788 224 788 q 114 817 143 788 q 85 886 85 845 q 114 956 85 928 q 183 985 143 985 z "},"j":{"ha":380,"x_min":33,"x_max":278,"o":"m 33 -7 q 109 41 109 1 l 109 698 l 250 698 l 250 42 q 33 -146 250 -130 l 33 -7 m 179 985 q 249 956 220 985 q 278 886 278 928 q 249 817 278 845 q 179 788 220 788 q 110 817 139 788 q 81 886 81 845 q 110 956 81 928 q 179 985 139 985 z "},"k":{"ha":640,"x_min":102,"x_max":606,"o":"m 532 698 l 343 465 l 606 0 l 439 0 l 249 348 l 243 340 l 243 0 l 102 0 l 102 960 l 243 960 l 243 565 l 351 698 l 532 698 z "},"l":{"ha":345,"x_min":102,"x_max":243,"o":"m 243 1086 l 243 0 l 102 0 l 102 1086 l 243 1086 z "},"m":{"ha":962,"x_min":102,"x_max":859,"o":"m 102 698 l 242 698 l 242 633 q 399 735 283 735 q 528 618 514 735 q 711 735 562 735 q 859 555 859 735 l 859 0 l 718 0 l 718 491 q 635 594 718 594 q 575 570 600 594 q 550 406 550 545 l 550 0 l 410 0 l 410 491 q 326 594 410 594 q 267 570 292 594 q 242 458 245 549 l 242 0 l 102 0 l 102 698 z "},"n":{"ha":772,"x_min":102,"x_max":669,"o":"m 243 511 l 243 0 l 102 0 l 102 698 l 243 698 l 243 616 q 420 736 287 736 q 600 655 533 736 q 669 454 667 575 l 669 0 l 528 0 l 528 448 q 484 552 528 509 q 379 595 440 595 q 275 553 319 595 q 243 511 250 528 z "},"o":{"ha":894,"x_min":61,"x_max":833,"o":"m 447 755 q 720 642 607 755 q 833 368 833 528 q 720 95 833 208 q 447 -18 607 -18 q 174 95 288 -18 q 61 368 61 208 q 174 642 61 528 q 447 755 288 755 m 447 610 q 276 539 347 610 q 205 368 205 468 q 276 197 205 268 q 447 127 347 127 q 618 197 547 127 q 689 368 689 268 q 618 539 689 468 q 447 610 547 610 z "},"p":{"ha":932,"x_min":102,"x_max":865,"o":"m 242 422 l 242 313 q 308 197 255 249 q 479 126 378 126 q 650 197 579 126 q 721 368 721 268 q 650 539 721 468 q 479 610 579 610 q 308 539 378 610 q 242 422 255 487 m 242 87 l 242 -235 l 102 -235 l 102 698 l 242 698 l 242 635 q 479 754 344 754 q 752 641 639 754 q 865 368 865 528 q 752 95 865 208 q 479 -18 639 -18 q 242 87 344 -18 z "},"q":{"ha":933,"x_min":68,"x_max":831,"o":"m 690 316 l 690 420 q 625 539 678 486 q 454 610 554 610 q 282 539 353 610 q 212 368 212 468 q 282 197 212 268 q 454 126 353 126 q 625 197 554 126 q 690 316 678 250 m 690 650 l 690 698 l 831 698 l 831 -235 l 690 -235 l 690 87 q 454 -18 589 -18 q 181 95 294 -18 q 68 368 68 208 q 181 641 68 528 q 454 754 294 754 q 690 650 589 754 z "},"r":{"ha":470,"x_min":102,"x_max":435,"o":"m 242 604 q 435 715 321 710 l 435 570 q 313 520 359 566 q 242 359 245 452 l 242 0 l 102 0 l 102 698 l 242 698 l 242 604 z "},"s":{"ha":598,"x_min":84,"x_max":527,"o":"m 224 194 q 243 150 230 163 q 302 125 268 125 q 362 150 337 125 q 387 210 387 174 q 362 269 387 245 q 290 321 345 286 q 182 395 214 363 q 126 528 126 450 q 182 663 126 607 q 316 719 237 719 q 447 666 395 719 q 494 583 484 629 l 358 543 q 349 566 353 560 q 316 578 336 578 q 281 563 296 578 q 267 528 267 549 q 281 494 267 508 q 339 452 294 481 q 461 368 423 406 q 527 210 527 302 q 461 51 527 117 q 302 -16 396 -16 q 144 51 210 -16 q 84 164 98 96 l 224 194 z "},"t":{"ha":514,"x_min":61,"x_max":452,"o":"m 186 698 l 186 960 l 327 960 l 327 698 l 452 698 l 452 557 l 327 557 l 327 0 l 186 0 l 186 557 l 61 557 l 61 698 l 186 698 z "},"u":{"ha":788,"x_min":102,"x_max":686,"o":"m 397 -9 q 184 71 265 -9 q 102 273 104 152 l 102 698 l 243 698 l 243 279 q 287 175 243 218 q 397 132 331 132 q 502 175 457 132 q 546 279 546 218 l 546 698 l 686 698 l 686 273 q 604 71 684 152 q 397 -9 524 -9 z "},"v":{"ha":806,"x_min":34,"x_max":771,"o":"m 367 0 l 34 698 l 193 698 l 402 245 l 612 698 l 771 698 l 437 0 l 367 0 z "},"w":{"ha":962,"x_min":102,"x_max":859,"o":"m 410 207 l 410 698 l 550 698 l 550 218 q 575 156 550 181 q 635 132 600 132 q 718 235 718 132 l 718 698 l 859 698 l 859 209 q 793 57 856 119 q 635 -9 728 -9 q 481 56 541 -9 q 326 -9 419 -9 q 167 57 233 -9 q 102 209 104 119 l 102 698 l 242 698 l 242 235 q 326 132 242 132 q 386 156 361 132 q 410 207 407 177 z "},"x":{"ha":699,"x_min":51,"x_max":648,"o":"m 614 698 l 430 379 l 648 0 l 486 0 l 350 235 l 214 0 l 51 0 l 270 379 l 86 698 l 248 698 l 350 524 l 451 698 l 614 698 z "},"y":{"ha":772,"x_min":51,"x_max":720,"o":"m 273 -235 l 125 -235 l 311 155 l 51 698 l 209 698 l 386 316 l 563 698 l 720 698 l 273 -235 z "},"z":{"ha":763,"x_min":102,"x_max":661,"o":"m 419 557 l 132 557 l 132 698 l 661 698 l 343 141 l 654 141 l 654 0 l 102 0 l 419 557 z "},"{":{"ha":638,"x_min":85,"x_max":553,"o":"m 85 508 l 195 508 q 270 608 252 544 q 280 692 280 647 q 277 741 280 716 q 268 832 268 789 q 279 922 268 880 q 382 1053 302 1008 q 488 1082 432 1082 q 553 1074 503 1082 l 553 942 q 489 951 496 951 q 446 940 467 951 q 406 887 415 922 q 398 820 398 858 q 399 787 398 803 q 410 687 410 737 q 395 573 410 629 q 316 422 363 458 q 395 275 363 391 q 410 161 410 220 q 399 62 410 111 q 398 28 398 45 q 406 -39 398 -9 q 446 -91 415 -73 q 490 -103 469 -103 q 553 -96 498 -103 l 553 -226 q 488 -234 503 -234 q 382 -205 432 -234 q 279 -73 302 -160 q 268 17 268 -31 q 277 107 268 60 q 280 157 280 132 q 270 241 280 201 q 195 340 252 304 l 85 340 l 85 508 z "},"|":{"ha":344,"x_min":102,"x_max":242,"o":"m 242 1082 l 242 -234 l 102 -234 l 102 1082 l 242 1082 z "},"}":{"ha":638,"x_min":85,"x_max":553,"o":"m 553 340 l 443 340 q 368 241 386 304 q 358 157 358 201 q 361 107 358 132 q 370 17 370 60 q 359 -73 370 -31 q 256 -205 336 -160 q 151 -234 206 -234 q 85 -226 136 -234 l 85 -96 q 147 -103 140 -103 q 192 -91 170 -103 q 232 -39 223 -73 q 240 28 240 -9 q 239 62 240 45 q 229 161 229 111 q 243 275 229 220 q 322 422 275 391 q 243 573 275 458 q 229 687 229 629 q 239 787 229 737 q 240 820 240 803 q 232 887 240 858 q 192 940 223 922 q 149 951 171 951 q 85 942 142 951 l 85 1074 q 151 1082 136 1082 q 256 1053 206 1082 q 359 922 336 1008 q 370 832 370 880 q 361 741 370 789 q 358 692 358 716 q 368 608 358 647 q 443 508 386 544 l 553 508 l 553 340 z "},"~":{"ha":899,"x_min":85,"x_max":814,"o":"m 469 616 q 618 553 577 553 l 625 553 q 664 591 652 562 q 670 673 670 607 l 814 650 q 793 538 808 575 q 671 422 758 451 q 623 415 648 415 q 428 482 546 415 q 278 545 319 545 l 273 545 q 233 507 245 536 q 225 425 227 490 l 85 448 q 103 559 88 522 q 227 676 139 647 q 275 683 249 683 q 469 616 352 683 z "},"¡":{"ha":367,"x_min":85,"x_max":281,"o":"m 183 501 q 114 530 142 501 q 85 599 85 558 q 114 669 85 641 q 183 698 142 698 q 252 669 223 698 q 281 599 281 641 q 252 530 281 558 q 183 501 223 501 m 114 -396 l 114 380 l 254 380 l 254 -396 l 114 -396 z "},"¢":{"ha":753,"x_min":67,"x_max":684,"o":"m 433 524 q 515 577 463 525 q 549 616 522 584 l 684 567 q 614 479 632 498 q 433 385 521 386 l 433 288 l 293 288 l 293 395 q 161 478 233 406 q 67 705 67 572 q 161 931 67 837 q 293 1014 233 1002 l 293 1121 l 433 1121 l 433 1025 q 614 930 521 1023 q 684 844 632 911 l 549 793 q 515 833 522 826 q 433 885 463 884 l 433 524 m 294 867 q 207 705 207 807 q 293 541 207 610 l 294 867 z "},"£":{"ha":823,"x_min":68,"x_max":755,"o":"m 390 345 q 307 106 390 191 q 428 142 362 142 q 465 139 446 142 q 602 127 551 127 q 729 148 646 127 l 755 9 q 602 -14 661 -14 q 479 1 541 -14 q 380 13 422 13 q 321 5 345 13 q 170 -62 258 -18 l 68 59 q 191 174 174 153 q 250 347 249 243 l 102 347 l 102 486 l 219 486 q 191 542 218 488 q 108 772 117 661 q 106 800 106 786 q 174 983 106 902 q 369 1084 249 1072 q 395 1084 382 1084 q 578 1017 497 1084 q 680 823 669 940 q 682 791 682 806 q 650 667 682 743 l 519 711 q 540 797 540 772 q 539 811 540 804 q 488 909 534 870 q 396 943 447 943 q 382 942 389 943 q 283 891 322 937 q 250 800 250 850 q 250 785 250 792 q 294 642 256 722 q 366 486 350 552 l 498 486 l 498 347 l 390 345 z "},"¤":{"ha":823,"x_min":68,"x_max":755,"o":"m 256 1011 q 412 1052 307 1052 q 567 1011 517 1052 l 656 1101 l 755 1001 l 666 911 q 707 756 707 862 q 666 602 707 651 l 755 512 l 656 412 l 567 502 q 412 461 517 461 q 256 502 307 461 l 168 412 l 68 512 l 157 602 q 117 756 117 651 q 157 911 117 862 l 68 1001 l 168 1101 l 256 1011 m 505 881 q 412 911 465 911 q 319 881 359 911 q 302 867 310 874 q 288 849 294 859 q 256 756 256 809 q 288 664 256 703 q 302 647 294 655 q 319 632 311 638 q 412 602 359 602 q 505 632 465 602 q 522 647 513 639 q 536 664 530 654 q 567 756 567 703 q 536 849 567 809 q 522 867 529 859 q 505 881 514 873 z "},"¥":{"ha":959,"x_min":34,"x_max":925,"o":"m 363 515 l 34 1085 l 195 1085 l 479 594 l 763 1085 l 925 1085 l 595 515 l 772 515 l 772 374 l 549 374 l 549 315 l 772 315 l 772 174 l 549 174 l 549 0 l 409 0 l 409 174 l 187 174 l 187 315 l 409 315 l 409 374 l 187 374 l 187 515 l 363 515 z "},"¦":{"ha":344,"x_min":102,"x_max":242,"o":"m 242 1082 l 242 469 l 102 469 l 102 1082 l 242 1082 m 242 380 l 242 -234 l 102 -234 l 102 380 l 242 380 z "},"§":{"ha":817,"x_min":68,"x_max":749,"o":"m 606 337 l 607 337 q 610 414 610 337 q 553 555 610 496 q 416 644 496 610 q 233 751 301 682 l 212 760 l 211 760 q 207 682 207 760 q 265 542 207 600 q 401 453 321 486 q 585 346 516 414 l 606 337 m 158 930 q 232 1108 158 1034 q 412 1182 307 1182 q 591 1108 517 1182 q 661 979 633 1068 l 534 929 q 492 1010 511 991 q 412 1043 459 1043 q 332 1010 365 1043 q 298 930 298 977 q 332 850 298 883 q 435 783 369 813 q 650 652 562 741 q 749 414 749 554 q 659 166 749 274 q 585 -12 659 63 q 406 -86 511 -86 q 227 -12 301 -86 q 157 117 184 28 l 283 167 q 326 85 307 104 q 406 53 359 53 q 486 86 452 53 q 519 166 519 119 q 486 246 519 213 q 382 313 449 283 q 167 444 256 355 q 68 682 68 542 q 158 930 68 822 z "},"¨":{"ha":486,"x_min":17,"x_max":469,"o":"m 115 975 q 184 947 155 975 q 214 878 214 918 q 184 808 214 836 q 115 779 155 779 q 46 808 75 779 q 17 878 17 836 q 46 947 17 918 q 115 975 75 975 m 370 975 q 439 947 410 975 q 469 878 469 918 q 439 808 469 836 q 370 779 410 779 q 301 808 330 779 q 272 878 272 836 q 301 947 272 918 q 370 975 330 975 z "},"©":{"ha":972,"x_min":67,"x_max":901,"o":"m 606 368 l 728 323 q 667 243 682 258 q 491 170 594 170 q 315 242 388 170 q 243 418 243 315 q 315 594 243 521 q 491 667 388 667 q 667 594 594 667 q 728 514 682 579 l 606 469 q 576 505 581 500 q 491 540 541 540 q 405 504 441 540 q 370 418 370 469 q 405 333 370 368 q 491 297 441 297 q 576 332 541 297 q 606 368 581 337 m 484 836 q 779 713 656 836 q 901 418 901 591 q 779 123 901 245 q 484 1 656 1 q 189 123 311 1 q 67 418 67 245 q 189 713 67 591 q 484 836 311 836 m 484 707 q 280 622 364 707 q 195 418 195 538 q 280 214 195 299 q 484 130 364 130 q 688 214 604 130 q 772 418 772 299 q 688 622 772 538 q 484 707 604 707 z "},"ª":{"ha":691,"x_min":85,"x_max":755,"o":"m 495 823 l 495 884 q 452 956 487 924 q 340 998 406 998 q 227 956 273 998 q 180 854 180 913 q 227 751 180 793 q 340 709 273 709 q 452 751 406 709 q 495 823 487 783 m 495 1023 l 495 1052 l 589 1052 l 589 633 l 495 633 l 495 685 q 340 622 428 622 q 159 690 234 622 q 85 854 85 758 q 159 1017 85 949 q 340 1085 234 1085 q 495 1023 428 1085 m 648 913 l 755 913 l 755 434 l 227 434 l 227 541 l 648 541 l 648 913 z "},"«":{"ha":829,"x_min":68,"x_max":760,"o":"m 68 332 l 436 726 l 436 537 l 244 332 l 436 125 l 436 -64 l 68 332 m 392 332 l 760 726 l 760 537 l 568 332 l 760 125 l 760 -64 l 392 332 z "},"®":{"ha":819,"x_min":68,"x_max":751,"o":"m 549 564 q 567 583 551 568 q 632 740 632 648 q 567 898 632 833 q 557 907 562 903 q 606 779 606 853 q 549 641 606 698 q 519 606 519 611 q 521 605 519 605 l 522 605 l 549 564 m 381 855 l 381 704 l 411 704 q 465 726 442 704 q 487 779 487 748 q 465 833 487 811 q 411 855 442 855 l 381 855 m 381 519 q 410 517 395 517 q 437 517 430 517 l 394 584 l 381 584 l 381 519 m 262 907 q 252 898 257 903 q 187 740 187 833 q 252 583 187 648 q 262 573 257 578 l 262 907 m 410 398 q 168 498 268 398 q 68 740 68 599 q 168 982 68 882 q 410 1082 268 1082 q 651 982 551 1082 q 751 740 751 882 q 651 498 751 599 q 553 431 616 463 q 410 398 491 398 z "},"¯":{"ha":486,"x_min":51,"x_max":435,"o":"m 51 975 l 435 975 l 435 834 l 51 834 l 51 975 z "},"°":{"ha":576,"x_min":102,"x_max":474,"o":"m 288 1082 q 420 1028 366 1082 q 474 896 474 973 q 420 764 474 819 q 288 710 366 710 q 156 764 211 710 q 102 896 102 819 q 156 1028 102 973 q 288 1082 211 1082 m 288 954 q 247 937 264 954 q 230 896 230 920 q 247 855 230 872 q 288 838 264 838 q 329 855 312 838 q 346 896 346 872 q 329 937 346 920 q 288 954 312 954 z "},"±":{"ha":753,"x_min":85,"x_max":668,"o":"m 307 140 l 307 341 l 85 341 l 85 481 l 307 481 l 307 703 l 446 703 l 446 481 l 668 481 l 668 341 l 446 341 l 446 140 l 668 140 l 668 0 l 85 0 l 85 140 l 307 140 z "},"²":{"ha":664,"x_min":85,"x_max":580,"o":"m 85 392 q 176 615 85 543 q 317 722 267 688 q 402 793 366 757 q 437 869 437 829 q 407 936 437 908 q 334 964 377 964 q 261 936 292 964 q 224 819 235 912 l 85 865 q 161 1029 104 976 q 334 1096 233 1096 q 508 1029 436 1096 q 580 869 580 963 q 510 707 580 776 q 361 616 469 666 q 251 523 254 566 l 580 523 l 580 392 l 85 392 z "},"³":{"ha":664,"x_min":85,"x_max":579,"o":"m 307 761 l 230 762 l 230 823 l 310 824 q 355 851 338 834 q 372 920 372 867 q 358 952 372 939 q 324 964 345 964 q 260 888 271 964 l 131 936 q 190 1045 158 1017 q 324 1096 246 1096 q 460 1044 404 1096 q 515 920 515 992 q 423 808 515 828 q 534 749 489 793 q 579 611 579 704 q 507 451 579 517 q 334 384 435 384 q 160 451 233 384 q 85 615 103 504 l 224 662 q 261 544 235 568 q 334 516 292 516 q 407 544 377 516 q 437 611 437 572 q 406 700 437 652 q 307 761 374 749 z "},"´":{"ha":454,"x_min":68,"x_max":386,"o":"m 215 954 l 386 954 l 201 765 l 68 765 l 215 954 z "},"µ":{"ha":753,"x_min":102,"x_max":651,"o":"m 512 55 q 371 -4 451 -4 q 242 41 254 -4 l 242 -233 l 102 -233 l 102 698 l 242 698 l 242 210 q 267 178 248 197 q 371 136 311 136 q 475 180 431 136 q 512 237 504 208 l 512 698 l 651 698 l 651 1 l 512 1 l 512 55 z "},"¶":{"ha":829,"x_min":35,"x_max":812,"o":"m 595 1000 l 595 -220 l 455 -220 l 455 403 l 402 403 q 142 511 250 403 q 35 771 35 618 q 142 1031 35 924 q 363 1139 232 1121 l 374 1139 l 374 1140 l 812 1140 l 812 1000 l 784 1000 l 784 -220 l 644 -220 l 644 1000 l 595 1000 z "},"·":{"ha":480,"x_min":68,"x_max":235,"o":"m 151 626 q 210 602 186 626 q 235 543 235 578 q 210 483 235 508 q 151 459 186 459 q 93 483 117 459 q 68 543 68 508 q 93 602 68 578 q 151 626 117 626 z "},"¸":{"ha":283,"x_min":17,"x_max":267,"o":"m 211 12 l 195 -30 q 260 -90 245 -56 q 264 -109 262 -100 q 267 -126 267 -117 q 245 -181 267 -155 q 148 -231 212 -221 q 118 -233 135 -233 q 17 -222 79 -233 l 41 -137 q 104 -155 79 -155 q 111 -154 108 -155 q 138 -130 132 -151 q 140 -120 140 -125 q 140 -115 140 -117 q 77 -77 136 -96 l 110 12 l 211 12 z "},"¹":{"ha":733,"x_min":250,"x_max":484,"o":"m 484 1082 l 484 387 l 342 387 l 342 926 l 250 926 l 381 1082 l 484 1082 z "},"º":{"ha":631,"x_min":61,"x_max":755,"o":"m 316 1085 q 496 1017 421 1085 q 570 853 570 949 q 496 689 570 757 q 316 621 421 621 q 136 689 210 621 q 61 853 61 757 q 136 1017 61 949 q 316 1085 210 1085 m 316 998 q 203 956 250 998 q 156 853 156 913 q 203 750 156 793 q 316 708 250 708 q 429 750 382 708 q 475 853 475 793 q 429 956 475 913 q 316 998 382 998 m 648 913 l 755 913 l 755 434 l 227 434 l 227 541 l 648 541 l 648 913 z "},"»":{"ha":829,"x_min":68,"x_max":760,"o":"m 68 -64 l 68 125 l 260 332 l 68 537 l 68 726 l 436 332 l 68 -64 m 392 -64 l 392 125 l 584 332 l 392 537 l 392 726 l 760 332 l 392 -64 z "},"¿":{"ha":697,"x_min":86,"x_max":594,"o":"m 594 -115 q 570 -214 594 -165 q 425 -344 524 -309 q 339 -359 381 -359 q 230 -333 283 -359 q 100 -189 135 -288 q 86 -104 86 -146 q 112 5 86 -48 q 250 168 155 94 q 349 296 315 225 q 370 380 370 338 l 510 380 q 475 236 509 307 q 313 42 420 123 q 239 -56 262 -9 q 227 -105 227 -81 q 233 -142 227 -123 q 292 -208 250 -187 q 340 -219 316 -219 q 378 -212 359 -219 q 444 -155 423 -197 q 452 -116 450 -142 l 594 -70 l 594 -115 m 329 599 q 358 669 329 641 q 427 698 387 698 q 497 669 468 698 q 526 599 526 641 q 497 530 526 558 q 427 501 468 501 q 358 530 387 501 q 329 599 329 558 z "},"À":{"ha":933,"x_min":34,"x_max":899,"o":"m 559 524 l 467 779 l 374 524 l 559 524 m 505 1085 l 899 0 l 750 0 l 610 384 l 323 384 l 184 0 l 34 0 l 429 1085 l 505 1085 m 572 1152 l 439 1152 l 254 1341 l 425 1341 l 572 1152 z "},"Á":{"ha":933,"x_min":34,"x_max":899,"o":"m 559 524 l 467 779 l 374 524 l 559 524 m 505 1085 l 899 0 l 750 0 l 610 384 l 323 384 l 184 0 l 34 0 l 429 1085 l 505 1085 m 508 1341 l 679 1341 l 494 1152 l 361 1152 l 508 1341 z "},"Â":{"ha":933,"x_min":34,"x_max":899,"o":"m 559 524 l 467 779 l 374 524 l 559 524 m 505 1085 l 899 0 l 750 0 l 610 384 l 323 384 l 184 0 l 34 0 l 429 1085 l 505 1085 m 528 1186 l 465 1242 l 405 1186 l 256 1186 l 414 1348 l 514 1348 l 677 1186 l 528 1186 z "},"Ã":{"ha":933,"x_min":34,"x_max":899,"o":"m 559 524 l 467 779 l 374 524 l 559 524 m 505 1085 l 899 0 l 750 0 l 610 384 l 323 384 l 184 0 l 34 0 l 429 1085 l 505 1085 m 484 1320 q 505 1300 484 1320 q 543 1280 526 1280 l 543 1280 q 564 1306 564 1280 q 555 1353 564 1324 l 681 1353 q 581 1182 655 1204 q 543 1177 562 1177 q 453 1215 493 1177 q 393 1254 412 1254 l 391 1254 q 370 1227 370 1253 q 380 1183 370 1211 l 253 1183 q 354 1354 279 1332 q 392 1359 373 1359 q 484 1320 441 1359 z "},"Ä":{"ha":933,"x_min":34,"x_max":899,"o":"m 559 524 l 467 779 l 374 524 l 559 524 m 505 1085 l 899 0 l 750 0 l 610 384 l 323 384 l 184 0 l 34 0 l 429 1085 l 505 1085 m 339 1362 q 408 1334 379 1362 q 437 1265 437 1305 q 408 1195 437 1223 q 339 1166 379 1166 q 270 1195 298 1166 q 241 1265 241 1223 q 270 1334 241 1305 q 339 1362 298 1362 m 594 1362 q 663 1334 634 1362 q 692 1265 692 1305 q 663 1195 692 1223 q 594 1166 634 1166 q 525 1195 553 1166 q 496 1265 496 1223 q 525 1334 496 1305 q 594 1362 553 1362 z "},"Å":{"ha":933,"x_min":34,"x_max":899,"o":"m 559 524 l 467 779 l 374 524 l 559 524 m 469 1179 q 494 1189 484 1179 q 505 1215 505 1200 q 494 1245 505 1234 q 469 1255 484 1255 q 439 1245 450 1255 q 429 1215 429 1234 q 439 1189 429 1200 q 469 1179 450 1179 m 507 1080 l 899 0 l 750 0 l 610 384 l 323 384 l 184 0 l 34 0 l 427 1080 q 366 1116 393 1089 q 324 1217 324 1158 q 366 1318 324 1276 q 467 1360 408 1360 q 568 1318 526 1360 q 610 1217 610 1276 q 568 1116 610 1158 q 507 1080 541 1089 z "},"Æ":{"ha":1163,"x_min":27,"x_max":1079,"o":"m 1079 1085 l 1079 945 l 635 945 l 635 613 l 1079 613 l 1079 473 l 635 473 l 635 141 l 1079 141 l 1079 0 l 494 0 l 494 384 l 363 384 l 199 0 l 27 0 l 494 1050 l 494 1085 l 1079 1085 m 494 697 l 420 524 l 494 524 l 494 697 z "},"Ç":{"ha":1114,"x_min":85,"x_max":1046,"o":"m 529 -1 q 247 151 369 28 q 85 543 85 313 q 247 935 85 772 q 639 1097 409 1097 q 1046 922 854 1097 l 941 826 q 639 955 796 955 q 348 834 469 955 q 227 543 227 713 q 348 250 227 371 q 639 130 469 130 q 941 258 796 130 l 1046 164 q 639 -12 854 -12 l 626 -12 l 619 -30 q 684 -90 669 -56 q 688 -109 686 -100 q 690 -126 690 -117 q 669 -181 690 -155 q 572 -231 636 -221 q 542 -233 559 -233 q 441 -222 503 -233 l 465 -137 q 528 -155 503 -155 q 535 -154 532 -155 q 562 -130 556 -151 q 564 -120 564 -125 q 564 -115 564 -117 q 501 -77 559 -96 l 529 -1 z "},"È":{"ha":771,"x_min":102,"x_max":686,"o":"m 686 1085 l 686 945 l 242 945 l 242 613 l 686 613 l 686 473 l 242 473 l 242 141 l 686 141 l 686 0 l 102 0 l 102 1085 l 686 1085 m 500 1152 l 366 1152 l 182 1341 l 353 1341 l 500 1152 z "},"É":{"ha":771,"x_min":102,"x_max":686,"o":"m 686 1085 l 686 945 l 242 945 l 242 613 l 686 613 l 686 473 l 242 473 l 242 141 l 686 141 l 686 0 l 102 0 l 102 1085 l 686 1085 m 435 1341 l 606 1341 l 422 1152 l 288 1152 l 435 1341 z "},"Ê":{"ha":771,"x_min":102,"x_max":686,"o":"m 686 1085 l 686 945 l 242 945 l 242 613 l 686 613 l 686 473 l 242 473 l 242 141 l 686 141 l 686 0 l 102 0 l 102 1085 l 686 1085 m 455 1186 l 393 1242 l 332 1186 l 184 1186 l 342 1348 l 441 1348 l 605 1186 l 455 1186 z "},"Ë":{"ha":771,"x_min":102,"x_max":686,"o":"m 686 1085 l 686 945 l 242 945 l 242 613 l 686 613 l 686 473 l 242 473 l 242 141 l 686 141 l 686 0 l 102 0 l 102 1085 l 686 1085 m 267 1362 q 336 1334 307 1362 q 365 1265 365 1305 q 336 1195 365 1223 q 267 1166 307 1166 q 197 1195 226 1166 q 168 1265 168 1223 q 197 1334 168 1305 q 267 1362 226 1362 m 522 1362 q 591 1334 562 1362 q 620 1265 620 1305 q 591 1195 620 1223 q 522 1166 562 1166 q 452 1195 481 1166 q 423 1265 423 1223 q 452 1334 423 1305 q 522 1362 481 1362 z "},"Ì":{"ha":372,"x_min":-26,"x_max":292,"o":"m 256 1085 l 256 0 l 115 0 l 115 1085 l 256 1085 m 292 1152 l 158 1152 l -26 1341 l 144 1341 l 292 1152 z "},"Í":{"ha":372,"x_min":79,"x_max":397,"o":"m 256 1085 l 256 0 l 115 0 l 115 1085 l 256 1085 m 227 1341 l 397 1341 l 213 1152 l 79 1152 l 227 1341 z "},"Î":{"ha":372,"x_min":-25,"x_max":396,"o":"m 256 1085 l 256 0 l 115 0 l 115 1085 l 256 1085 m 246 1186 l 184 1242 l 123 1186 l -25 1186 l 133 1348 l 233 1348 l 396 1186 l 246 1186 z "},"Ï":{"ha":372,"x_min":-40,"x_max":412,"o":"m 256 1085 l 256 0 l 116 0 l 116 1085 l 256 1085 m 58 1362 q 127 1334 98 1362 q 157 1265 157 1305 q 127 1195 157 1223 q 58 1166 98 1166 q -11 1195 18 1166 q -40 1265 -40 1223 q -11 1334 -40 1305 q 58 1362 18 1362 m 313 1362 q 382 1334 353 1362 q 412 1265 412 1305 q 382 1195 412 1223 q 313 1166 353 1166 q 244 1195 273 1166 q 215 1265 215 1223 q 244 1334 215 1305 q 313 1362 273 1362 z "},"Ð":{"ha":848,"x_min":-27,"x_max":779,"o":"m 102 612 l 102 1085 l 205 1085 q 617 935 469 1084 q 779 543 779 772 q 617 150 779 313 q 205 0 469 1 l 102 0 l 102 473 l -27 473 l -27 612 l 102 612 m 242 612 l 477 612 l 477 473 l 242 473 l 242 142 q 517 250 410 142 q 637 543 637 371 q 517 835 637 713 q 242 942 410 942 l 242 612 z "},"Ñ":{"ha":920,"x_min":102,"x_max":819,"o":"m 102 1085 l 230 1085 l 677 311 l 677 1085 l 819 1085 l 819 0 l 696 0 l 242 784 l 242 0 l 102 0 l 102 1085 m 477 1320 q 498 1300 477 1320 q 536 1280 519 1280 l 536 1280 q 557 1306 557 1280 q 548 1353 557 1324 l 674 1353 q 574 1182 648 1204 q 536 1177 555 1177 q 446 1215 486 1177 q 387 1254 406 1254 l 384 1254 q 363 1227 363 1253 q 373 1183 363 1211 l 246 1183 q 347 1354 273 1332 q 385 1359 366 1359 q 477 1320 435 1359 z "},"Ò":{"ha":1281,"x_min":85,"x_max":1196,"o":"m 640 1099 q 1033 937 870 1099 q 1196 544 1196 774 q 1033 151 1196 314 q 640 -12 870 -12 q 248 151 410 -12 q 85 544 85 314 q 248 937 85 774 q 640 1099 410 1099 m 640 958 q 348 837 469 958 q 227 544 227 715 q 348 251 227 372 q 640 130 469 130 q 933 251 812 130 q 1054 544 1054 372 q 933 837 1054 715 q 640 958 812 958 m 746 1152 l 612 1152 l 428 1341 l 599 1341 l 746 1152 z "},"Ó":{"ha":1281,"x_min":85,"x_max":1196,"o":"m 640 1099 q 1033 937 870 1099 q 1196 544 1196 774 q 1033 151 1196 314 q 640 -12 870 -12 q 248 151 410 -12 q 85 544 85 314 q 248 937 85 774 q 640 1099 410 1099 m 640 958 q 348 837 469 958 q 227 544 227 715 q 348 251 227 372 q 640 130 469 130 q 933 251 812 130 q 1054 544 1054 372 q 933 837 1054 715 q 640 958 812 958 m 682 1341 l 852 1341 l 668 1152 l 534 1152 l 682 1341 z "},"Ô":{"ha":1281,"x_min":85,"x_max":1196,"o":"m 640 1099 q 1033 937 870 1099 q 1196 544 1196 774 q 1033 151 1196 314 q 640 -12 870 -12 q 248 151 410 -12 q 85 544 85 314 q 248 937 85 774 q 640 1099 410 1099 m 640 958 q 348 837 469 958 q 227 544 227 715 q 348 251 227 372 q 640 130 469 130 q 933 251 812 130 q 1054 544 1054 372 q 933 837 1054 715 q 640 958 812 958 m 701 1186 l 639 1242 l 578 1186 l 430 1186 l 588 1348 l 688 1348 l 851 1186 l 701 1186 z "},"Õ":{"ha":1281,"x_min":85,"x_max":1196,"o":"m 640 1099 q 1033 937 870 1099 q 1196 544 1196 774 q 1033 151 1196 314 q 640 -12 870 -12 q 248 151 410 -12 q 85 544 85 314 q 248 937 85 774 q 640 1099 410 1099 m 640 958 q 348 837 469 958 q 227 544 227 715 q 348 251 227 372 q 640 130 469 130 q 933 251 812 130 q 1054 544 1054 372 q 933 837 1054 715 q 640 958 812 958 m 657 1320 q 678 1300 657 1320 q 717 1280 699 1280 l 717 1280 q 737 1306 737 1280 q 728 1353 737 1324 l 854 1353 q 755 1182 829 1204 q 717 1177 736 1177 q 626 1215 667 1177 q 567 1254 586 1254 l 564 1254 q 544 1227 544 1253 q 553 1183 544 1211 l 427 1183 q 528 1354 453 1332 q 566 1359 547 1359 q 657 1320 615 1359 z "},"Ö":{"ha":1281,"x_min":85,"x_max":1196,"o":"m 640 1099 q 1033 937 870 1099 q 1196 544 1196 774 q 1033 151 1196 314 q 640 -12 870 -12 q 248 151 410 -12 q 85 544 85 314 q 248 937 85 774 q 640 1099 410 1099 m 640 958 q 348 837 469 958 q 227 544 227 715 q 348 251 227 372 q 640 130 469 130 q 933 251 812 130 q 1054 544 1054 372 q 933 837 1054 715 q 640 958 812 958 m 513 1362 q 582 1334 553 1362 q 611 1265 611 1305 q 582 1195 611 1223 q 513 1166 553 1166 q 443 1195 472 1166 q 414 1265 414 1223 q 443 1334 414 1305 q 513 1362 472 1362 m 768 1362 q 837 1334 808 1362 q 866 1265 866 1305 q 837 1195 866 1223 q 768 1166 808 1166 q 698 1195 727 1166 q 669 1265 669 1223 q 698 1334 669 1305 q 768 1362 727 1362 z "},"×":{"ha":798,"x_min":142,"x_max":654,"o":"m 399 313 l 242 156 l 142 256 l 299 412 l 142 570 l 242 669 l 399 512 l 556 669 l 654 569 l 498 412 l 654 256 l 556 156 l 399 313 z "},"Ø":{"ha":1281,"x_min":85,"x_max":1196,"o":"m 750 947 q 640 958 722 958 q 348 837 469 958 q 227 544 227 715 q 348 251 227 372 q 403 201 392 207 l 750 947 m 530 141 q 640 130 558 130 q 933 251 812 130 q 1054 544 1054 372 q 933 837 1054 715 q 878 887 889 881 l 530 141 m 938 1016 q 1034 937 972 997 q 1196 544 1196 774 q 1033 151 1196 314 q 640 -12 870 -12 q 470 12 529 -12 l 416 -105 l 288 -45 l 342 72 q 248 151 308 91 q 85 544 85 314 q 248 937 85 774 q 640 1099 410 1099 q 810 1076 751 1099 l 865 1193 l 993 1133 l 938 1016 z "},"Ù":{"ha":941,"x_min":102,"x_max":840,"o":"m 699 1085 l 840 1085 l 840 321 q 732 100 821 190 q 471 -9 623 -9 q 210 99 318 -9 q 102 360 102 208 l 102 1085 l 243 1085 l 243 360 q 310 200 243 267 q 471 133 376 133 q 632 199 566 133 q 699 360 699 266 l 699 1085 m 576 1152 l 443 1152 l 258 1341 l 429 1341 l 576 1152 z "},"Ú":{"ha":941,"x_min":102,"x_max":840,"o":"m 699 1085 l 840 1085 l 840 321 q 732 100 821 190 q 471 -9 623 -9 q 210 99 318 -9 q 102 360 102 208 l 102 1085 l 243 1085 l 243 360 q 310 200 243 267 q 471 133 376 133 q 632 199 566 133 q 699 360 699 266 l 699 1085 m 512 1341 l 683 1341 l 498 1152 l 365 1152 l 512 1341 z "},"Û":{"ha":941,"x_min":102,"x_max":840,"o":"m 699 1085 l 840 1085 l 840 321 q 732 100 821 190 q 471 -9 623 -9 q 210 99 318 -9 q 102 360 102 208 l 102 1085 l 243 1085 l 243 360 q 310 200 243 267 q 471 133 376 133 q 632 199 566 133 q 699 360 699 266 l 699 1085 m 532 1186 l 469 1242 l 409 1186 l 260 1186 l 418 1348 l 518 1348 l 682 1186 l 532 1186 z "},"Ü":{"ha":941,"x_min":102,"x_max":840,"o":"m 699 1085 l 840 1085 l 840 321 q 732 100 821 190 q 471 -9 623 -9 q 210 99 318 -9 q 102 360 102 208 l 102 1085 l 243 1085 l 243 360 q 310 200 243 267 q 471 133 376 133 q 632 199 566 133 q 699 360 699 266 l 699 1085 m 343 1362 q 412 1334 383 1362 q 441 1265 441 1305 q 412 1195 441 1223 q 343 1166 383 1166 q 274 1195 302 1166 q 245 1265 245 1223 q 274 1334 245 1305 q 343 1362 302 1362 m 598 1362 q 667 1334 638 1362 q 696 1265 696 1305 q 667 1195 696 1223 q 598 1166 638 1166 q 529 1195 557 1166 q 500 1265 500 1223 q 529 1334 500 1305 q 598 1362 557 1362 z "},"Ý":{"ha":959,"x_min":34,"x_max":925,"o":"m 409 435 l 34 1085 l 195 1085 l 479 594 l 763 1085 l 925 1085 l 549 435 l 549 0 l 409 0 l 409 435 m 521 1341 l 692 1341 l 507 1152 l 374 1152 l 521 1341 z "},"Þ":{"ha":800,"x_min":102,"x_max":739,"o":"m 242 912 l 410 912 q 631 804 541 894 q 739 543 739 696 q 631 282 739 390 q 370 174 523 174 l 242 174 l 242 0 l 102 0 l 102 1085 l 242 1085 l 242 912 m 242 315 l 370 315 q 531 382 464 315 q 597 543 597 449 q 531 704 597 637 q 370 770 464 770 l 242 770 l 242 315 z "},"ß":{"ha":774,"x_min":95,"x_max":713,"o":"m 318 1090 l 329 1090 q 485 1037 420 1090 q 562 863 556 978 l 562 852 q 531 722 562 741 q 713 388 704 652 q 602 112 713 228 q 391 1 496 3 l 391 0 l 338 0 l 338 141 l 391 141 l 391 143 q 498 213 434 146 q 570 387 570 286 q 499 558 570 487 q 332 629 428 629 l 332 771 q 399 798 376 777 q 422 857 422 819 q 398 924 422 896 q 335 947 378 947 l 329 947 q 260 919 282 945 q 235 833 239 893 l 235 0 l 95 0 l 95 845 q 160 1024 102 962 q 318 1090 218 1086 z "},"à":{"ha":950,"x_min":85,"x_max":848,"o":"m 707 316 l 707 419 q 642 538 694 485 q 471 609 570 609 q 299 538 370 609 q 229 368 229 468 q 299 197 229 268 q 471 126 370 126 q 642 197 570 126 q 707 316 694 250 m 707 649 l 707 698 l 848 698 l 848 -1 l 707 -1 l 707 87 q 471 -18 605 -18 q 198 95 311 -18 q 85 368 85 208 q 198 641 85 528 q 471 753 311 753 q 707 649 605 753 m 572 765 l 439 765 l 254 954 l 425 954 l 572 765 z "},"á":{"ha":950,"x_min":85,"x_max":848,"o":"m 707 316 l 707 419 q 642 538 694 485 q 471 609 570 609 q 299 538 370 609 q 229 368 229 468 q 299 197 229 268 q 471 126 370 126 q 642 197 570 126 q 707 316 694 250 m 707 649 l 707 698 l 848 698 l 848 -1 l 707 -1 l 707 87 q 471 -18 605 -18 q 198 95 311 -18 q 85 368 85 208 q 198 641 85 528 q 471 753 311 753 q 707 649 605 753 m 507 954 l 678 954 l 494 765 l 360 765 l 507 954 z "},"â":{"ha":950,"x_min":85,"x_max":848,"o":"m 707 316 l 707 419 q 642 538 694 485 q 471 609 570 609 q 299 538 370 609 q 229 368 229 468 q 299 197 229 268 q 471 126 370 126 q 642 197 570 126 q 707 316 694 250 m 707 649 l 707 698 l 848 698 l 848 -1 l 707 -1 l 707 87 q 471 -18 605 -18 q 198 95 311 -18 q 85 368 85 208 q 198 641 85 528 q 471 753 311 753 q 707 649 605 753 m 527 799 l 465 854 l 404 799 l 256 799 l 414 960 l 513 960 l 677 799 l 527 799 z "},"ã":{"ha":950,"x_min":85,"x_max":848,"o":"m 707 316 l 707 419 q 642 538 694 485 q 471 609 570 609 q 299 538 370 609 q 229 368 229 468 q 299 197 229 268 q 471 126 370 126 q 642 197 570 126 q 707 316 694 250 m 707 649 l 707 698 l 848 698 l 848 -1 l 707 -1 l 707 87 q 471 -18 605 -18 q 198 95 311 -18 q 85 368 85 208 q 198 641 85 528 q 471 753 311 753 q 707 649 605 753 m 483 932 q 504 913 483 932 q 543 893 525 893 l 543 892 q 563 919 563 892 q 554 966 563 937 l 680 966 q 581 795 654 817 q 543 789 562 789 q 452 828 492 789 q 393 867 412 867 l 390 867 q 370 840 370 865 q 379 795 370 823 l 252 795 q 353 966 279 945 q 391 972 372 972 q 483 932 441 972 z "},"ä":{"ha":950,"x_min":85,"x_max":848,"o":"m 707 316 l 707 419 q 642 538 694 485 q 471 609 570 609 q 299 538 370 609 q 229 368 229 468 q 299 197 229 268 q 471 126 370 126 q 642 197 570 126 q 707 316 694 250 m 707 649 l 707 698 l 848 698 l 848 -1 l 707 -1 l 707 87 q 471 -18 605 -18 q 198 95 311 -18 q 85 368 85 208 q 198 641 85 528 q 471 753 311 753 q 707 649 605 753 m 339 975 q 408 947 379 975 q 437 878 437 918 q 408 808 437 836 q 339 779 379 779 q 270 808 298 779 q 241 878 241 836 q 270 947 241 918 q 339 975 298 975 m 594 975 q 663 947 634 975 q 692 878 692 918 q 663 808 692 836 q 594 779 634 779 q 525 808 553 779 q 496 878 496 836 q 525 947 496 918 q 594 975 553 975 z "},"å":{"ha":950,"x_min":85,"x_max":848,"o":"m 707 316 l 707 419 q 642 538 694 485 q 471 609 570 609 q 299 538 370 609 q 229 368 229 468 q 299 197 229 268 q 471 126 370 126 q 642 197 570 126 q 707 316 694 250 m 468 813 q 494 824 483 813 q 505 850 505 834 q 494 879 505 869 q 468 890 483 890 q 438 879 449 890 q 428 850 428 869 q 438 824 428 834 q 468 813 449 813 m 557 742 q 707 649 640 718 l 707 698 l 848 698 l 848 -1 l 707 -1 l 707 87 q 471 -18 605 -18 q 198 95 311 -18 q 85 368 85 208 q 198 641 85 528 q 374 742 275 718 q 366 751 370 746 q 323 851 323 793 q 365 952 323 910 q 467 994 407 994 q 567 952 526 994 q 609 851 609 910 q 568 751 609 793 q 557 742 562 746 z "},"æ":{"ha":1453,"x_min":61,"x_max":1392,"o":"m 659 484 q 617 539 643 513 q 446 610 547 610 q 276 539 347 610 q 205 368 205 469 q 276 197 205 268 q 446 127 347 127 q 617 198 547 127 q 659 252 644 224 q 684 317 677 284 l 684 420 q 659 484 677 452 m 1223 499 l 1183 539 q 1013 610 1113 610 q 842 539 912 610 q 824 520 827 524 l 824 499 l 1223 499 m 684 673 l 684 699 l 824 699 q 1013 754 862 754 q 1286 641 1173 754 q 1392 358 1386 540 l 824 359 l 824 216 q 841 198 827 212 q 1013 127 912 127 q 1183 198 1113 127 q 1226 248 1196 211 l 1363 199 q 1286 96 1323 133 q 1013 -17 1173 -17 q 824 18 862 -17 l 824 0 l 684 0 l 684 64 q 446 -17 582 -17 q 174 96 287 -17 q 61 368 61 209 q 174 641 61 528 q 446 754 287 754 q 684 673 582 754 z "},"ç":{"ha":856,"x_min":61,"x_max":795,"o":"m 387 -14 q 174 95 265 4 q 61 368 61 208 q 174 642 61 528 q 447 755 288 755 q 720 642 607 755 q 795 549 743 618 l 654 497 q 618 540 627 530 q 447 610 547 610 q 276 539 347 610 q 205 368 205 469 q 276 198 205 269 q 447 127 347 127 q 618 197 547 127 q 654 239 627 207 l 795 189 q 720 95 743 118 q 486 -16 621 -4 l 481 -30 q 546 -90 532 -56 q 551 -109 549 -100 q 553 -126 553 -117 q 532 -181 553 -155 q 434 -231 498 -221 q 404 -233 421 -233 q 303 -222 365 -233 l 327 -137 q 390 -155 366 -155 q 397 -154 394 -155 q 425 -130 418 -151 q 427 -120 427 -125 q 426 -115 427 -117 q 363 -77 422 -96 l 387 -14 z "},"è":{"ha":856,"x_min":61,"x_max":795,"o":"m 319 158 q 447 127 354 127 q 618 197 547 127 q 654 239 627 207 l 795 189 q 720 95 743 118 q 447 -18 607 -18 q 174 95 288 -18 q 61 368 61 208 q 174 642 61 528 q 447 755 288 755 q 687 672 584 755 q 720 642 704 658 q 759 599 727 635 l 688 528 l 319 158 m 553 592 q 447 610 530 610 q 276 539 347 610 q 205 368 205 469 q 224 262 205 286 l 553 592 m 534 765 l 400 765 l 216 954 l 387 954 l 534 765 z "},"é":{"ha":856,"x_min":61,"x_max":795,"o":"m 319 158 q 447 127 354 127 q 618 197 547 127 q 654 239 627 207 l 795 189 q 720 95 743 118 q 447 -18 607 -18 q 174 95 288 -18 q 61 368 61 208 q 174 642 61 528 q 447 755 288 755 q 687 672 584 755 q 720 642 704 658 q 759 599 727 635 l 688 528 l 319 158 m 553 592 q 447 610 530 610 q 276 539 347 610 q 205 368 205 469 q 224 262 205 286 l 553 592 m 469 954 l 640 954 l 456 765 l 322 765 l 469 954 z "},"ê":{"ha":856,"x_min":61,"x_max":795,"o":"m 319 158 q 447 127 354 127 q 618 197 547 127 q 654 239 627 207 l 795 189 q 720 95 743 118 q 447 -18 607 -18 q 174 95 288 -18 q 61 368 61 208 q 174 642 61 528 q 447 755 288 755 q 687 672 584 755 q 720 642 704 658 q 759 599 727 635 l 688 528 l 319 158 m 553 592 q 447 610 530 610 q 276 539 347 610 q 205 368 205 469 q 224 262 205 286 l 553 592 m 489 799 l 427 854 l 366 799 l 218 799 l 376 960 l 475 960 l 639 799 l 489 799 z "},"ë":{"ha":856,"x_min":61,"x_max":795,"o":"m 319 158 q 447 127 354 127 q 618 197 547 127 q 654 239 627 207 l 795 189 q 720 95 743 118 q 447 -18 607 -18 q 174 95 288 -18 q 61 368 61 208 q 174 642 61 528 q 447 755 288 755 q 687 672 584 755 q 720 642 704 658 q 759 599 727 635 l 688 528 l 319 158 m 553 592 q 447 610 530 610 q 276 539 347 610 q 205 368 205 469 q 224 262 205 286 l 553 592 m 300 975 q 370 947 340 975 q 399 878 399 918 q 370 808 399 836 q 300 779 340 779 q 231 808 260 779 q 202 878 202 836 q 231 947 202 918 q 300 975 260 975 m 555 975 q 625 947 595 975 q 654 878 654 918 q 625 808 654 836 q 555 779 595 779 q 486 808 515 779 q 457 878 457 836 q 486 947 457 918 q 555 975 515 975 z "},"ì":{"ha":372,"x_min":-26,"x_max":292,"o":"m 256 699 l 256 0 l 115 0 l 115 699 l 256 699 m 292 765 l 158 765 l -26 954 l 144 954 l 292 765 z "},"í":{"ha":372,"x_min":79,"x_max":397,"o":"m 256 699 l 256 0 l 115 0 l 115 699 l 256 699 m 227 954 l 397 954 l 213 765 l 79 765 l 227 954 z "},"î":{"ha":372,"x_min":-25,"x_max":396,"o":"m 256 699 l 256 0 l 115 0 l 115 699 l 256 699 m 246 799 l 184 854 l 123 799 l -25 799 l 133 960 l 233 960 l 396 799 l 246 799 z "},"ï":{"ha":372,"x_min":-40,"x_max":412,"o":"m 256 699 l 256 0 l 116 0 l 116 699 l 256 699 m 58 975 q 127 947 98 975 q 157 878 157 918 q 127 808 157 836 q 58 779 98 779 q -11 808 18 779 q -40 878 -40 836 q -11 947 -40 918 q 58 975 18 975 m 313 975 q 382 947 353 975 q 412 878 412 918 q 382 808 412 836 q 313 779 353 779 q 244 808 273 779 q 215 878 215 836 q 244 947 215 918 q 313 975 273 975 z "},"ð":{"ha":894,"x_min":61,"x_max":833,"o":"m 276 539 q 240 504 276 539 q 205 368 205 468 q 276 197 205 268 q 447 127 347 127 q 618 197 547 127 q 689 368 689 268 q 618 539 689 468 q 447 610 547 610 q 276 539 347 610 m 790 548 q 833 368 833 467 q 720 95 833 208 q 447 -18 607 -18 q 174 95 288 -18 q 61 368 61 208 q 174 642 61 528 q 447 755 288 755 q 470 754 458 755 l 357 879 l 273 819 l 99 819 l 290 954 l 167 1085 l 338 1085 l 392 1025 l 484 1085 l 654 1085 l 456 949 l 687 671 q 720 642 704 657 q 789 549 763 599 l 790 548 z "},"ñ":{"ha":772,"x_min":102,"x_max":669,"o":"m 243 511 l 243 0 l 102 0 l 102 698 l 243 698 l 243 616 q 420 736 287 736 q 600 655 533 736 q 669 454 667 575 l 669 0 l 528 0 l 528 448 q 484 552 528 509 q 379 595 440 595 q 275 553 319 595 q 243 511 250 528 m 402 932 q 423 913 402 932 q 462 893 444 893 l 462 892 q 482 919 482 892 q 473 966 482 937 l 600 966 q 500 795 574 817 q 462 789 481 789 q 371 828 412 789 q 312 867 331 867 l 309 867 q 289 840 289 865 q 298 795 289 823 l 172 795 q 273 966 198 945 q 311 972 292 972 q 402 932 360 972 z "},"ò":{"ha":894,"x_min":61,"x_max":833,"o":"m 447 755 q 720 642 607 755 q 833 368 833 528 q 720 95 833 208 q 447 -18 607 -18 q 174 95 288 -18 q 61 368 61 208 q 174 642 61 528 q 447 755 288 755 m 447 610 q 276 539 347 610 q 205 368 205 468 q 276 197 205 268 q 447 127 347 127 q 618 197 547 127 q 689 368 689 268 q 618 539 689 468 q 447 610 547 610 m 553 765 l 419 765 l 235 954 l 406 954 l 553 765 z "},"ó":{"ha":894,"x_min":61,"x_max":833,"o":"m 447 755 q 720 642 607 755 q 833 368 833 528 q 720 95 833 208 q 447 -18 607 -18 q 174 95 288 -18 q 61 368 61 208 q 174 642 61 528 q 447 755 288 755 m 447 610 q 276 539 347 610 q 205 368 205 468 q 276 197 205 268 q 447 127 347 127 q 618 197 547 127 q 689 368 689 268 q 618 539 689 468 q 447 610 547 610 m 488 954 l 659 954 l 475 765 l 341 765 l 488 954 z "},"ô":{"ha":894,"x_min":61,"x_max":833,"o":"m 447 755 q 720 642 607 755 q 833 368 833 528 q 720 95 833 208 q 447 -18 607 -18 q 174 95 288 -18 q 61 368 61 208 q 174 642 61 528 q 447 755 288 755 m 447 610 q 276 539 347 610 q 205 368 205 468 q 276 197 205 268 q 447 127 347 127 q 618 197 547 127 q 689 368 689 268 q 618 539 689 468 q 447 610 547 610 m 508 799 l 446 854 l 385 799 l 237 799 l 395 960 l 494 960 l 658 799 l 508 799 z "},"õ":{"ha":894,"x_min":61,"x_max":833,"o":"m 447 755 q 720 642 607 755 q 833 368 833 528 q 720 95 833 208 q 447 -18 607 -18 q 174 95 288 -18 q 61 368 61 208 q 174 642 61 528 q 447 755 288 755 m 447 610 q 276 539 347 610 q 205 368 205 468 q 276 197 205 268 q 447 127 347 127 q 618 197 547 127 q 689 368 689 268 q 618 539 689 468 q 447 610 547 610 m 464 932 q 485 913 464 932 q 524 893 506 893 l 524 892 q 544 919 544 892 q 535 966 544 937 l 661 966 q 562 795 635 817 q 524 789 543 789 q 433 828 473 789 q 374 867 393 867 l 371 867 q 351 840 351 865 q 360 795 351 823 l 233 795 q 334 966 260 945 q 372 972 353 972 q 464 932 422 972 z "},"ö":{"ha":894,"x_min":61,"x_max":833,"o":"m 447 755 q 720 642 607 755 q 833 368 833 528 q 720 95 833 208 q 447 -18 607 -18 q 174 95 288 -18 q 61 368 61 208 q 174 642 61 528 q 447 755 288 755 m 447 610 q 276 539 347 610 q 205 368 205 468 q 276 197 205 268 q 447 127 347 127 q 618 197 547 127 q 689 368 689 268 q 618 539 689 468 q 447 610 547 610 m 319 975 q 389 947 359 975 q 418 878 418 918 q 389 808 418 836 q 319 779 359 779 q 250 808 279 779 q 221 878 221 836 q 250 947 221 918 q 319 975 279 975 m 574 975 q 644 947 614 975 q 673 878 673 918 q 644 808 673 836 q 574 779 614 779 q 505 808 534 779 q 476 878 476 836 q 505 947 476 918 q 574 975 534 975 z "},"÷":{"ha":754,"x_min":85,"x_max":669,"o":"m 85 496 l 669 496 l 669 356 l 85 356 l 85 496 m 377 717 q 447 688 418 717 q 475 619 475 660 q 447 549 475 578 q 377 521 418 521 q 308 549 336 521 q 279 619 279 578 q 308 688 279 660 q 377 717 336 717 m 377 331 q 447 302 418 331 q 475 233 475 274 q 447 163 475 192 q 377 135 418 135 q 308 163 336 135 q 279 233 279 192 q 308 302 279 274 q 377 331 336 331 z "},"ø":{"ha":893,"x_min":61,"x_max":832,"o":"m 505 609 q 446 610 501 610 q 276 539 347 610 q 205 369 205 469 q 268 199 205 269 l 505 609 m 389 129 q 446 127 392 127 q 617 198 547 127 q 688 369 688 269 q 617 540 688 469 l 389 129 m 199 71 l 174 96 q 61 369 61 210 q 174 642 61 529 q 446 755 287 755 q 578 735 537 755 l 654 869 l 779 804 l 694 667 l 720 642 q 832 369 832 529 q 719 96 832 210 q 446 -17 606 -17 q 316 3 356 -17 l 239 -130 l 113 -70 l 199 71 z "},"ù":{"ha":788,"x_min":102,"x_max":686,"o":"m 397 -9 q 184 71 265 -9 q 102 273 104 152 l 102 698 l 243 698 l 243 279 q 287 175 243 218 q 397 132 331 132 q 502 175 457 132 q 546 279 546 218 l 546 698 l 686 698 l 686 273 q 604 71 684 152 q 397 -9 524 -9 m 500 765 l 366 765 l 182 954 l 353 954 l 500 765 z "},"ú":{"ha":788,"x_min":102,"x_max":686,"o":"m 397 -9 q 184 71 265 -9 q 102 273 104 152 l 102 698 l 243 698 l 243 279 q 287 175 243 218 q 397 132 331 132 q 502 175 457 132 q 546 279 546 218 l 546 698 l 686 698 l 686 273 q 604 71 684 152 q 397 -9 524 -9 m 435 954 l 606 954 l 422 765 l 288 765 l 435 954 z "},"û":{"ha":788,"x_min":102,"x_max":686,"o":"m 397 -9 q 184 71 265 -9 q 102 273 104 152 l 102 698 l 243 698 l 243 279 q 287 175 243 218 q 397 132 331 132 q 502 175 457 132 q 546 279 546 218 l 546 698 l 686 698 l 686 273 q 604 71 684 152 q 397 -9 524 -9 m 455 799 l 393 854 l 332 799 l 184 799 l 342 960 l 441 960 l 605 799 l 455 799 z "},"ü":{"ha":788,"x_min":102,"x_max":686,"o":"m 397 -9 q 184 71 265 -9 q 102 273 104 152 l 102 698 l 243 698 l 243 279 q 287 175 243 218 q 397 132 331 132 q 502 175 457 132 q 546 279 546 218 l 546 698 l 686 698 l 686 273 q 604 71 684 152 q 397 -9 524 -9 m 267 975 q 336 947 307 975 q 365 878 365 918 q 336 808 365 836 q 267 779 307 779 q 197 808 226 779 q 168 878 168 836 q 197 947 168 918 q 267 975 226 975 m 522 975 q 591 947 562 975 q 620 878 620 918 q 591 808 620 836 q 522 779 562 779 q 452 808 481 779 q 423 878 423 836 q 452 947 423 918 q 522 975 481 975 z "},"ý":{"ha":772,"x_min":51,"x_max":720,"o":"m 273 -235 l 125 -235 l 311 155 l 51 698 l 209 698 l 386 316 l 563 698 l 720 698 l 273 -235 m 427 954 l 597 954 l 413 765 l 279 765 l 427 954 z "},"þ":{"ha":932,"x_min":102,"x_max":864,"o":"m 242 313 q 307 197 255 250 q 478 126 378 126 q 649 197 578 126 q 720 368 720 268 q 649 539 720 469 q 478 610 578 610 q 307 539 378 610 q 242 422 255 487 l 242 313 m 242 107 l 242 -234 l 102 -234 l 102 1085 l 242 1085 l 242 625 q 478 753 344 753 q 751 641 638 753 q 864 368 864 528 q 751 96 864 209 q 478 -17 639 -17 q 242 107 343 -17 z "},"ÿ":{"ha":772,"x_min":51,"x_max":720,"o":"m 273 -235 l 125 -235 l 311 155 l 51 698 l 209 698 l 386 316 l 563 698 l 720 698 l 273 -235 m 258 975 q 328 947 298 975 q 357 878 357 918 q 328 808 357 836 q 258 779 298 779 q 189 808 218 779 q 160 878 160 836 q 189 947 160 918 q 258 975 218 975 m 513 975 q 583 947 553 975 q 612 878 612 918 q 583 808 612 836 q 513 779 553 779 q 444 808 473 779 q 415 878 415 836 q 444 947 415 918 q 513 975 473 975 z "},"Ā":{"ha":933,"x_min":34,"x_max":899,"o":"m 559 524 l 467 779 l 374 524 l 559 524 m 505 1085 l 899 0 l 750 0 l 610 384 l 323 384 l 184 0 l 34 0 l 429 1085 l 505 1085 m 275 1362 l 659 1362 l 659 1221 l 275 1221 l 275 1362 z "},"ā":{"ha":950,"x_min":85,"x_max":848,"o":"m 707 316 l 707 419 q 642 538 694 485 q 471 609 570 609 q 299 538 370 609 q 229 368 229 468 q 299 197 229 268 q 471 126 370 126 q 642 197 570 126 q 707 316 694 250 m 707 649 l 707 698 l 848 698 l 848 -1 l 707 -1 l 707 87 q 471 -18 605 -18 q 198 95 311 -18 q 85 368 85 208 q 198 641 85 528 q 471 753 311 753 q 707 649 605 753 m 274 975 l 659 975 l 659 834 l 274 834 l 274 975 z "},"Ă":{"ha":933,"x_min":34,"x_max":899,"o":"m 559 524 l 467 779 l 374 524 l 559 524 m 505 1085 l 899 0 l 750 0 l 610 384 l 323 384 l 184 0 l 34 0 l 429 1085 l 505 1085 m 407 1345 q 425 1293 414 1303 q 467 1276 442 1276 q 509 1294 492 1276 q 526 1345 519 1303 l 655 1345 q 601 1222 640 1262 q 467 1166 546 1166 q 333 1222 388 1166 q 279 1345 290 1265 l 407 1345 z "},"ă":{"ha":950,"x_min":85,"x_max":848,"o":"m 707 316 l 707 419 q 642 538 694 485 q 471 609 570 609 q 299 538 370 609 q 229 368 229 468 q 299 197 229 268 q 471 126 370 126 q 642 197 570 126 q 707 316 694 250 m 707 649 l 707 698 l 848 698 l 848 -1 l 707 -1 l 707 87 q 471 -18 605 -18 q 198 95 311 -18 q 85 368 85 208 q 198 641 85 528 q 471 753 311 753 q 707 649 605 753 m 406 958 q 424 906 414 916 q 467 888 441 888 q 509 907 491 888 q 526 958 519 916 l 654 958 q 600 835 640 875 q 467 779 545 779 q 332 835 387 779 q 278 958 290 878 l 406 958 z "},"Ą":{"ha":933,"x_min":34,"x_max":899,"o":"m 559 524 l 467 779 l 374 524 l 559 524 m 732 51 l 610 384 l 323 384 l 184 0 l 34 0 l 429 1085 l 505 1085 l 899 0 l 794 0 q 760 -81 760 -48 q 764 -100 760 -92 q 795 -125 774 -125 q 860 -91 820 -125 l 899 -195 q 774 -229 817 -229 q 669 -184 709 -229 q 637 -96 637 -147 q 638 -72 637 -84 q 732 51 648 -7 z "},"ą":{"ha":950,"x_min":85,"x_max":888,"o":"m 707 316 l 707 419 q 642 538 694 485 q 471 609 570 609 q 299 538 370 609 q 229 368 229 468 q 299 197 229 268 q 471 126 370 126 q 642 197 570 126 q 707 316 694 250 m 707 41 l 707 87 q 471 -18 605 -18 q 198 95 311 -18 q 85 368 85 208 q 198 641 85 528 q 471 753 311 753 q 707 649 605 753 l 707 698 l 848 698 l 848 -1 l 783 -1 q 749 -81 749 -49 q 753 -100 749 -92 q 784 -125 763 -125 q 849 -91 809 -125 l 888 -195 q 763 -229 806 -229 q 659 -184 699 -229 q 626 -96 626 -147 q 627 -72 626 -84 q 707 41 636 -12 z "},"Ć":{"ha":1114,"x_min":85,"x_max":1046,"o":"m 941 258 l 1046 164 q 639 -12 854 -12 q 247 151 409 -12 q 85 543 85 313 q 247 935 85 772 q 639 1097 409 1097 q 1046 922 854 1097 l 941 826 q 639 955 796 955 q 348 834 469 955 q 227 543 227 713 q 348 250 227 371 q 639 130 469 130 q 941 258 796 130 m 607 1341 l 778 1341 l 593 1152 l 460 1152 l 607 1341 z "},"ć":{"ha":856,"x_min":61,"x_max":795,"o":"m 654 239 l 795 189 q 720 95 743 118 q 447 -18 607 -18 q 174 95 288 -18 q 61 368 61 208 q 174 642 61 528 q 447 755 288 755 q 720 642 607 755 q 795 549 743 618 l 654 497 q 618 540 627 530 q 447 610 547 610 q 276 539 347 610 q 205 368 205 469 q 276 198 205 269 q 447 127 347 127 q 618 197 547 127 q 654 239 627 207 m 469 954 l 640 954 l 456 765 l 322 765 l 469 954 z "},"Ĉ":{"ha":1114,"x_min":85,"x_max":1046,"o":"m 941 258 l 1046 164 q 639 -12 854 -12 q 247 151 409 -12 q 85 543 85 313 q 247 935 85 772 q 639 1097 409 1097 q 1046 922 854 1097 l 941 826 q 639 955 796 955 q 348 834 469 955 q 227 543 227 713 q 348 250 227 371 q 639 130 469 130 q 941 258 796 130 m 627 1186 l 564 1242 l 504 1186 l 355 1186 l 513 1348 l 613 1348 l 777 1186 l 627 1186 z "},"ĉ":{"ha":856,"x_min":61,"x_max":795,"o":"m 654 239 l 795 189 q 720 95 743 118 q 447 -18 607 -18 q 174 95 288 -18 q 61 368 61 208 q 174 642 61 528 q 447 755 288 755 q 720 642 607 755 q 795 549 743 618 l 654 497 q 618 540 627 530 q 447 610 547 610 q 276 539 347 610 q 205 368 205 469 q 276 198 205 269 q 447 127 347 127 q 618 197 547 127 q 654 239 627 207 m 489 799 l 427 854 l 366 799 l 218 799 l 376 960 l 475 960 l 639 799 l 489 799 z "},"Ċ":{"ha":1114,"x_min":85,"x_max":1046,"o":"m 941 258 l 1046 164 q 639 -12 854 -12 q 247 151 409 -12 q 85 543 85 313 q 247 935 85 772 q 639 1097 409 1097 q 1046 922 854 1097 l 941 826 q 639 955 796 955 q 348 834 469 955 q 227 543 227 713 q 348 250 227 371 q 639 130 469 130 q 941 258 796 130 m 566 1361 q 629 1335 603 1361 q 656 1272 656 1310 q 629 1208 656 1234 q 566 1182 603 1182 q 503 1208 529 1182 q 476 1272 476 1234 q 503 1335 476 1310 q 566 1361 529 1361 z "},"ċ":{"ha":856,"x_min":61,"x_max":795,"o":"m 654 239 l 795 189 q 720 95 743 118 q 447 -18 607 -18 q 174 95 288 -18 q 61 368 61 208 q 174 642 61 528 q 447 755 288 755 q 720 642 607 755 q 795 549 743 618 l 654 497 q 618 540 627 530 q 447 610 547 610 q 276 539 347 610 q 205 368 205 469 q 276 198 205 269 q 447 127 347 127 q 618 197 547 127 q 654 239 627 207 m 429 974 q 492 948 465 974 q 518 884 518 922 q 492 821 518 846 q 429 795 465 795 q 365 821 391 795 q 338 884 338 846 q 365 948 338 922 q 429 974 391 974 z "},"Č":{"ha":1114,"x_min":85,"x_max":1046,"o":"m 941 258 l 1046 164 q 639 -12 854 -12 q 247 151 409 -12 q 85 543 85 313 q 247 935 85 772 q 639 1097 409 1097 q 1046 922 854 1097 l 941 826 q 639 955 796 955 q 348 834 469 955 q 227 543 227 713 q 348 250 227 371 q 639 130 469 130 q 941 258 796 130 m 777 1348 l 613 1186 l 513 1186 l 355 1348 l 504 1348 l 564 1292 l 627 1348 l 777 1348 z "},"č":{"ha":856,"x_min":61,"x_max":795,"o":"m 654 239 l 795 189 q 720 95 743 118 q 447 -18 607 -18 q 174 95 288 -18 q 61 368 61 208 q 174 642 61 528 q 447 755 288 755 q 720 642 607 755 q 795 549 743 618 l 654 497 q 618 540 627 530 q 447 610 547 610 q 276 539 347 610 q 205 368 205 469 q 276 198 205 269 q 447 127 347 127 q 618 197 547 127 q 654 239 627 207 m 639 960 l 475 799 l 376 799 l 218 960 l 366 960 l 427 905 l 489 960 l 639 960 z "},"Ď":{"ha":848,"x_min":102,"x_max":779,"o":"m 242 942 l 242 142 q 517 250 410 142 q 637 543 637 371 q 517 835 637 713 q 242 942 410 942 m 205 1085 q 617 935 469 1084 q 779 543 779 772 q 617 150 779 313 q 205 0 469 1 l 102 0 l 102 1085 l 205 1085 m 651 1348 l 488 1186 l 388 1186 l 230 1348 l 378 1348 l 439 1292 l 501 1348 l 651 1348 z "},"ď":{"ha":1098,"x_min":85,"x_max":1091,"o":"m 707 316 l 707 420 q 642 539 695 486 q 471 610 571 610 q 299 539 370 610 q 229 368 229 468 q 299 197 229 268 q 471 127 370 127 q 642 197 571 127 q 707 316 695 251 m 707 650 l 707 1085 l 848 1085 l 848 0 l 707 0 l 707 87 q 471 -18 606 -18 q 198 95 311 -18 q 85 368 85 208 q 198 642 85 528 q 471 755 311 755 q 707 650 606 755 m 923 924 q 895 994 895 953 q 923 1063 895 1035 q 993 1092 952 1092 q 1062 1063 1033 1092 q 1091 994 1091 1035 q 1083 952 1091 972 l 1010 804 l 882 804 l 923 924 z "},"Đ":{"ha":848,"x_min":-27,"x_max":779,"o":"m 102 612 l 102 1085 l 205 1085 q 617 935 469 1084 q 779 543 779 772 q 617 150 779 313 q 205 0 469 1 l 102 0 l 102 473 l -27 473 l -27 612 l 102 612 m 242 612 l 477 612 l 477 473 l 242 473 l 242 142 q 517 250 410 142 q 637 543 637 371 q 517 835 637 713 q 242 942 410 942 l 242 612 z "},"đ":{"ha":950,"x_min":85,"x_max":964,"o":"m 707 316 l 707 420 q 642 539 695 486 q 471 610 571 610 q 299 539 370 610 q 229 368 229 468 q 299 197 229 268 q 471 127 370 127 q 642 197 571 127 q 707 316 695 251 m 848 831 l 848 0 l 707 0 l 707 87 q 471 -18 606 -18 q 198 95 311 -18 q 85 368 85 208 q 198 642 85 528 q 471 755 311 755 q 707 650 606 755 l 707 831 l 391 831 l 391 970 l 707 970 l 707 1085 l 848 1085 l 848 970 l 964 970 l 964 831 l 848 831 z "},"Ē":{"ha":771,"x_min":102,"x_max":686,"o":"m 686 1085 l 686 945 l 242 945 l 242 613 l 686 613 l 686 473 l 242 473 l 242 141 l 686 141 l 686 0 l 102 0 l 102 1085 l 686 1085 m 202 1362 l 587 1362 l 587 1221 l 202 1221 l 202 1362 z "},"ē":{"ha":856,"x_min":61,"x_max":795,"o":"m 319 158 q 447 127 354 127 q 618 197 547 127 q 654 239 627 207 l 795 189 q 720 95 743 118 q 447 -18 607 -18 q 174 95 288 -18 q 61 368 61 208 q 174 642 61 528 q 447 755 288 755 q 687 672 584 755 q 720 642 704 658 q 759 599 727 635 l 688 528 l 319 158 m 553 592 q 447 610 530 610 q 276 539 347 610 q 205 368 205 469 q 224 262 205 286 l 553 592 m 236 975 l 621 975 l 621 834 l 236 834 l 236 975 z "},"Ĕ":{"ha":771,"x_min":102,"x_max":686,"o":"m 686 1085 l 686 945 l 242 945 l 242 613 l 686 613 l 686 473 l 242 473 l 242 141 l 686 141 l 686 0 l 102 0 l 102 1085 l 686 1085 m 334 1345 q 352 1293 342 1303 q 395 1276 370 1276 q 437 1294 419 1276 q 454 1345 447 1303 l 583 1345 q 528 1222 568 1262 q 395 1166 473 1166 q 260 1222 315 1166 q 206 1345 218 1265 l 334 1345 z "},"ĕ":{"ha":856,"x_min":61,"x_max":795,"o":"m 319 158 q 447 127 354 127 q 618 197 547 127 q 654 239 627 207 l 795 189 q 720 95 743 118 q 447 -18 607 -18 q 174 95 288 -18 q 61 368 61 208 q 174 642 61 528 q 447 755 288 755 q 687 672 584 755 q 720 642 704 658 q 759 599 727 635 l 688 528 l 319 158 m 553 592 q 447 610 530 610 q 276 539 347 610 q 205 368 205 469 q 224 262 205 286 l 553 592 m 368 958 q 386 906 376 916 q 429 888 404 888 q 471 907 453 888 q 488 958 481 916 l 616 958 q 562 835 602 875 q 429 779 507 779 q 294 835 349 779 q 240 958 252 878 l 368 958 z "},"Ė":{"ha":771,"x_min":102,"x_max":686,"o":"m 686 1085 l 686 945 l 242 945 l 242 613 l 686 613 l 686 473 l 242 473 l 242 141 l 686 141 l 686 0 l 102 0 l 102 1085 l 686 1085 m 395 1361 q 458 1335 431 1361 q 484 1272 484 1310 q 458 1208 484 1234 q 395 1182 431 1182 q 331 1208 357 1182 q 304 1272 304 1234 q 331 1335 304 1310 q 395 1361 357 1361 z "},"ė":{"ha":856,"x_min":61,"x_max":795,"o":"m 319 158 q 447 127 354 127 q 618 197 547 127 q 654 239 627 207 l 795 189 q 720 95 743 118 q 447 -18 607 -18 q 174 95 288 -18 q 61 368 61 208 q 174 642 61 528 q 447 755 288 755 q 687 672 584 755 q 720 642 704 658 q 759 599 727 635 l 688 528 l 319 158 m 553 592 q 447 610 530 610 q 276 539 347 610 q 205 368 205 469 q 224 262 205 286 l 553 592 m 429 974 q 492 948 465 974 q 518 884 518 922 q 492 821 518 846 q 429 795 465 795 q 365 821 391 795 q 338 884 338 846 q 365 948 338 922 q 429 974 391 974 z "},"Ę":{"ha":771,"x_min":102,"x_max":686,"o":"m 460 0 l 102 0 l 102 1085 l 686 1085 l 686 945 l 242 945 l 242 613 l 686 613 l 686 473 l 242 473 l 242 141 l 686 141 l 686 0 l 581 0 q 547 -81 547 -48 q 551 -100 547 -92 q 582 -125 561 -125 q 647 -91 607 -125 l 686 -195 q 561 -229 604 -229 q 456 -184 496 -229 q 424 -96 424 -147 q 425 -72 424 -84 q 460 0 431 -35 z "},"ę":{"ha":856,"x_min":61,"x_max":795,"o":"m 553 592 q 447 610 530 610 q 276 539 347 610 q 205 368 205 469 q 224 262 205 286 l 553 592 m 496 -16 q 447 -18 472 -18 q 174 95 288 -18 q 61 368 61 208 q 174 642 61 528 q 447 755 288 755 q 687 672 584 755 q 720 642 704 658 q 759 599 727 635 l 688 528 l 319 158 q 447 127 354 127 q 618 197 547 127 q 654 239 627 207 l 795 189 q 720 95 743 118 q 679 58 700 75 q 594 -81 594 -31 q 598 -101 594 -92 q 629 -126 608 -126 q 694 -92 654 -126 l 734 -195 q 608 -229 651 -229 q 504 -184 544 -229 q 471 -96 471 -148 q 473 -73 471 -85 q 496 -16 477 -43 z "},"Ě":{"ha":771,"x_min":102,"x_max":686,"o":"m 686 1085 l 686 945 l 242 945 l 242 613 l 686 613 l 686 473 l 242 473 l 242 141 l 686 141 l 686 0 l 102 0 l 102 1085 l 686 1085 m 605 1348 l 441 1186 l 342 1186 l 184 1348 l 332 1348 l 393 1292 l 455 1348 l 605 1348 z "},"ě":{"ha":856,"x_min":61,"x_max":795,"o":"m 319 158 q 447 127 354 127 q 618 197 547 127 q 654 239 627 207 l 795 189 q 720 95 743 118 q 447 -18 607 -18 q 174 95 288 -18 q 61 368 61 208 q 174 642 61 528 q 447 755 288 755 q 687 672 584 755 q 720 642 704 658 q 759 599 727 635 l 688 528 l 319 158 m 553 592 q 447 610 530 610 q 276 539 347 610 q 205 368 205 469 q 224 262 205 286 l 553 592 m 639 960 l 475 799 l 376 799 l 218 960 l 366 960 l 427 905 l 489 960 l 639 960 z "},"Ĝ":{"ha":1131,"x_min":85,"x_max":1046,"o":"m 1022 149 q 639 -12 854 -12 q 247 151 409 -12 q 85 543 85 313 q 247 935 85 772 q 639 1097 409 1097 q 1046 922 854 1097 l 941 826 q 639 955 796 955 q 348 834 469 955 q 227 543 227 713 q 348 250 227 371 q 639 130 469 130 q 882 207 785 130 l 882 534 l 1022 534 l 1022 149 m 627 1186 l 564 1242 l 504 1186 l 355 1186 l 513 1348 l 613 1348 l 777 1186 l 627 1186 z "},"ĝ":{"ha":953,"x_min":85,"x_max":848,"o":"m 707 422 q 642 539 694 487 q 471 610 571 610 q 299 539 370 610 q 229 368 229 468 q 299 197 229 268 q 471 126 370 126 q 642 197 571 126 q 707 312 694 249 l 707 422 m 707 650 l 707 698 l 848 698 l 848 179 q 738 -135 848 -24 q 465 -235 625 -235 q 191 -135 304 -235 q 117 -41 168 -112 l 257 9 q 294 -33 284 -24 q 465 -104 365 -104 q 696 116 632 -104 q 471 -12 631 -12 q 198 98 311 -12 q 85 368 85 208 q 198 641 85 528 q 471 754 311 754 q 707 650 606 754 m 528 799 l 465 854 l 405 799 l 256 799 l 414 960 l 514 960 l 677 799 l 528 799 z "},"Ğ":{"ha":1131,"x_min":85,"x_max":1046,"o":"m 1022 149 q 639 -12 854 -12 q 247 151 409 -12 q 85 543 85 313 q 247 935 85 772 q 639 1097 409 1097 q 1046 922 854 1097 l 941 826 q 639 955 796 955 q 348 834 469 955 q 227 543 227 713 q 348 250 227 371 q 639 130 469 130 q 882 207 785 130 l 882 534 l 1022 534 l 1022 149 m 506 1345 q 524 1293 513 1303 q 566 1276 541 1276 q 608 1294 591 1276 q 625 1345 618 1303 l 754 1345 q 700 1222 739 1262 q 566 1166 645 1166 q 432 1222 487 1166 q 378 1345 389 1265 l 506 1345 z "},"ğ":{"ha":953,"x_min":85,"x_max":848,"o":"m 707 422 q 642 539 694 487 q 471 610 571 610 q 299 539 370 610 q 229 368 229 468 q 299 197 229 268 q 471 126 370 126 q 642 197 571 126 q 707 312 694 249 l 707 422 m 707 650 l 707 698 l 848 698 l 848 179 q 738 -135 848 -24 q 465 -235 625 -235 q 191 -135 304 -235 q 117 -41 168 -112 l 257 9 q 294 -33 284 -24 q 465 -104 365 -104 q 696 116 632 -104 q 471 -12 631 -12 q 198 98 311 -12 q 85 368 85 208 q 198 641 85 528 q 471 754 311 754 q 707 650 606 754 m 407 958 q 425 906 414 916 q 467 888 442 888 q 509 907 492 888 q 526 958 519 916 l 655 958 q 601 835 640 875 q 467 779 546 779 q 333 835 388 779 q 279 958 290 878 l 407 958 z "},"Ġ":{"ha":1131,"x_min":85,"x_max":1046,"o":"m 1022 149 q 639 -12 854 -12 q 247 151 409 -12 q 85 543 85 313 q 247 935 85 772 q 639 1097 409 1097 q 1046 922 854 1097 l 941 826 q 639 955 796 955 q 348 834 469 955 q 227 543 227 713 q 348 250 227 371 q 639 130 469 130 q 882 207 785 130 l 882 534 l 1022 534 l 1022 149 m 566 1361 q 629 1335 603 1361 q 656 1272 656 1310 q 629 1208 656 1234 q 566 1182 603 1182 q 503 1208 529 1182 q 476 1272 476 1234 q 503 1335 476 1310 q 566 1361 529 1361 z "},"ġ":{"ha":953,"x_min":85,"x_max":848,"o":"m 707 422 q 642 539 694 487 q 471 610 571 610 q 299 539 370 610 q 229 368 229 468 q 299 197 229 268 q 471 126 370 126 q 642 197 571 126 q 707 312 694 249 l 707 422 m 707 650 l 707 698 l 848 698 l 848 179 q 738 -135 848 -24 q 465 -235 625 -235 q 191 -135 304 -235 q 117 -41 168 -112 l 257 9 q 294 -33 284 -24 q 465 -104 365 -104 q 696 116 632 -104 q 471 -12 631 -12 q 198 98 311 -12 q 85 368 85 208 q 198 641 85 528 q 471 754 311 754 q 707 650 606 754 m 467 974 q 530 948 504 974 q 557 884 557 922 q 530 821 557 846 q 467 795 504 795 q 404 821 430 795 q 377 884 377 846 q 404 948 377 922 q 467 974 430 974 z "},"Ģ":{"ha":1131,"x_min":85,"x_max":1046,"o":"m 529 -1 q 247 151 369 28 q 85 543 85 313 q 247 935 85 772 q 639 1097 409 1097 q 1046 922 854 1097 l 941 826 q 639 955 796 955 q 348 834 469 955 q 227 543 227 713 q 348 250 227 371 q 639 130 469 130 q 882 207 785 130 l 882 534 l 1022 534 l 1022 149 q 639 -12 854 -12 l 626 -12 l 619 -30 q 684 -90 669 -56 q 688 -109 686 -100 q 690 -126 690 -117 q 669 -181 690 -155 q 572 -231 636 -221 q 542 -233 559 -233 q 441 -222 503 -233 l 465 -137 q 528 -155 503 -155 q 535 -154 532 -155 q 562 -130 556 -151 q 564 -120 564 -125 q 564 -115 564 -117 q 501 -77 559 -96 l 529 -1 z "},"ģ":{"ha":953,"x_min":85,"x_max":848,"o":"m 707 422 q 642 539 694 487 q 471 610 571 610 q 299 539 370 610 q 229 368 229 468 q 299 197 229 268 q 471 126 370 126 q 642 197 571 126 q 707 312 694 249 l 707 422 m 707 650 l 707 698 l 848 698 l 848 179 q 738 -135 848 -24 q 465 -235 625 -235 q 191 -135 304 -235 q 117 -41 168 -112 l 257 9 q 294 -33 284 -24 q 465 -104 365 -104 q 696 116 632 -104 q 471 -12 631 -12 q 198 98 311 -12 q 85 368 85 208 q 198 641 85 528 q 471 754 311 754 q 707 650 606 754 m 534 971 q 563 901 563 943 q 534 832 563 861 q 465 804 505 804 q 395 832 425 804 q 366 901 366 861 q 374 943 366 923 l 448 1092 l 576 1092 l 534 971 z "},"Ĥ":{"ha":819,"x_min":102,"x_max":718,"o":"m 242 449 l 242 0 l 102 0 l 102 1085 l 242 1085 l 242 589 l 577 589 l 577 1085 l 718 1085 l 718 0 l 577 0 l 577 449 l 242 449 m 471 1186 l 408 1242 l 348 1186 l 199 1186 l 357 1348 l 457 1348 l 621 1186 l 471 1186 z "},"ĥ":{"ha":763,"x_min":102,"x_max":661,"o":"m 102 1085 l 243 1085 l 243 623 q 414 736 302 736 q 592 655 526 736 q 661 454 659 575 l 661 0 l 521 0 l 521 448 q 487 552 521 509 q 378 595 452 595 q 243 501 291 595 l 243 0 l 102 0 l 102 1085 m 471 1186 l 408 1242 l 348 1186 l 199 1186 l 357 1348 l 457 1348 l 621 1186 l 471 1186 z "},"Ħ":{"ha":819,"x_min":8,"x_max":811,"o":"m 718 810 l 718 0 l 577 0 l 577 449 l 242 449 l 242 0 l 102 0 l 102 810 l 8 810 l 8 949 l 102 949 l 102 1085 l 242 1085 l 242 949 l 577 949 l 577 1085 l 718 1085 l 718 949 l 811 949 l 811 810 l 718 810 m 242 810 l 242 589 l 577 589 l 577 810 l 242 810 z "},"ħ":{"ha":763,"x_min":7,"x_max":661,"o":"m 102 970 l 102 1085 l 243 1085 l 243 970 l 545 970 l 545 831 l 243 831 l 243 623 q 414 736 302 736 q 592 655 526 736 q 661 454 659 575 l 661 0 l 521 0 l 521 448 q 487 552 521 509 q 378 595 452 595 q 243 501 291 595 l 243 0 l 102 0 l 102 831 l 7 831 l 7 970 l 102 970 z "},"Ĩ":{"ha":372,"x_min":-28,"x_max":399,"o":"m 256 1085 l 256 0 l 115 0 l 115 1085 l 256 1085 m 202 1320 q 223 1300 202 1320 q 262 1280 244 1280 l 262 1280 q 282 1306 282 1280 q 273 1353 282 1324 l 399 1353 q 300 1182 374 1204 q 262 1177 281 1177 q 171 1215 212 1177 q 112 1254 131 1254 l 109 1254 q 89 1227 89 1253 q 98 1183 89 1211 l -28 1183 q 73 1354 -2 1332 q 111 1359 92 1359 q 202 1320 160 1359 z "},"ĩ":{"ha":372,"x_min":-28,"x_max":399,"o":"m 256 699 l 256 0 l 115 0 l 115 699 l 256 699 m 202 932 q 223 913 202 932 q 262 893 244 893 l 262 892 q 282 919 282 892 q 273 966 282 937 l 399 966 q 300 795 374 817 q 262 789 281 789 q 171 828 212 789 q 112 867 131 867 l 109 867 q 89 840 89 865 q 98 795 89 823 l -28 795 q 73 966 -2 945 q 111 972 92 972 q 202 932 160 972 z "},"Ī":{"ha":372,"x_min":-7,"x_max":378,"o":"m 256 1085 l 256 0 l 115 0 l 115 1085 l 256 1085 m -7 1362 l 378 1362 l 378 1221 l -7 1221 l -7 1362 z "},"ī":{"ha":372,"x_min":-7,"x_max":378,"o":"m 256 699 l 256 0 l 115 0 l 115 699 l 256 699 m -7 975 l 378 975 l 378 834 l -7 834 l -7 975 z "},"Ĭ":{"ha":372,"x_min":-3,"x_max":374,"o":"m 256 1085 l 256 0 l 115 0 l 115 1085 l 256 1085 m 125 1345 q 143 1293 133 1303 q 186 1276 161 1276 q 228 1294 210 1276 q 245 1345 238 1303 l 374 1345 q 319 1222 359 1262 q 186 1166 264 1166 q 52 1222 106 1166 q -3 1345 9 1265 l 125 1345 z "},"ĭ":{"ha":372,"x_min":-3,"x_max":374,"o":"m 256 699 l 256 0 l 115 0 l 115 699 l 256 699 m 125 958 q 143 906 133 916 q 186 888 161 888 q 228 907 210 888 q 245 958 238 916 l 374 958 q 319 835 359 875 q 186 779 264 779 q 52 835 106 779 q -3 958 9 878 l 125 958 z "},"Į":{"ha":372,"x_min":-7,"x_max":256,"o":"m 115 68 l 115 1085 l 256 1085 l 256 0 l 151 0 q 116 -81 116 -48 q 120 -100 116 -92 q 151 -125 130 -125 q 216 -91 176 -125 l 256 -195 q 130 -229 173 -229 q 26 -184 66 -229 q -7 -96 -7 -147 q -5 -72 -7 -84 q 115 68 5 3 z "},"į":{"ha":367,"x_min":20,"x_max":282,"o":"m 183 985 q 253 956 224 985 q 282 886 282 928 q 253 817 282 845 q 183 788 224 788 q 114 817 143 788 q 85 886 85 845 q 114 956 85 928 q 183 985 143 985 m 113 50 l 113 698 l 254 698 l 254 0 l 177 0 q 142 -81 142 -48 q 146 -100 142 -92 q 178 -125 157 -125 q 243 -91 203 -125 l 282 -195 q 157 -229 199 -229 q 52 -184 92 -229 q 20 -96 20 -147 q 21 -72 20 -84 q 113 50 31 -7 z "},"ı":{"ha":372,"x_min":115,"x_max":256,"o":"m 256 699 l 256 0 l 115 0 l 115 699 l 256 699 z "},"Ĳ":{"ha":1007,"x_min":115,"x_max":901,"o":"m 256 1085 l 256 0 l 115 0 l 115 1085 l 256 1085 m 901 233 q 840 58 901 120 q 680 -9 774 -9 q 522 57 587 -9 q 456 233 456 123 l 568 277 q 616 150 587 174 q 674 132 637 132 l 677 132 q 741 157 715 132 q 761 239 761 178 l 761 1085 l 901 1085 l 901 233 z "},"ĳ":{"ha":747,"x_min":85,"x_max":645,"o":"m 254 698 l 254 0 l 113 0 l 113 698 l 254 698 m 183 985 q 253 956 224 985 q 282 886 282 928 q 253 817 282 845 q 183 788 224 788 q 114 817 143 788 q 85 886 85 845 q 114 956 85 928 q 183 985 143 985 m 400 -7 q 476 41 476 1 l 476 698 l 616 698 l 616 42 q 400 -146 616 -130 l 400 -7 m 546 985 q 616 956 587 985 q 645 886 645 928 q 616 817 645 845 q 546 788 587 788 q 477 817 506 788 q 448 886 448 845 q 477 956 448 928 q 546 985 506 985 z "},"Ĵ":{"ha":635,"x_min":85,"x_max":654,"o":"m 530 233 q 468 58 530 120 q 309 -9 402 -9 q 150 57 216 -9 q 85 233 85 123 l 196 277 q 244 150 215 174 q 302 132 266 132 l 305 132 q 369 157 344 132 q 389 239 389 178 l 389 1085 l 530 1085 l 530 233 m 504 1186 l 441 1242 l 381 1186 l 233 1186 l 391 1348 l 490 1348 l 654 1186 l 504 1186 z "},"ĵ":{"ha":465,"x_min":29,"x_max":450,"o":"m 102 -7 q 178 41 178 1 l 178 698 l 319 698 l 319 42 q 102 -146 319 -130 l 102 -7 m 300 779 l 238 835 l 178 779 l 29 779 l 187 941 l 287 941 l 450 779 l 300 779 z "},"Ķ":{"ha":818,"x_min":102,"x_max":758,"o":"m 242 512 l 242 0 l 102 0 l 102 1085 l 242 1085 l 242 743 l 498 1085 l 676 1085 l 343 639 l 758 0 l 587 0 l 252 524 l 242 512 m 454 12 l 439 -30 q 503 -90 489 -56 q 508 -109 506 -100 q 510 -126 510 -117 q 489 -181 510 -155 q 391 -231 456 -221 q 361 -233 378 -233 q 260 -222 322 -233 l 284 -137 q 347 -155 323 -155 q 355 -154 351 -155 q 382 -130 376 -151 q 384 -120 384 -125 q 383 -115 384 -117 q 321 -77 379 -96 l 353 12 l 454 12 z "},"ķ":{"ha":640,"x_min":102,"x_max":606,"o":"m 532 698 l 343 465 l 606 0 l 439 0 l 249 348 l 243 340 l 243 0 l 102 0 l 102 960 l 243 960 l 243 565 l 351 698 l 532 698 m 423 12 l 408 -30 q 472 -90 458 -56 q 477 -109 475 -100 q 479 -126 479 -117 q 458 -181 479 -155 q 360 -231 425 -221 q 330 -233 347 -233 q 229 -222 291 -233 l 253 -137 q 316 -155 292 -155 q 323 -154 320 -155 q 351 -130 345 -151 q 353 -120 353 -125 q 352 -115 353 -117 q 290 -77 348 -96 l 322 12 l 423 12 z "},"ĸ":{"ha":640,"x_min":102,"x_max":606,"o":"m 532 699 l 343 465 l 606 0 l 438 0 l 248 349 l 242 341 l 242 0 l 102 0 l 102 699 l 242 699 l 242 565 l 351 699 l 532 699 z "},"Ĺ":{"ha":691,"x_min":102,"x_max":630,"o":"m 102 0 l 102 1085 l 242 1085 l 242 141 l 630 141 l 630 0 l 102 0 m 407 1314 l 535 1314 l 397 1124 l 296 1124 l 407 1314 z "},"ĺ":{"ha":345,"x_min":93,"x_max":332,"o":"m 243 1086 l 243 0 l 102 0 l 102 1086 l 243 1086 m 203 1314 l 332 1314 l 193 1124 l 93 1124 l 203 1314 z "},"Ļ":{"ha":691,"x_min":102,"x_max":630,"o":"m 330 0 l 102 0 l 102 1085 l 242 1085 l 242 141 l 630 141 l 630 0 l 431 0 l 420 -30 q 484 -90 470 -56 q 489 -109 487 -100 q 491 -126 491 -117 q 470 -181 491 -155 q 372 -231 437 -221 q 342 -233 359 -233 q 241 -222 303 -233 l 265 -137 q 328 -155 304 -155 q 336 -154 332 -155 q 363 -130 357 -151 q 365 -120 365 -125 q 364 -115 365 -117 q 302 -77 360 -96 l 330 0 z "},"ļ":{"ha":345,"x_min":38,"x_max":288,"o":"m 127 0 l 102 0 l 102 1086 l 243 1086 l 243 0 l 228 0 l 216 -30 q 281 -90 267 -56 q 286 -109 283 -100 q 288 -126 288 -117 q 267 -181 288 -155 q 169 -231 233 -221 q 139 -233 156 -233 q 38 -222 100 -233 l 62 -137 q 125 -155 100 -155 q 132 -154 129 -155 q 159 -130 153 -151 q 161 -120 161 -125 q 161 -115 161 -117 q 98 -77 157 -96 l 127 0 z "},"Ľ":{"ha":648,"x_min":86,"x_max":608,"o":"m 86 0 l 86 1085 l 227 1085 l 227 141 l 608 141 l 608 0 l 86 0 m 414 924 q 386 994 386 953 q 415 1063 386 1035 q 484 1092 444 1092 q 553 1063 524 1092 q 583 994 583 1035 q 574 952 583 972 l 501 804 l 373 804 l 414 924 z "},"ľ":{"ha":460,"x_min":86,"x_max":447,"o":"m 227 1085 l 227 0 l 86 0 l 86 1085 l 227 1085 m 279 924 q 250 994 250 953 q 279 1063 250 1035 q 349 1092 308 1092 q 418 1063 389 1092 q 447 994 447 1035 q 439 952 447 972 l 366 804 l 237 804 l 279 924 z "},"Ŀ":{"ha":648,"x_min":86,"x_max":608,"o":"m 86 0 l 86 1085 l 227 1085 l 227 141 l 608 141 l 608 0 l 86 0 m 490 632 q 553 606 527 632 q 580 543 580 580 q 553 479 580 505 q 490 453 527 453 q 427 479 454 453 q 400 543 400 505 q 427 606 400 580 q 490 632 454 632 z "},"ŀ":{"ha":404,"x_min":76,"x_max":437,"o":"m 217 1085 l 217 0 l 76 0 l 76 1085 l 217 1085 m 348 632 q 411 606 384 632 q 437 543 437 580 q 411 479 437 505 q 348 453 384 453 q 284 479 311 453 q 258 543 258 505 q 284 606 258 580 q 348 632 311 632 z "},"Ł":{"ha":704,"x_min":0,"x_max":665,"o":"m 284 623 l 568 854 l 568 680 l 284 448 l 284 141 l 665 141 l 665 0 l 143 0 l 143 333 l 0 217 l 0 392 l 143 508 l 143 1085 l 284 1085 l 284 623 z "},"ł":{"ha":351,"x_min":0,"x_max":351,"o":"m 104 566 l 104 1085 l 245 1085 l 245 681 l 351 766 l 351 591 l 245 505 l 245 0 l 104 0 l 104 391 l 0 305 l 0 480 l 104 566 z "},"Ń":{"ha":920,"x_min":102,"x_max":819,"o":"m 102 1085 l 230 1085 l 677 311 l 677 1085 l 819 1085 l 819 0 l 696 0 l 242 784 l 242 0 l 102 0 l 102 1085 m 501 1341 l 672 1341 l 488 1152 l 354 1152 l 501 1341 z "},"ń":{"ha":772,"x_min":102,"x_max":669,"o":"m 243 511 l 243 0 l 102 0 l 102 698 l 243 698 l 243 616 q 420 736 287 736 q 600 655 533 736 q 669 454 667 575 l 669 0 l 528 0 l 528 448 q 484 552 528 509 q 379 595 440 595 q 275 553 319 595 q 243 511 250 528 m 427 954 l 597 954 l 413 765 l 279 765 l 427 954 z "},"Ņ":{"ha":920,"x_min":102,"x_max":819,"o":"m 102 1085 l 230 1085 l 677 311 l 677 1085 l 819 1085 l 819 0 l 696 0 l 242 784 l 242 0 l 102 0 l 102 1085 m 530 12 l 514 -30 q 578 -90 564 -56 q 583 -109 581 -100 q 585 -126 585 -117 q 564 -181 585 -155 q 467 -231 531 -221 q 437 -233 454 -233 q 336 -222 397 -233 l 359 -137 q 422 -155 398 -155 q 430 -154 427 -155 q 457 -130 451 -151 q 459 -120 459 -125 q 458 -115 459 -117 q 396 -77 454 -96 l 429 12 l 530 12 z "},"ņ":{"ha":772,"x_min":102,"x_max":669,"o":"m 243 511 l 243 0 l 102 0 l 102 698 l 243 698 l 243 616 q 420 736 287 736 q 600 655 533 736 q 669 454 667 575 l 669 0 l 528 0 l 528 448 q 484 552 528 509 q 379 595 440 595 q 275 553 319 595 q 243 511 250 528 m 454 12 l 439 -30 q 503 -90 489 -56 q 508 -109 506 -100 q 510 -126 510 -117 q 489 -181 510 -155 q 391 -231 456 -221 q 361 -233 378 -233 q 260 -222 322 -233 l 284 -137 q 347 -155 323 -155 q 355 -154 351 -155 q 382 -130 376 -151 q 384 -120 384 -125 q 383 -115 384 -117 q 321 -77 379 -96 l 353 12 l 454 12 z "},"Ň":{"ha":920,"x_min":102,"x_max":819,"o":"m 102 1085 l 230 1085 l 677 311 l 677 1085 l 819 1085 l 819 0 l 696 0 l 242 784 l 242 0 l 102 0 l 102 1085 m 671 1348 l 507 1186 l 408 1186 l 250 1348 l 398 1348 l 458 1292 l 521 1348 l 671 1348 z "},"ň":{"ha":772,"x_min":102,"x_max":669,"o":"m 243 511 l 243 0 l 102 0 l 102 698 l 243 698 l 243 616 q 420 736 287 736 q 600 655 533 736 q 669 454 667 575 l 669 0 l 528 0 l 528 448 q 484 552 528 509 q 379 595 440 595 q 275 553 319 595 q 243 511 250 528 m 596 960 l 433 799 l 333 799 l 175 960 l 323 960 l 384 905 l 446 960 l 596 960 z "},"ŉ":{"ha":772,"x_min":-102,"x_max":669,"o":"m 243 511 l 243 0 l 102 0 l 102 698 l 243 698 l 243 616 q 420 736 287 736 q 600 655 533 736 q 669 454 667 575 l 669 0 l 528 0 l 528 448 q 484 552 528 509 q 379 595 440 595 q 275 553 319 595 q 243 511 250 528 m -60 924 q -89 994 -89 953 q -60 1063 -89 1035 q 9 1092 -31 1092 q 79 1063 50 1092 q 108 994 108 1035 q 100 952 108 972 l 26 804 l -102 804 l -60 924 z "},"Ŋ":{"ha":920,"x_min":102,"x_max":819,"o":"m 678 31 l 242 784 l 242 0 l 102 0 l 102 1085 l 230 1085 l 677 311 l 677 675 l 677 675 l 677 1085 l 819 1085 l 819 0 l 816 0 q 671 -226 810 -157 l 595 -143 q 679 10 679 -68 q 678 31 679 24 z "},"ŋ":{"ha":770,"x_min":102,"x_max":668,"o":"m 528 425 l 528 448 q 484 552 528 509 q 379 595 439 595 q 275 553 319 595 q 242 511 250 528 l 242 0 l 102 0 l 102 699 l 242 699 l 242 616 q 406 736 280 736 q 586 655 505 736 q 668 454 666 575 l 668 0 l 665 0 q 527 -229 653 -136 l 441 -143 q 527 19 517 -90 l 527 425 l 528 425 z "},"Ō":{"ha":1281,"x_min":85,"x_max":1196,"o":"m 640 1099 q 1033 937 870 1099 q 1196 544 1196 774 q 1033 151 1196 314 q 640 -12 870 -12 q 248 151 410 -12 q 85 544 85 314 q 248 937 85 774 q 640 1099 410 1099 m 640 958 q 348 837 469 958 q 227 544 227 715 q 348 251 227 372 q 640 130 469 130 q 933 251 812 130 q 1054 544 1054 372 q 933 837 1054 715 q 640 958 812 958 m 448 1362 l 833 1362 l 833 1221 l 448 1221 l 448 1362 z "},"ō":{"ha":894,"x_min":61,"x_max":833,"o":"m 447 755 q 720 642 607 755 q 833 368 833 528 q 720 95 833 208 q 447 -18 607 -18 q 174 95 288 -18 q 61 368 61 208 q 174 642 61 528 q 447 755 288 755 m 447 610 q 276 539 347 610 q 205 368 205 468 q 276 197 205 268 q 447 127 347 127 q 618 197 547 127 q 689 368 689 268 q 618 539 689 468 q 447 610 547 610 m 255 975 l 640 975 l 640 834 l 255 834 l 255 975 z "},"Ŏ":{"ha":1281,"x_min":85,"x_max":1196,"o":"m 640 1099 q 1033 937 870 1099 q 1196 544 1196 774 q 1033 151 1196 314 q 640 -12 870 -12 q 248 151 410 -12 q 85 544 85 314 q 248 937 85 774 q 640 1099 410 1099 m 640 958 q 348 837 469 958 q 227 544 227 715 q 348 251 227 372 q 640 130 469 130 q 933 251 812 130 q 1054 544 1054 372 q 933 837 1054 715 q 640 958 812 958 m 581 1345 q 598 1293 588 1303 q 641 1276 616 1276 q 683 1294 665 1276 q 700 1345 693 1303 l 829 1345 q 774 1222 814 1262 q 641 1166 720 1166 q 507 1222 562 1166 q 452 1345 464 1265 l 581 1345 z "},"ŏ":{"ha":894,"x_min":61,"x_max":833,"o":"m 447 755 q 720 642 607 755 q 833 368 833 528 q 720 95 833 208 q 447 -18 607 -18 q 174 95 288 -18 q 61 368 61 208 q 174 642 61 528 q 447 755 288 755 m 447 610 q 276 539 347 610 q 205 368 205 468 q 276 197 205 268 q 447 127 347 127 q 618 197 547 127 q 689 368 689 268 q 618 539 689 468 q 447 610 547 610 m 387 958 q 405 906 395 916 q 448 888 422 888 q 490 907 472 888 q 507 958 500 916 l 635 958 q 581 835 621 875 q 448 779 526 779 q 313 835 368 779 q 259 958 271 878 l 387 958 z "},"Ő":{"ha":1281,"x_min":85,"x_max":1196,"o":"m 640 1099 q 1033 937 870 1099 q 1196 544 1196 774 q 1033 151 1196 314 q 640 -12 870 -12 q 248 151 410 -12 q 85 544 85 314 q 248 937 85 774 q 640 1099 410 1099 m 640 958 q 348 837 469 958 q 227 544 227 715 q 348 251 227 372 q 640 130 469 130 q 933 251 812 130 q 1054 544 1054 372 q 933 837 1054 715 q 640 958 812 958 m 656 1358 l 506 1175 l 380 1175 l 442 1358 l 656 1358 m 901 1358 l 751 1175 l 625 1175 l 687 1358 l 901 1358 z "},"ő":{"ha":894,"x_min":61,"x_max":833,"o":"m 447 755 q 720 642 607 755 q 833 368 833 528 q 720 95 833 208 q 447 -18 607 -18 q 174 95 288 -18 q 61 368 61 208 q 174 642 61 528 q 447 755 288 755 m 447 610 q 276 539 347 610 q 205 368 205 468 q 276 197 205 268 q 447 127 347 127 q 618 197 547 127 q 689 368 689 268 q 618 539 689 468 q 447 610 547 610 m 463 971 l 313 787 l 187 787 l 249 971 l 463 971 m 707 971 l 557 787 l 432 787 l 494 971 l 707 971 z "},"Œ":{"ha":1531,"x_min":61,"x_max":1446,"o":"m 1009 945 q 1170 613 1162 784 l 1446 613 l 1446 473 l 1169 473 q 1008 141 1160 302 l 1446 141 l 1446 0 l 782 0 q 616 -12 706 -12 q 224 151 387 -12 q 61 544 61 314 q 224 937 61 774 q 616 1099 387 1099 q 783 1085 707 1099 l 1446 1085 l 1446 945 l 1009 945 m 1029 569 q 909 837 1022 724 q 814 909 865 881 q 764 932 789 922 q 616 958 696 958 q 324 837 445 958 q 203 544 203 715 q 324 251 203 372 q 616 130 446 130 q 764 155 696 130 q 814 179 789 165 q 909 251 865 206 q 1029 517 1021 363 q 1030 544 1030 530 q 1029 569 1030 557 z "},"œ":{"ha":1481,"x_min":61,"x_max":1420,"o":"m 832 395 q 833 368 833 382 q 831 336 833 352 q 849 262 835 281 l 1179 592 q 1072 610 1155 610 q 902 540 972 610 q 832 395 840 478 m 688 338 q 686 368 686 353 q 688 398 686 383 q 618 539 678 479 q 447 610 547 610 q 276 539 347 610 q 205 368 205 468 q 276 197 205 268 q 447 127 347 127 q 618 197 547 127 q 688 338 678 257 m 760 141 q 720 95 742 117 q 447 -18 607 -18 q 174 95 288 -18 q 61 368 61 208 q 174 642 61 528 q 447 755 288 755 q 720 642 607 755 q 760 595 742 619 q 800 642 777 619 q 1072 755 913 755 q 1312 672 1209 755 q 1345 642 1329 658 q 1384 599 1352 635 l 1314 528 l 944 158 q 1072 127 979 127 q 1244 197 1173 127 q 1280 239 1253 207 l 1420 189 q 1345 95 1369 118 q 1072 -18 1232 -18 q 800 95 913 -18 q 760 141 777 117 z "},"Ŕ":{"ha":794,"x_min":102,"x_max":758,"o":"m 242 944 l 242 488 l 370 488 q 531 555 464 488 q 597 717 597 622 q 531 878 597 811 q 370 944 464 944 l 242 944 m 370 347 l 242 347 l 242 0 l 102 0 l 102 1085 l 410 1085 q 631 977 541 1067 q 739 717 739 869 q 631 455 739 564 q 517 371 556 380 l 758 0 l 587 0 l 370 347 m 471 1341 l 642 1341 l 457 1152 l 323 1152 l 471 1341 z "},"ŕ":{"ha":470,"x_min":102,"x_max":481,"o":"m 242 604 q 435 715 321 710 l 435 570 q 313 520 359 566 q 242 359 245 452 l 242 0 l 102 0 l 102 698 l 242 698 l 242 604 m 310 954 l 481 954 l 296 765 l 163 765 l 310 954 z "},"Ŗ":{"ha":794,"x_min":102,"x_max":758,"o":"m 242 944 l 242 488 l 370 488 q 531 555 464 488 q 597 717 597 622 q 531 878 597 811 q 370 944 464 944 l 242 944 m 370 347 l 242 347 l 242 0 l 102 0 l 102 1085 l 410 1085 q 631 977 541 1067 q 739 717 739 869 q 631 455 739 564 q 517 371 556 380 l 758 0 l 587 0 l 370 347 m 361 12 q 511 -90 490 -28 q 515 -109 513 -100 q 517 -126 517 -117 q 496 -181 517 -155 q 399 -231 463 -221 q 369 -233 386 -233 q 268 -222 330 -233 l 292 -137 q 355 -155 330 -155 q 362 -154 359 -155 q 389 -130 383 -151 q 391 -120 391 -125 q 391 -115 391 -117 q 328 -77 387 -96 l 361 12 z "},"ŗ":{"ha":470,"x_min":102,"x_max":436,"o":"m 243 604 q 436 715 321 710 l 436 570 q 314 520 359 566 q 243 359 245 452 l 243 0 l 102 0 l 102 698 l 243 698 l 243 604 m 259 12 q 409 -90 388 -28 q 414 -109 412 -100 q 416 -126 416 -117 q 395 -181 416 -155 q 297 -231 361 -221 q 267 -233 284 -233 q 166 -222 228 -233 l 190 -137 q 253 -155 229 -155 q 260 -154 257 -155 q 288 -130 281 -151 q 290 -120 290 -125 q 289 -115 290 -117 q 227 -77 285 -96 l 259 12 z "},"Ř":{"ha":794,"x_min":102,"x_max":758,"o":"m 242 944 l 242 488 l 370 488 q 531 555 464 488 q 597 717 597 622 q 531 878 597 811 q 370 944 464 944 l 242 944 m 370 347 l 242 347 l 242 0 l 102 0 l 102 1085 l 410 1085 q 631 977 541 1067 q 739 717 739 869 q 631 455 739 564 q 517 371 556 380 l 758 0 l 587 0 l 370 347 m 640 1348 l 477 1186 l 377 1186 l 219 1348 l 368 1348 l 428 1292 l 490 1348 l 640 1348 z "},"ř":{"ha":470,"x_min":58,"x_max":479,"o":"m 243 604 q 436 715 321 710 l 436 570 q 314 520 359 566 q 243 359 245 452 l 243 0 l 102 0 l 102 698 l 243 698 l 243 604 m 479 960 l 316 799 l 216 799 l 58 960 l 207 960 l 267 905 l 330 960 l 479 960 z "},"Ś":{"ha":747,"x_min":34,"x_max":712,"o":"m 378 557 q 191 667 262 595 q 119 844 119 739 q 194 1023 119 948 q 374 1097 268 1097 q 553 1023 478 1097 q 623 894 595 983 l 496 844 q 454 925 473 906 q 374 958 420 958 q 293 925 326 958 q 260 844 260 892 q 293 764 260 797 q 396 696 330 727 q 612 566 524 655 q 712 328 712 468 q 613 88 712 187 q 374 -12 513 -12 q 134 88 233 -12 q 34 307 55 168 l 170 357 q 233 186 183 237 q 374 128 292 128 q 514 186 456 128 q 572 328 572 245 q 514 468 572 410 q 378 557 458 524 m 414 1341 l 585 1341 l 401 1152 l 267 1152 l 414 1341 z "},"ś":{"ha":598,"x_min":84,"x_max":527,"o":"m 224 194 q 243 150 230 163 q 302 125 268 125 q 362 150 337 125 q 387 210 387 174 q 362 269 387 245 q 290 321 345 286 q 182 395 214 363 q 126 528 126 450 q 182 663 126 607 q 316 719 237 719 q 447 666 395 719 q 494 583 484 629 l 358 543 q 349 566 353 560 q 316 578 336 578 q 281 563 296 578 q 267 528 267 549 q 281 494 267 508 q 339 452 294 481 q 461 368 423 406 q 527 210 527 302 q 461 51 527 117 q 302 -16 396 -16 q 144 51 210 -16 q 84 164 98 96 l 224 194 m 347 954 l 517 954 l 333 765 l 199 765 l 347 954 z "},"Ŝ":{"ha":747,"x_min":34,"x_max":712,"o":"m 378 557 q 191 667 262 595 q 119 844 119 739 q 194 1023 119 948 q 374 1097 268 1097 q 553 1023 478 1097 q 623 894 595 983 l 496 844 q 454 925 473 906 q 374 958 420 958 q 293 925 326 958 q 260 844 260 892 q 293 764 260 797 q 396 696 330 727 q 612 566 524 655 q 712 328 712 468 q 613 88 712 187 q 374 -12 513 -12 q 134 88 233 -12 q 34 307 55 168 l 170 357 q 233 186 183 237 q 374 128 292 128 q 514 186 456 128 q 572 328 572 245 q 514 468 572 410 q 378 557 458 524 m 434 1186 l 372 1242 l 311 1186 l 163 1186 l 321 1348 l 420 1348 l 584 1186 l 434 1186 z "},"ŝ":{"ha":598,"x_min":84,"x_max":527,"o":"m 224 194 q 243 150 230 163 q 302 125 268 125 q 362 150 337 125 q 387 210 387 174 q 362 269 387 245 q 290 321 345 286 q 182 395 214 363 q 126 528 126 450 q 182 663 126 607 q 316 719 237 719 q 447 666 395 719 q 494 583 484 629 l 358 543 q 349 566 353 560 q 316 578 336 578 q 281 563 296 578 q 267 528 267 549 q 281 494 267 508 q 339 452 294 481 q 461 368 423 406 q 527 210 527 302 q 461 51 527 117 q 302 -16 396 -16 q 144 51 210 -16 q 84 164 98 96 l 224 194 m 366 799 l 304 854 l 243 799 l 95 799 l 253 960 l 353 960 l 516 799 l 366 799 z "},"Ş":{"ha":747,"x_min":34,"x_max":712,"o":"m 334 -9 q 134 88 219 3 q 34 307 55 168 l 170 357 q 233 186 183 237 q 374 128 292 128 q 514 186 456 128 q 572 328 572 245 q 514 468 572 410 q 378 557 458 524 q 191 667 262 595 q 119 844 119 739 q 194 1023 119 948 q 374 1097 268 1097 q 553 1023 478 1097 q 623 894 595 983 l 496 844 q 454 925 473 906 q 374 958 420 958 q 293 925 326 958 q 260 844 260 892 q 293 764 260 797 q 396 696 330 727 q 612 566 524 655 q 712 328 712 468 q 613 88 712 187 q 435 -6 536 11 l 427 -30 q 491 -90 477 -56 q 496 -109 494 -100 q 498 -126 498 -117 q 477 -181 498 -155 q 379 -231 444 -221 q 349 -233 366 -233 q 248 -222 310 -233 l 272 -137 q 335 -155 311 -155 q 342 -154 339 -155 q 370 -130 363 -151 q 372 -120 372 -125 q 371 -115 372 -117 q 309 -77 367 -96 l 334 -9 z "},"ş":{"ha":598,"x_min":84,"x_max":527,"o":"m 265 -13 q 144 51 196 -2 q 84 164 98 96 l 224 194 q 243 150 230 163 q 302 125 268 125 q 362 150 337 125 q 387 210 387 174 q 362 269 387 245 q 290 321 345 286 q 182 395 214 363 q 126 528 126 450 q 182 663 126 607 q 316 719 237 719 q 447 666 395 719 q 494 583 484 629 l 358 543 q 349 566 353 560 q 316 578 336 578 q 281 563 296 578 q 267 528 267 549 q 281 494 267 508 q 339 452 294 481 q 461 368 423 406 q 527 210 527 302 q 462 51 527 117 q 368 -6 420 9 l 359 -30 q 424 -90 410 -56 q 429 -109 427 -100 q 431 -126 431 -117 q 410 -181 431 -155 q 312 -231 376 -221 q 282 -233 299 -233 q 181 -222 243 -233 l 205 -137 q 268 -155 243 -155 q 275 -154 272 -155 q 302 -130 296 -151 q 304 -120 304 -125 q 304 -115 304 -117 q 241 -77 300 -96 l 265 -13 z "},"Š":{"ha":747,"x_min":34,"x_max":712,"o":"m 378 557 q 191 667 262 595 q 119 844 119 739 q 194 1023 119 948 q 374 1097 268 1097 q 553 1023 478 1097 q 623 894 595 983 l 496 844 q 454 925 473 906 q 374 958 420 958 q 293 925 326 958 q 260 844 260 892 q 293 764 260 797 q 396 696 330 727 q 612 566 524 655 q 712 328 712 468 q 613 88 712 187 q 374 -12 513 -12 q 134 88 233 -12 q 34 307 55 168 l 170 357 q 233 186 183 237 q 374 128 292 128 q 514 186 456 128 q 572 328 572 245 q 514 468 572 410 q 378 557 458 524 m 584 1348 l 420 1186 l 321 1186 l 163 1348 l 311 1348 l 372 1292 l 434 1348 l 584 1348 z "},"š":{"ha":598,"x_min":84,"x_max":527,"o":"m 224 194 q 243 150 230 163 q 302 125 268 125 q 362 150 337 125 q 387 210 387 174 q 362 269 387 245 q 290 321 345 286 q 182 395 214 363 q 126 528 126 450 q 182 663 126 607 q 316 719 237 719 q 447 666 395 719 q 494 583 484 629 l 358 543 q 349 566 353 560 q 316 578 336 578 q 281 563 296 578 q 267 528 267 549 q 281 494 267 508 q 339 452 294 481 q 461 368 423 406 q 527 210 527 302 q 461 51 527 117 q 302 -16 396 -16 q 144 51 210 -16 q 84 164 98 96 l 224 194 m 516 960 l 353 799 l 253 799 l 95 960 l 243 960 l 304 905 l 366 960 l 516 960 z "},"Ţ":{"ha":715,"x_min":34,"x_max":681,"o":"m 321 0 l 287 0 l 287 945 l 34 945 l 34 1085 l 681 1085 l 681 945 l 428 945 l 428 0 l 422 0 l 411 -30 q 475 -90 461 -56 q 480 -109 478 -100 q 482 -126 482 -117 q 461 -181 482 -155 q 363 -231 428 -221 q 334 -233 351 -233 q 233 -222 294 -233 l 256 -137 q 319 -155 295 -155 q 327 -154 323 -155 q 354 -130 348 -151 q 356 -120 356 -125 q 355 -115 356 -117 q 293 -77 351 -96 l 321 0 z "},"ţ":{"ha":514,"x_min":61,"x_max":452,"o":"m 221 0 l 186 0 l 186 557 l 61 557 l 61 698 l 186 698 l 186 960 l 327 960 l 327 698 l 452 698 l 452 557 l 327 557 l 327 0 l 322 0 l 311 -30 q 375 -90 361 -56 q 380 -109 378 -100 q 382 -126 382 -117 q 361 -181 382 -155 q 263 -231 328 -221 q 233 -233 250 -233 q 132 -222 194 -233 l 156 -137 q 219 -155 195 -155 q 227 -154 223 -155 q 254 -130 248 -151 q 256 -120 256 -125 q 255 -115 256 -117 q 193 -77 251 -96 l 221 0 z "},"Ť":{"ha":715,"x_min":34,"x_max":681,"o":"m 428 945 l 428 0 l 287 0 l 287 945 l 34 945 l 34 1085 l 681 1085 l 681 945 l 428 945 m 568 1348 l 405 1186 l 305 1186 l 147 1348 l 296 1348 l 356 1292 l 418 1348 l 568 1348 z "},"ť":{"ha":514,"x_min":61,"x_max":583,"o":"m 186 698 l 186 960 l 327 960 l 327 698 l 452 698 l 452 557 l 327 557 l 327 0 l 186 0 l 186 557 l 61 557 l 61 698 l 186 698 m 414 924 q 386 994 386 953 q 415 1063 386 1035 q 484 1092 444 1092 q 553 1063 524 1092 q 583 994 583 1035 q 574 952 583 972 l 501 804 l 373 804 l 414 924 z "},"Ŧ":{"ha":715,"x_min":34,"x_max":681,"o":"m 287 612 l 287 945 l 34 945 l 34 1085 l 681 1085 l 681 945 l 428 945 l 428 612 l 576 612 l 576 473 l 428 473 l 428 0 l 287 0 l 287 473 l 139 473 l 139 612 l 287 612 z "},"ŧ":{"ha":432,"x_min":20,"x_max":412,"o":"m 146 454 l 146 557 l 20 557 l 20 698 l 146 698 l 146 960 l 286 960 l 286 698 l 412 698 l 412 557 l 286 557 l 286 454 l 412 454 l 412 314 l 286 314 l 286 0 l 146 0 l 146 314 l 20 314 l 20 454 l 146 454 z "},"Ũ":{"ha":941,"x_min":102,"x_max":840,"o":"m 699 1085 l 840 1085 l 840 321 q 732 100 821 190 q 471 -9 623 -9 q 210 99 318 -9 q 102 360 102 208 l 102 1085 l 243 1085 l 243 360 q 310 200 243 267 q 471 133 376 133 q 632 199 566 133 q 699 360 699 266 l 699 1085 m 488 1320 q 509 1300 488 1320 q 547 1280 530 1280 l 547 1280 q 568 1306 568 1280 q 559 1353 568 1324 l 685 1353 q 585 1182 659 1204 q 547 1177 566 1177 q 457 1215 497 1177 q 397 1254 416 1254 l 395 1254 q 374 1227 374 1253 q 384 1183 374 1211 l 257 1183 q 358 1354 283 1332 q 396 1359 377 1359 q 488 1320 446 1359 z "},"ũ":{"ha":788,"x_min":102,"x_max":686,"o":"m 397 -9 q 184 71 265 -9 q 102 273 104 152 l 102 698 l 243 698 l 243 279 q 287 175 243 218 q 397 132 331 132 q 502 175 457 132 q 546 279 546 218 l 546 698 l 686 698 l 686 273 q 604 71 684 152 q 397 -9 524 -9 m 411 932 q 432 913 411 932 q 471 893 453 893 l 471 892 q 491 919 491 892 q 482 966 491 937 l 608 966 q 509 795 583 817 q 471 789 490 789 q 380 828 420 789 q 321 867 340 867 l 318 867 q 298 840 298 865 q 307 795 298 823 l 180 795 q 281 966 207 945 q 319 972 300 972 q 411 932 369 972 z "},"Ū":{"ha":941,"x_min":102,"x_max":840,"o":"m 699 1085 l 840 1085 l 840 321 q 732 100 821 190 q 471 -9 623 -9 q 210 99 318 -9 q 102 360 102 208 l 102 1085 l 243 1085 l 243 360 q 310 200 243 267 q 471 133 376 133 q 632 199 566 133 q 699 360 699 266 l 699 1085 m 279 1362 l 663 1362 l 663 1221 l 279 1221 l 279 1362 z "},"ū":{"ha":788,"x_min":102,"x_max":686,"o":"m 397 -9 q 184 71 265 -9 q 102 273 104 152 l 102 698 l 243 698 l 243 279 q 287 175 243 218 q 397 132 331 132 q 502 175 457 132 q 546 279 546 218 l 546 698 l 686 698 l 686 273 q 604 71 684 152 q 397 -9 524 -9 m 202 975 l 587 975 l 587 834 l 202 834 l 202 975 z "},"Ŭ":{"ha":941,"x_min":102,"x_max":840,"o":"m 699 1085 l 840 1085 l 840 321 q 732 100 821 190 q 471 -9 623 -9 q 210 99 318 -9 q 102 360 102 208 l 102 1085 l 243 1085 l 243 360 q 310 200 243 267 q 471 133 376 133 q 632 199 566 133 q 699 360 699 266 l 699 1085 m 411 1345 q 429 1293 418 1303 q 471 1276 446 1276 q 513 1294 496 1276 q 530 1345 524 1303 l 659 1345 q 605 1222 644 1262 q 471 1166 550 1166 q 337 1222 392 1166 q 283 1345 294 1265 l 411 1345 z "},"ŭ":{"ha":788,"x_min":102,"x_max":686,"o":"m 397 -9 q 184 71 265 -9 q 102 273 104 152 l 102 698 l 243 698 l 243 279 q 287 175 243 218 q 397 132 331 132 q 502 175 457 132 q 546 279 546 218 l 546 698 l 686 698 l 686 273 q 604 71 684 152 q 397 -9 524 -9 m 334 958 q 352 906 342 916 q 395 888 370 888 q 437 907 419 888 q 454 958 447 916 l 583 958 q 528 835 568 875 q 395 779 473 779 q 260 835 315 779 q 206 958 218 878 l 334 958 z "},"Ů":{"ha":941,"x_min":102,"x_max":840,"o":"m 699 1085 l 840 1085 l 840 321 q 732 100 821 190 q 471 -9 623 -9 q 210 99 318 -9 q 102 360 102 208 l 102 1085 l 243 1085 l 243 360 q 310 200 243 267 q 471 133 376 133 q 632 199 566 133 q 699 360 699 266 l 699 1085 m 471 1327 q 552 1293 518 1327 q 586 1211 586 1259 q 552 1130 586 1164 q 471 1096 518 1096 q 389 1130 422 1096 q 355 1211 355 1164 q 389 1293 355 1259 q 471 1327 422 1327 m 472 1173 q 498 1184 487 1173 q 509 1210 509 1194 q 498 1239 509 1229 q 472 1250 487 1250 q 443 1239 453 1250 q 432 1210 432 1229 q 443 1184 432 1194 q 472 1173 453 1173 z "},"ů":{"ha":788,"x_min":102,"x_max":686,"o":"m 397 -9 q 184 71 265 -9 q 102 273 104 152 l 102 698 l 243 698 l 243 279 q 287 175 243 218 q 397 132 331 132 q 502 175 457 132 q 546 279 546 218 l 546 698 l 686 698 l 686 273 q 604 71 684 152 q 397 -9 524 -9 m 394 940 q 475 906 441 940 q 509 824 509 872 q 475 743 509 777 q 394 709 441 709 q 312 743 346 709 q 278 824 278 777 q 312 906 278 872 q 394 940 346 940 m 395 786 q 421 797 410 786 q 432 823 432 807 q 421 852 432 842 q 395 863 410 863 q 366 852 376 863 q 355 823 355 842 q 366 797 355 807 q 395 786 376 786 z "},"Ű":{"ha":941,"x_min":102,"x_max":840,"o":"m 699 1085 l 840 1085 l 840 321 q 732 100 821 190 q 471 -9 623 -9 q 210 99 318 -9 q 102 360 102 208 l 102 1085 l 243 1085 l 243 360 q 310 200 243 267 q 471 133 376 133 q 632 199 566 133 q 699 360 699 266 l 699 1085 m 486 1358 l 336 1175 l 211 1175 l 273 1358 l 486 1358 m 731 1358 l 581 1175 l 456 1175 l 517 1358 l 731 1358 z "},"ű":{"ha":788,"x_min":102,"x_max":686,"o":"m 397 -9 q 184 71 265 -9 q 102 273 104 152 l 102 698 l 243 698 l 243 279 q 287 175 243 218 q 397 132 331 132 q 502 175 457 132 q 546 279 546 218 l 546 698 l 686 698 l 686 273 q 604 71 684 152 q 397 -9 524 -9 m 410 971 l 260 787 l 134 787 l 196 971 l 410 971 m 654 971 l 505 787 l 379 787 l 441 971 l 654 971 z "},"Ų":{"ha":941,"x_min":102,"x_max":840,"o":"m 453 -8 q 210 100 312 -3 q 102 360 102 208 l 102 1085 l 243 1085 l 243 360 q 310 200 243 267 q 471 133 376 133 q 632 199 566 133 q 699 360 699 266 l 699 1085 l 840 1085 l 840 321 q 732 100 821 190 q 588 9 667 35 q 543 -85 543 -49 q 547 -105 543 -96 q 578 -130 557 -130 q 643 -96 603 -130 l 682 -199 q 557 -233 600 -233 q 452 -189 492 -233 q 420 -100 420 -152 q 421 -77 420 -89 q 453 -8 427 -41 z "},"ų":{"ha":788,"x_min":102,"x_max":686,"o":"m 412 -9 l 397 -9 q 184 71 265 -9 q 102 273 104 152 l 102 698 l 243 698 l 243 279 q 287 175 243 218 q 397 132 331 132 q 502 175 457 132 q 546 279 546 218 l 546 698 l 686 698 l 686 273 q 604 71 684 152 q 587 55 596 63 q 506 -81 506 -31 q 510 -100 506 -92 q 541 -125 520 -125 q 606 -91 566 -125 l 646 -195 q 520 -229 563 -229 q 416 -184 456 -229 q 383 -96 383 -147 q 385 -72 383 -84 q 412 -9 389 -39 z "},"Ŵ":{"ha":1143,"x_min":85,"x_max":1059,"o":"m 501 203 l 501 1085 l 642 1085 l 642 203 q 665 174 648 191 q 769 132 709 132 q 873 175 829 132 q 918 279 918 218 l 918 1085 l 1059 1085 l 1059 273 q 974 77 1056 159 q 769 -9 889 -9 q 572 75 650 -9 q 374 -9 493 -9 q 170 77 254 -9 q 85 273 87 158 l 85 1085 l 225 1085 l 225 279 q 269 175 225 218 q 374 132 313 132 q 478 174 435 132 q 501 203 495 191 m 633 1186 l 570 1242 l 510 1186 l 361 1186 l 519 1348 l 619 1348 l 783 1186 l 633 1186 z "},"ŵ":{"ha":962,"x_min":102,"x_max":859,"o":"m 410 207 l 410 698 l 550 698 l 550 218 q 575 156 550 181 q 635 132 600 132 q 718 235 718 132 l 718 698 l 859 698 l 859 209 q 793 57 856 119 q 635 -9 728 -9 q 481 56 541 -9 q 326 -9 419 -9 q 167 57 233 -9 q 102 209 104 119 l 102 698 l 242 698 l 242 235 q 326 132 242 132 q 386 156 361 132 q 410 207 407 177 m 541 799 l 479 854 l 418 799 l 270 799 l 428 960 l 528 960 l 691 799 l 541 799 z "},"Ŷ":{"ha":959,"x_min":34,"x_max":925,"o":"m 409 435 l 34 1085 l 195 1085 l 479 594 l 763 1085 l 925 1085 l 549 435 l 549 0 l 409 0 l 409 435 m 541 1186 l 478 1242 l 418 1186 l 269 1186 l 427 1348 l 527 1348 l 690 1186 l 541 1186 z "},"ŷ":{"ha":772,"x_min":51,"x_max":720,"o":"m 273 -235 l 125 -235 l 311 155 l 51 698 l 209 698 l 386 316 l 563 698 l 720 698 l 273 -235 m 446 799 l 384 854 l 323 799 l 175 799 l 333 960 l 433 960 l 596 799 l 446 799 z "},"Ÿ":{"ha":959,"x_min":34,"x_max":925,"o":"m 409 435 l 34 1085 l 195 1085 l 479 594 l 763 1085 l 925 1085 l 549 435 l 549 0 l 409 0 l 409 435 m 352 1362 q 421 1334 392 1362 q 450 1265 450 1305 q 421 1195 450 1223 q 352 1166 392 1166 q 282 1195 311 1166 q 254 1265 254 1223 q 282 1334 254 1305 q 352 1362 311 1362 m 607 1362 q 676 1334 647 1362 q 705 1265 705 1305 q 676 1195 705 1223 q 607 1166 647 1166 q 537 1195 566 1166 q 509 1265 509 1223 q 537 1334 509 1305 q 607 1362 566 1362 z "},"Ź":{"ha":992,"x_min":102,"x_max":890,"o":"m 647 945 l 133 945 l 133 1085 l 890 1085 l 344 141 l 859 141 l 859 0 l 102 0 l 647 945 m 537 1341 l 708 1341 l 524 1152 l 390 1152 l 537 1341 z "},"ź":{"ha":763,"x_min":102,"x_max":661,"o":"m 419 557 l 132 557 l 132 698 l 661 698 l 343 141 l 654 141 l 654 0 l 102 0 l 419 557 m 422 954 l 593 954 l 409 765 l 275 765 l 422 954 z "},"Ż":{"ha":992,"x_min":102,"x_max":890,"o":"m 647 945 l 133 945 l 133 1085 l 890 1085 l 344 141 l 859 141 l 859 0 l 102 0 l 647 945 m 496 1361 q 559 1335 533 1361 q 586 1272 586 1310 q 559 1208 586 1234 q 496 1182 533 1182 q 433 1208 459 1182 q 406 1272 406 1234 q 433 1335 406 1310 q 496 1361 459 1361 z "},"ż":{"ha":763,"x_min":102,"x_max":661,"o":"m 419 557 l 132 557 l 132 698 l 661 698 l 343 141 l 654 141 l 654 0 l 102 0 l 419 557 m 382 974 q 445 948 418 974 q 471 884 471 922 q 445 821 471 846 q 382 795 418 795 q 318 821 345 795 q 292 884 292 846 q 318 948 292 922 q 382 974 345 974 z "},"Ž":{"ha":992,"x_min":102,"x_max":890,"o":"m 647 945 l 133 945 l 133 1085 l 890 1085 l 344 141 l 859 141 l 859 0 l 102 0 l 647 945 m 707 1348 l 543 1186 l 444 1186 l 286 1348 l 434 1348 l 494 1292 l 557 1348 l 707 1348 z "},"ž":{"ha":763,"x_min":102,"x_max":661,"o":"m 419 557 l 132 557 l 132 698 l 661 698 l 343 141 l 654 141 l 654 0 l 102 0 l 419 557 m 592 960 l 429 799 l 329 799 l 171 960 l 319 960 l 380 905 l 442 960 l 592 960 z "},"ſ":{"ha":368,"x_min":84,"x_max":426,"o":"m 225 0 l 84 0 l 84 824 q 150 972 90 910 q 298 1032 214 1032 q 426 1002 340 1032 l 379 869 q 303 895 319 895 q 249 871 275 895 q 225 818 227 849 l 225 0 z "},"ƒ":{"ha":367,"x_min":-42,"x_max":425,"o":"m 224 0 l 223 0 l 223 -8 q -42 -227 215 -227 l -42 -90 q 83 -7 79 -90 l 83 557 l 21 557 l 21 698 l 83 698 l 83 824 q 149 972 88 910 q 296 1032 214 1032 q 425 1002 339 1032 l 378 869 q 302 895 318 895 q 248 871 275 895 q 224 818 225 849 l 224 698 l 349 698 l 349 557 l 224 557 l 224 0 z "},"Ǻ":{"ha":913,"x_min":-1,"x_max":910,"o":"m 555 531 l 457 790 l 358 531 l 555 531 m 458 1032 q 477 1041 469 1032 q 486 1060 486 1050 q 477 1086 486 1077 q 458 1095 469 1095 q 433 1086 441 1095 q 424 1060 424 1077 q 433 1041 424 1050 q 458 1032 441 1032 m 414 1176 l 484 1275 l 728 1275 l 540 1147 q 574 1063 574 1112 q 541 969 574 1014 l 910 0 l 761 0 l 608 391 l 305 391 l 149 0 l -1 0 l 373 968 q 336 1063 336 1014 q 372 1147 336 1112 q 414 1176 396 1172 z "},"ǻ":{"ha":950,"x_min":85,"x_max":848,"o":"m 707 316 l 707 419 q 642 538 694 485 q 471 609 570 609 q 299 538 370 609 q 229 368 229 468 q 299 197 229 268 q 471 126 370 126 q 642 197 570 126 q 707 316 694 250 m 468 786 q 494 797 483 786 q 505 823 505 807 q 494 852 505 842 q 468 863 483 863 q 438 852 449 863 q 428 823 428 842 q 438 797 428 807 q 468 786 449 786 m 549 744 q 707 649 636 722 l 707 698 l 848 698 l 848 -1 l 707 -1 l 707 87 q 471 -18 605 -18 q 198 95 311 -18 q 85 368 85 208 q 198 641 85 528 q 383 744 278 721 q 351 824 351 778 q 385 906 351 872 q 427 933 404 925 l 377 933 l 524 1122 l 695 1122 l 511 933 l 507 933 q 548 906 529 925 q 582 824 582 872 q 549 744 582 777 z "},"Ǽ":{"ha":1163,"x_min":27,"x_max":1079,"o":"m 1079 1085 l 1079 945 l 635 945 l 635 613 l 1079 613 l 1079 473 l 635 473 l 635 141 l 1079 141 l 1079 0 l 494 0 l 494 384 l 363 384 l 199 0 l 27 0 l 494 1050 l 494 1085 l 1079 1085 m 494 697 l 420 524 l 494 524 l 494 697 m 594 1341 l 765 1341 l 581 1152 l 447 1152 l 594 1341 z "},"ǽ":{"ha":1453,"x_min":61,"x_max":1392,"o":"m 659 484 q 617 539 643 513 q 446 610 547 610 q 276 539 347 610 q 205 368 205 469 q 276 197 205 268 q 446 127 347 127 q 617 198 547 127 q 659 252 644 224 q 684 317 677 284 l 684 420 q 659 484 677 452 m 1223 499 l 1183 539 q 1013 610 1113 610 q 842 539 912 610 q 824 520 827 524 l 824 499 l 1223 499 m 684 673 l 684 699 l 824 699 q 1013 754 862 754 q 1286 641 1173 754 q 1392 358 1386 540 l 824 359 l 824 216 q 841 198 827 212 q 1013 127 912 127 q 1183 198 1113 127 q 1226 248 1196 211 l 1363 199 q 1286 96 1323 133 q 1013 -17 1173 -17 q 824 18 862 -17 l 824 0 l 684 0 l 684 64 q 446 -17 582 -17 q 174 96 287 -17 q 61 368 61 209 q 174 641 61 528 q 446 754 287 754 q 684 673 582 754 m 768 954 l 939 954 l 754 765 l 621 765 l 768 954 z "},"Ǿ":{"ha":1281,"x_min":85,"x_max":1196,"o":"m 750 947 q 640 958 722 958 q 348 837 469 958 q 227 544 227 715 q 348 251 227 372 q 403 201 392 207 l 750 947 m 530 141 q 640 130 558 130 q 933 251 812 130 q 1054 544 1054 372 q 933 837 1054 715 q 878 887 889 881 l 530 141 m 938 1016 q 1034 937 972 997 q 1196 544 1196 774 q 1033 151 1196 314 q 640 -12 870 -12 q 470 12 529 -12 l 416 -105 l 288 -45 l 342 72 q 248 151 308 91 q 85 544 85 314 q 248 937 85 774 q 640 1099 410 1099 q 810 1076 751 1099 l 865 1193 l 993 1133 l 938 1016 m 682 1341 l 852 1341 l 668 1152 l 534 1152 l 682 1341 z "},"ǿ":{"ha":893,"x_min":61,"x_max":832,"o":"m 505 609 q 446 610 501 610 q 276 539 347 610 q 205 369 205 469 q 268 199 205 269 l 505 609 m 389 129 q 446 127 392 127 q 617 198 547 127 q 688 369 688 269 q 617 540 688 469 l 389 129 m 199 71 l 174 96 q 61 369 61 210 q 174 642 61 529 q 446 755 287 755 q 578 735 537 755 l 654 869 l 779 804 l 694 667 l 720 642 q 832 369 832 529 q 719 96 832 210 q 446 -17 606 -17 q 316 3 356 -17 l 239 -130 l 113 -70 l 199 71 m 488 954 l 659 954 l 474 765 l 340 765 l 488 954 z "},"ˆ":{"ha":723,"x_min":150,"x_max":571,"o":"m 421 799 l 359 854 l 298 799 l 150 799 l 308 960 l 408 960 l 571 799 l 421 799 z "},"ˇ":{"ha":723,"x_min":150,"x_max":571,"o":"m 571 960 l 408 799 l 308 799 l 150 960 l 298 960 l 359 905 l 421 960 l 571 960 z "},"ˉ":{"ha":486,"x_min":51,"x_max":435,"o":"m 51 975 l 435 975 l 435 834 l 51 834 l 51 975 z "},"˘":{"ha":663,"x_min":142,"x_max":519,"o":"m 271 958 q 288 906 278 916 q 331 888 306 888 q 373 907 355 888 q 390 958 383 916 l 519 958 q 465 835 504 875 q 331 779 410 779 q 197 835 252 779 q 142 958 154 878 l 271 958 z "},"˙":{"ha":350,"x_min":85,"x_max":264,"o":"m 175 974 q 238 948 212 974 q 264 884 264 922 q 238 821 264 846 q 175 795 212 795 q 111 821 138 795 q 85 884 85 846 q 111 948 85 922 q 175 974 138 974 z "},"˚":{"ha":589,"x_min":180,"x_max":411,"o":"m 296 940 q 377 906 343 940 q 411 824 411 872 q 377 743 411 777 q 296 709 343 709 q 214 743 248 709 q 180 824 180 777 q 214 906 180 872 q 296 940 248 940 m 297 786 q 323 797 312 786 q 334 823 334 807 q 323 852 334 842 q 297 863 312 863 q 268 852 278 863 q 257 823 257 842 q 268 797 257 807 q 297 786 278 786 z "},"˛":{"ha":296,"x_min":17,"x_max":279,"o":"m 235 71 q 140 -81 140 -27 q 144 -100 140 -92 q 175 -125 154 -125 q 240 -91 200 -125 l 279 -195 q 154 -229 197 -229 q 50 -184 90 -229 q 17 -96 17 -147 q 18 -72 17 -84 q 178 89 31 16 l 235 71 z "},"˜":{"ha":631,"x_min":102,"x_max":530,"o":"m 332 932 q 353 913 332 932 q 392 893 374 893 l 392 892 q 412 919 412 892 q 404 966 412 937 l 530 966 q 430 795 504 817 q 392 789 411 789 q 301 828 342 789 q 242 867 261 867 l 239 867 q 219 840 219 865 q 229 795 219 823 l 102 795 q 203 966 128 945 q 241 972 222 972 q 332 932 290 972 z "},"˝":{"ha":554,"x_min":17,"x_max":537,"o":"m 292 971 l 142 787 l 17 787 l 79 971 l 292 971 m 537 971 l 387 787 l 262 787 l 323 971 l 537 971 z "},"΄":{"ha":454,"x_min":68,"x_max":386,"o":"m 215 954 l 386 954 l 201 765 l 68 765 l 215 954 z "},"΅":{"ha":602,"x_min":50,"x_max":570,"o":"m 489 977 q 546 954 522 977 q 570 897 570 930 q 546 839 570 863 q 489 815 522 815 q 431 839 456 815 q 407 897 407 863 q 431 954 407 930 q 489 977 456 977 m 132 977 q 189 954 165 977 q 213 897 213 930 q 189 839 213 863 q 132 815 165 815 q 74 839 98 815 q 50 897 50 863 q 74 954 50 930 q 132 977 98 977 m 303 1028 l 441 1028 l 321 799 l 214 799 l 303 1028 z "},"Ά":{"ha":933,"x_min":102,"x_max":967,"o":"m 256 954 l 427 954 l 242 765 l 109 765 l 256 954 m 627 524 l 534 779 l 442 524 l 627 524 m 572 1085 l 967 0 l 818 0 l 678 384 l 391 384 l 252 0 l 102 0 l 496 1085 l 572 1085 z "},"·":{"ha":264,"x_min":42,"x_max":222,"o":"m 132 793 q 195 767 169 793 q 222 704 222 741 q 195 640 222 666 q 132 614 169 614 q 69 640 96 614 q 42 704 42 666 q 69 767 42 741 q 132 793 96 793 z "},"Έ":{"ha":1055,"x_min":68,"x_max":1232,"o":"m 215 954 l 386 954 l 201 765 l 68 765 l 215 954 z "},"Ή":{"ha":1103,"x_min":68,"x_max":1263,"o":"m 215 954 l 386 954 l 201 765 l 68 765 l 215 954 z "},"Ί":{"ha":780,"x_min":68,"x_max":686,"o":"m 215 954 l 386 954 l 201 765 l 68 765 l 215 954 m 686 1085 l 686 0 l 545 0 l 545 1085 l 686 1085 z "},"Ό":{"ha":1582,"x_min":68,"x_max":1423,"o":"m 215 954 l 386 954 l 201 765 l 68 765 l 215 954 z "},"Ύ":{"ha":1311,"x_min":68,"x_max":1470,"o":"m 215 954 l 386 954 l 201 765 l 68 765 l 215 954 z "},"Ώ":{"ha":1295,"x_min":34,"x_max":1195,"o":"m 181 954 l 352 954 l 168 765 l 34 765 l 181 954 m 450 140 q 366 209 415 162 q 227 528 227 338 q 358 932 227 779 q 706 1085 489 1085 l 716 1085 q 1064 932 932 1085 q 1195 528 1195 779 q 1057 209 1195 338 q 972 140 1006 162 l 1131 140 l 1131 0 l 780 0 l 780 132 q 961 266 868 168 q 1054 528 1054 365 q 961 840 1054 726 q 712 954 867 954 l 709 954 q 461 840 554 954 q 368 528 368 726 q 461 266 368 365 q 642 132 554 168 l 642 0 l 290 0 l 290 140 l 450 140 z "},"ΐ":{"ha":363,"x_min":-79,"x_max":441,"o":"m 252 699 l 252 0 l 111 0 l 111 699 l 252 699 m 360 977 q 417 954 393 977 q 441 897 441 930 q 417 839 441 863 q 360 815 393 815 q 302 839 327 815 q 278 897 278 863 q 302 954 278 930 q 360 977 327 977 m 3 977 q 60 954 36 977 q 84 897 84 930 q 60 839 84 863 q 3 815 36 815 q -55 839 -31 815 q -79 897 -79 863 q -55 954 -79 930 q 3 977 -31 977 m 174 1028 l 312 1028 l 193 799 l 85 799 l 174 1028 z "},"Α":{"ha":933,"x_min":34,"x_max":899,"o":"m 559 524 l 467 779 l 374 524 l 559 524 m 505 1085 l 899 0 l 750 0 l 610 384 l 323 384 l 184 0 l 34 0 l 429 1085 l 505 1085 z "},"Β":{"ha":764,"x_min":102,"x_max":703,"o":"m 321 1085 q 483 1018 416 1085 q 550 857 550 951 q 452 737 550 760 q 613 637 523 727 q 703 387 703 547 q 591 112 703 228 q 380 1 486 3 l 380 0 l 102 0 l 102 1085 l 321 1085 m 242 629 l 242 141 l 380 141 l 380 143 q 488 213 423 146 q 559 387 559 286 q 488 558 559 487 q 317 629 417 629 l 242 629 m 242 945 l 242 773 l 334 773 q 387 797 365 776 q 412 857 412 819 q 386 920 412 895 q 321 945 361 945 l 242 945 z "},"Γ":{"ha":625,"x_min":86,"x_max":608,"o":"m 608 1085 l 608 944 l 227 944 l 227 0 l 86 0 l 86 1085 l 608 1085 z "},"Δ":{"ha":899,"x_min":-23,"x_max":899,"o":"m 37 1 l -23 1 l 372 1085 l 500 1085 l 899 0 l 37 0 l 37 1 m 698 141 l 436 850 l 177 141 l 698 141 z "},"Ε":{"ha":771,"x_min":102,"x_max":686,"o":"m 686 1085 l 686 945 l 242 945 l 242 613 l 686 613 l 686 473 l 242 473 l 242 141 l 686 141 l 686 0 l 102 0 l 102 1085 l 686 1085 z "},"Ζ":{"ha":992,"x_min":102,"x_max":890,"o":"m 647 945 l 133 945 l 133 1085 l 890 1085 l 344 141 l 859 141 l 859 0 l 102 0 l 647 945 z "},"Η":{"ha":819,"x_min":102,"x_max":718,"o":"m 242 449 l 242 0 l 102 0 l 102 1085 l 242 1085 l 242 589 l 577 589 l 577 1085 l 718 1085 l 718 0 l 577 0 l 577 449 l 242 449 z "},"Θ":{"ha":1206,"x_min":47,"x_max":1158,"o":"m 603 1099 q 996 937 833 1099 q 1158 544 1158 774 q 996 151 1158 313 q 603 -12 833 -12 q 210 151 373 -12 q 47 544 47 313 q 210 937 47 774 q 603 1099 373 1099 m 603 958 q 311 836 432 958 q 189 544 189 715 q 311 251 189 372 q 603 130 432 130 q 895 251 774 130 q 1017 544 1017 372 q 895 836 1017 715 q 603 958 774 958 m 278 614 l 928 614 l 928 473 l 278 473 l 278 614 z "},"Ι":{"ha":328,"x_min":94,"x_max":235,"o":"m 235 1085 l 235 0 l 94 0 l 94 1085 l 235 1085 z "},"Κ":{"ha":818,"x_min":102,"x_max":758,"o":"m 242 512 l 242 0 l 102 0 l 102 1085 l 242 1085 l 242 743 l 498 1085 l 676 1085 l 343 639 l 758 0 l 587 0 l 252 524 l 242 512 z "},"Λ":{"ha":922,"x_min":0,"x_max":922,"o":"m 523 1085 l 922 0 l 773 0 l 459 850 l 149 1 l 0 1 l 395 1085 l 523 1085 z "},"Μ":{"ha":1229,"x_min":135,"x_max":1094,"o":"m 263 1085 l 615 477 l 966 1085 l 1094 1085 l 1094 0 l 954 0 l 954 784 l 615 198 l 275 784 l 275 0 l 135 0 l 135 1085 l 263 1085 z "},"Ν":{"ha":920,"x_min":102,"x_max":819,"o":"m 102 1085 l 230 1085 l 677 311 l 677 1085 l 819 1085 l 819 0 l 696 0 l 242 784 l 242 0 l 102 0 l 102 1085 z "},"Ξ":{"ha":869,"x_min":39,"x_max":831,"o":"m 109 614 l 759 614 l 759 473 l 109 473 l 109 614 m 39 1085 l 831 1085 l 831 944 l 39 944 l 39 1085 m 39 141 l 831 141 l 831 0 l 39 0 l 39 141 z "},"Ο":{"ha":1281,"x_min":85,"x_max":1196,"o":"m 640 1099 q 1033 937 870 1099 q 1196 544 1196 774 q 1033 151 1196 314 q 640 -12 870 -12 q 248 151 410 -12 q 85 544 85 314 q 248 937 85 774 q 640 1099 410 1099 m 640 958 q 348 837 469 958 q 227 544 227 715 q 348 251 227 372 q 640 130 469 130 q 933 251 812 130 q 1054 544 1054 372 q 933 837 1054 715 q 640 958 812 958 z "},"Π":{"ha":854,"x_min":72,"x_max":782,"o":"m 213 944 l 213 0 l 72 0 l 72 1085 l 782 1085 l 782 0 l 641 0 l 641 944 l 213 944 z "},"Ρ":{"ha":777,"x_min":102,"x_max":739,"o":"m 242 347 l 242 0 l 102 0 l 102 1085 l 410 1085 q 631 977 541 1067 q 739 717 739 869 q 631 455 739 564 q 370 347 523 347 l 242 347 m 242 944 l 242 488 l 370 488 q 531 555 464 488 q 597 717 597 622 q 531 878 597 811 q 370 944 464 944 l 242 944 z "},"Σ":{"ha":838,"x_min":18,"x_max":820,"o":"m 18 1085 l 820 1085 l 820 944 l 211 944 l 542 542 l 211 141 l 820 141 l 820 0 l 18 0 l 18 140 l 359 542 l 18 945 l 18 1085 z "},"Τ":{"ha":715,"x_min":34,"x_max":681,"o":"m 428 945 l 428 0 l 287 0 l 287 945 l 34 945 l 34 1085 l 681 1085 l 681 945 l 428 945 z "},"Υ":{"ha":959,"x_min":34,"x_max":925,"o":"m 409 435 l 34 1085 l 195 1085 l 479 594 l 763 1085 l 925 1085 l 549 435 l 549 0 l 409 0 l 409 435 z "},"Φ":{"ha":1210,"x_min":54,"x_max":1156,"o":"m 534 294 l 534 774 q 298 701 398 770 q 198 534 198 629 q 298 368 198 439 q 534 294 398 298 m 675 151 l 675 0 l 534 0 l 534 151 q 208 258 345 155 q 54 535 54 371 q 208 811 54 699 q 534 918 345 913 l 534 1085 l 675 1085 l 675 918 q 1003 811 864 913 q 1156 535 1156 699 q 1003 258 1156 371 q 675 151 865 155 m 675 774 l 675 294 q 911 368 811 298 q 1012 534 1012 439 q 911 701 1012 629 q 675 774 812 770 z "},"Χ":{"ha":913,"x_min":34,"x_max":879,"o":"m 34 0 l 375 592 l 91 1085 l 252 1085 l 456 732 l 661 1085 l 822 1085 l 536 592 l 879 0 l 718 0 l 456 452 l 195 0 l 34 0 z "},"Ψ":{"ha":1237,"x_min":69,"x_max":1168,"o":"m 687 221 l 687 0 l 546 0 l 546 221 q 219 330 357 227 q 69 607 73 442 l 69 1085 l 210 1085 l 210 605 q 311 439 210 509 q 546 365 410 368 l 546 1085 l 687 1085 l 687 365 q 924 439 823 368 q 1024 650 1024 509 l 1027 650 l 1027 1085 l 1168 1085 l 1168 604 q 1015 329 1167 441 q 687 221 876 227 z "},"Ω":{"ha":1168,"x_min":100,"x_max":1068,"o":"m 323 140 q 239 209 288 162 q 100 528 100 338 q 231 932 100 779 q 579 1085 362 1085 l 589 1085 q 937 932 806 1085 q 1068 528 1068 779 q 930 209 1068 338 q 846 140 880 162 l 1004 140 l 1004 0 l 653 0 l 653 132 q 834 266 741 168 q 927 528 927 365 q 834 840 927 726 q 585 954 741 954 l 583 954 q 334 840 427 954 q 241 528 241 726 q 334 266 241 365 q 515 132 427 168 l 515 0 l 163 0 l 163 140 l 323 140 z "},"Ϊ":{"ha":328,"x_min":-62,"x_max":390,"o":"m 235 1085 l 235 0 l 94 0 l 94 1085 l 235 1085 m 37 1362 q 106 1334 77 1362 q 135 1265 135 1305 q 106 1195 135 1223 q 37 1166 77 1166 q -33 1195 -4 1166 q -62 1265 -62 1223 q -33 1334 -62 1305 q 37 1362 -4 1362 m 292 1362 q 361 1334 332 1362 q 390 1265 390 1305 q 361 1195 390 1223 q 292 1166 332 1166 q 222 1195 251 1166 q 193 1265 193 1223 q 222 1334 193 1305 q 292 1362 251 1362 z "},"Ϋ":{"ha":959,"x_min":34,"x_max":925,"o":"m 409 435 l 34 1085 l 195 1085 l 479 594 l 763 1085 l 925 1085 l 549 435 l 549 0 l 409 0 l 409 435 m 352 1362 q 421 1334 392 1362 q 450 1265 450 1305 q 421 1195 450 1223 q 352 1166 392 1166 q 282 1195 311 1166 q 254 1265 254 1223 q 282 1334 254 1305 q 352 1362 311 1362 m 607 1362 q 676 1334 647 1362 q 705 1265 705 1305 q 676 1195 705 1223 q 607 1166 647 1166 q 537 1195 566 1166 q 509 1265 509 1223 q 537 1334 509 1305 q 607 1362 566 1362 z "},"ά":{"ha":925,"x_min":62,"x_max":894,"o":"m 618 539 q 447 610 547 610 q 276 539 347 610 q 205 368 205 468 q 276 197 205 268 q 447 127 347 127 q 618 197 547 127 q 671 353 670 249 q 618 539 671 484 m 723 638 l 754 698 l 894 698 l 800 349 l 894 0 l 754 0 l 720 98 l 720 96 q 447 -18 608 -18 q 175 96 288 -18 q 62 368 62 209 q 175 641 62 528 q 447 754 288 754 q 720 641 608 754 q 723 638 722 640 m 519 954 l 690 954 l 505 765 l 372 765 l 519 954 z "},"έ":{"ha":631,"x_min":69,"x_max":559,"o":"m 448 534 q 331 565 397 565 q 236 550 266 565 q 205 514 205 535 q 234 448 205 468 q 273 425 263 427 l 465 425 l 465 285 l 272 285 q 234 262 262 283 q 205 203 205 242 q 237 154 205 178 q 330 131 269 131 q 454 176 399 134 l 559 96 q 331 -13 451 -13 q 146 45 224 -13 q 69 211 69 104 q 130 356 69 319 q 69 508 69 393 q 148 663 69 618 q 331 709 227 709 q 559 606 448 709 l 448 534 m 355 954 l 526 954 l 342 765 l 208 765 l 355 954 z "},"ή":{"ha":689,"x_min":69,"x_max":635,"o":"m 210 511 l 210 0 l 69 0 l 69 699 l 210 699 l 210 610 q 397 735 261 735 q 584 655 534 735 q 635 454 633 574 l 635 -234 l 495 -234 l 495 448 q 451 552 495 509 q 347 595 407 595 q 242 552 286 595 q 210 511 218 528 m 393 954 l 564 954 l 380 765 l 246 765 l 393 954 z "},"ί":{"ha":363,"x_min":75,"x_max":393,"o":"m 252 699 l 252 0 l 111 0 l 111 699 l 252 699 m 222 954 l 393 954 l 209 765 l 75 765 l 222 954 z "},"ΰ":{"ha":787,"x_min":102,"x_max":686,"o":"m 397 -9 q 184 72 264 -9 q 102 273 104 152 l 102 698 l 242 698 l 242 279 q 286 176 242 218 q 397 132 331 132 q 501 175 457 132 q 545 279 545 218 l 545 698 l 686 698 l 686 273 q 604 72 684 152 q 397 -9 523 -9 m 572 977 q 629 954 605 977 q 654 897 654 930 q 629 839 654 863 q 572 815 605 815 q 515 839 539 815 q 490 897 490 863 q 515 954 490 930 q 572 977 539 977 m 216 977 q 272 954 248 977 q 296 897 296 930 q 272 839 296 863 q 216 815 248 815 q 158 839 182 815 q 134 897 134 863 q 158 954 134 930 q 216 977 182 977 m 387 1028 l 524 1028 l 405 799 l 297 799 l 387 1028 z "},"α":{"ha":925,"x_min":62,"x_max":894,"o":"m 618 539 q 447 610 547 610 q 276 539 347 610 q 205 368 205 468 q 276 197 205 268 q 447 127 347 127 q 618 197 547 127 q 671 353 670 249 q 618 539 671 484 m 723 638 l 754 698 l 894 698 l 800 349 l 894 0 l 754 0 l 720 98 l 720 96 q 447 -18 608 -18 q 175 96 288 -18 q 62 368 62 209 q 175 641 62 528 q 447 754 288 754 q 720 641 608 754 q 723 638 722 640 z "},"β":{"ha":740,"x_min":92,"x_max":694,"o":"m 233 699 q 352 712 323 701 q 416 760 381 724 q 450 844 450 797 q 418 923 450 891 q 339 956 385 956 q 264 921 294 956 q 233 823 233 887 l 233 699 m 233 561 l 233 -232 l 92 -232 l 92 831 q 162 1023 92 948 q 339 1099 232 1099 q 520 1023 446 1099 q 595 844 595 948 q 435 637 595 718 q 597 571 530 636 q 694 328 694 467 q 594 86 694 186 q 353 -14 494 -14 q 279 3 307 -14 l 340 131 q 353 130 347 130 q 493 188 435 130 q 551 328 551 245 q 493 473 551 410 q 315 559 435 536 l 233 561 z "},"γ":{"ha":764,"x_min":31,"x_max":734,"o":"m 309 34 l 31 698 l 188 698 l 380 239 l 576 698 l 734 698 l 453 37 l 453 -233 l 309 -233 l 309 34 z "},"δ":{"ha":881,"x_min":55,"x_max":825,"o":"m 270 539 q 234 504 270 539 q 199 368 199 468 q 270 197 199 268 q 440 127 340 127 q 611 197 541 127 q 682 368 682 268 q 611 539 682 468 q 440 610 541 610 q 270 539 340 610 m 579 745 q 608 731 579 745 q 731 623 637 717 q 825 368 825 528 q 713 96 825 209 q 440 -18 601 -18 q 168 96 281 -18 q 55 368 55 209 q 168 641 55 528 q 367 751 267 740 l 93 1085 l 670 1085 l 670 944 l 399 944 q 579 745 520 774 z "},"ε":{"ha":631,"x_min":69,"x_max":559,"o":"m 448 534 q 331 565 397 565 q 236 550 266 565 q 205 514 205 535 q 234 448 205 468 q 273 425 263 427 l 465 425 l 465 285 l 272 285 q 234 262 262 283 q 205 203 205 242 q 237 154 205 178 q 330 131 269 131 q 454 176 399 134 l 559 96 q 331 -13 451 -13 q 146 45 224 -13 q 69 211 69 104 q 130 356 69 319 q 69 508 69 393 q 148 663 69 618 q 331 709 227 709 q 559 606 448 709 l 448 534 z "},"ζ":{"ha":648,"x_min":77,"x_max":663,"o":"m 663 1007 q 224 359 275 617 q 216 288 216 320 q 416 128 216 135 q 632 -53 632 121 q 420 -210 604 -203 l 420 -65 q 491 -40 490 -65 l 491 -38 q 419 -14 491 -14 q 77 278 77 -6 q 82 345 77 310 q 419 944 123 663 l 103 944 l 103 1085 l 663 1085 l 663 1007 z "},"η":{"ha":689,"x_min":69,"x_max":635,"o":"m 210 511 l 210 0 l 69 0 l 69 699 l 210 699 l 210 610 q 397 735 261 735 q 584 655 534 735 q 635 454 633 574 l 635 -234 l 495 -234 l 495 448 q 451 552 495 509 q 347 595 407 595 q 242 552 286 595 q 210 511 218 528 z "},"θ":{"ha":894,"x_min":62,"x_max":832,"o":"m 688 534 q 615 837 688 733 q 447 941 543 941 q 278 837 351 941 q 205 534 205 733 q 278 231 205 334 q 447 127 351 127 q 615 231 543 127 q 688 534 688 334 m 832 534 q 722 133 832 283 q 448 -18 611 -18 q 173 133 284 -18 q 62 534 62 283 q 173 935 62 784 q 448 1085 284 1085 q 722 935 611 1085 q 832 534 832 784 m 240 604 l 654 604 l 654 464 l 240 464 l 240 604 z "},"ι":{"ha":363,"x_min":111,"x_max":252,"o":"m 252 699 l 252 0 l 111 0 l 111 699 l 252 699 z "},"κ":{"ha":642,"x_min":77,"x_max":651,"o":"m 577 699 l 388 465 l 651 0 l 484 0 l 292 351 l 218 269 l 218 0 l 77 0 l 77 699 l 218 699 l 218 489 l 397 699 l 577 699 z "},"λ":{"ha":741,"x_min":39,"x_max":701,"o":"m 701 0 l 545 0 l 370 372 l 195 0 l 39 0 l 292 543 l 96 960 l 252 960 l 701 0 z "},"μ":{"ha":753,"x_min":102,"x_max":651,"o":"m 512 55 q 371 -4 451 -4 q 242 41 254 -4 l 242 -233 l 102 -233 l 102 698 l 242 698 l 242 210 q 267 178 248 197 q 371 136 311 136 q 475 180 431 136 q 512 237 504 208 l 512 698 l 651 698 l 651 1 l 512 1 l 512 55 z "},"ν":{"ha":806,"x_min":34,"x_max":771,"o":"m 367 0 l 34 698 l 193 698 l 402 245 l 612 698 l 771 698 l 437 0 l 367 0 z "},"ξ":{"ha":721,"x_min":62,"x_max":728,"o":"m 424 -4 q 343 3 424 -4 q 161 97 261 9 q 62 328 62 184 q 264 640 62 542 q 161 831 161 722 q 475 1085 174 1085 l 671 1085 l 671 949 l 496 949 q 312 835 312 949 l 312 830 q 343 754 312 784 q 433 701 374 724 l 666 700 l 666 559 l 440 562 q 263 473 321 536 q 205 328 205 410 q 262 199 205 248 q 524 127 320 150 q 728 -71 728 104 l 728 -90 q 511 -227 699 -208 l 511 -72 q 587 -61 587 -72 l 587 -59 q 424 -4 587 -17 z "},"ο":{"ha":894,"x_min":61,"x_max":833,"o":"m 447 755 q 720 642 607 755 q 833 368 833 528 q 720 95 833 208 q 447 -18 607 -18 q 174 95 288 -18 q 61 368 61 208 q 174 642 61 528 q 447 755 288 755 m 447 610 q 276 539 347 610 q 205 368 205 468 q 276 197 205 268 q 447 127 347 127 q 618 197 547 127 q 689 368 689 268 q 618 539 689 468 q 447 610 547 610 z "},"π":{"ha":881,"x_min":46,"x_max":834,"o":"m 369 557 l 369 0 l 229 0 l 229 557 l 46 557 l 46 699 l 834 699 l 834 557 l 652 557 l 652 0 l 512 0 l 512 557 l 369 557 z "},"ρ":{"ha":879,"x_min":71,"x_max":833,"o":"m 212 422 l 212 313 q 276 197 224 249 q 448 126 347 126 q 618 197 547 126 q 689 368 689 268 q 618 539 689 468 q 448 610 547 610 q 276 539 347 610 q 212 422 224 486 m 212 63 l 212 -234 l 71 -234 l 71 456 q 195 664 102 576 q 448 753 288 753 q 720 641 607 753 q 833 368 833 528 q 720 96 833 209 q 448 -18 607 -18 q 212 63 313 -18 z "},"ς":{"ha":734,"x_min":77,"x_max":681,"o":"m 418 -5 q 361 6 418 -5 q 191 100 304 18 q 77 328 77 182 q 174 571 77 467 q 503 698 278 687 l 681 698 l 681 560 l 536 560 q 290 482 361 555 q 220 328 220 410 q 291 203 220 250 q 518 121 363 156 q 673 -49 673 86 l 673 -68 q 455 -219 644 -201 l 455 -65 q 532 -40 530 -65 l 532 -38 q 418 -5 532 -27 z "},"σ":{"ha":941,"x_min":63,"x_max":887,"o":"m 278 539 q 242 504 278 539 q 207 368 207 468 q 278 197 207 268 q 448 127 349 127 q 619 197 549 127 q 690 368 690 268 q 619 539 690 468 q 448 610 549 610 q 278 539 349 610 m 798 557 q 833 368 833 519 q 721 96 833 209 q 448 -18 609 -18 q 176 96 290 -18 q 63 368 63 209 q 176 641 63 528 q 448 754 290 754 q 650 698 568 754 l 887 698 l 887 557 l 798 557 z "},"τ":{"ha":742,"x_min":47,"x_max":694,"o":"m 441 557 l 441 0 l 301 0 l 301 557 l 47 557 l 47 698 l 694 698 l 694 557 l 441 557 z "},"υ":{"ha":787,"x_min":102,"x_max":686,"o":"m 397 -9 q 184 72 264 -9 q 102 273 104 152 l 102 698 l 242 698 l 242 279 q 286 176 242 218 q 397 132 331 132 q 501 175 457 132 q 545 279 545 218 l 545 698 l 686 698 l 686 273 q 604 72 684 152 q 397 -9 523 -9 z "},"φ":{"ha":895,"x_min":62,"x_max":833,"o":"m 522 584 l 521 154 q 618 203 578 163 q 689 374 689 274 q 587 554 689 496 q 522 584 543 579 m 380 140 l 380 622 q 498 727 397 727 q 633 692 552 727 q 833 374 833 601 q 720 102 833 215 q 526 -6 622 3 l 526 -231 l 385 -231 l 385 -8 q 175 102 279 -3 q 62 374 62 215 q 175 647 62 534 q 279 725 212 685 l 327 588 q 277 545 290 558 q 206 374 206 474 q 277 203 206 274 q 380 140 328 153 z "},"χ":{"ha":842,"x_min":39,"x_max":802,"o":"m 420 130 l 201 -231 l 39 -231 l 339 263 l 74 698 l 237 698 l 420 397 l 604 698 l 766 698 l 502 263 l 802 -231 l 640 -231 l 420 130 z "},"ψ":{"ha":920,"x_min":69,"x_max":851,"o":"m 533 140 q 636 203 585 153 q 707 374 707 274 l 707 698 l 851 698 l 851 374 q 738 102 851 215 q 533 -7 635 -1 l 533 -224 l 388 -224 l 388 -7 q 182 102 285 -1 q 69 374 69 215 l 69 698 l 214 698 l 214 374 q 284 203 214 274 q 388 140 335 153 l 388 698 l 533 698 l 533 140 z "},"ω":{"ha":1055,"x_min":54,"x_max":1001,"o":"m 597 188 q 701 119 617 119 q 816 179 775 119 q 857 385 857 239 q 783 698 857 519 l 904 698 q 1001 385 1001 533 q 926 89 1001 195 q 709 -18 851 -18 q 528 43 565 -18 q 348 -18 491 -18 q 129 89 205 -18 q 54 385 54 195 q 157 698 54 536 l 279 698 q 197 385 197 530 q 239 179 197 239 q 354 119 280 119 q 458 189 423 119 l 458 555 l 597 555 l 597 188 z "},"ϊ":{"ha":363,"x_min":-44,"x_max":408,"o":"m 252 699 l 252 0 l 112 0 l 112 699 l 252 699 m 54 975 q 123 947 94 975 q 153 878 153 918 q 123 808 153 836 q 54 779 94 779 q -15 808 14 779 q -44 878 -44 836 q -15 947 -44 918 q 54 975 14 975 m 309 975 q 378 947 349 975 q 408 878 408 918 q 378 808 408 836 q 309 779 349 779 q 240 808 269 779 q 211 878 211 836 q 240 947 211 918 q 309 975 269 975 z "},"ϋ":{"ha":787,"x_min":102,"x_max":686,"o":"m 397 -9 q 184 72 264 -9 q 102 273 104 152 l 102 698 l 242 698 l 242 279 q 286 176 242 218 q 397 132 331 132 q 501 175 457 132 q 545 279 545 218 l 545 698 l 686 698 l 686 273 q 604 72 684 152 q 397 -9 523 -9 m 267 975 q 336 947 307 975 q 365 878 365 918 q 336 808 365 836 q 267 779 307 779 q 197 808 226 779 q 168 878 168 836 q 197 947 168 918 q 267 975 226 975 m 522 975 q 591 947 562 975 q 620 878 620 918 q 591 808 620 836 q 522 779 562 779 q 452 808 481 779 q 423 878 423 836 q 452 947 423 918 q 522 975 481 975 z "},"ό":{"ha":894,"x_min":61,"x_max":833,"o":"m 447 755 q 720 642 607 755 q 833 368 833 528 q 720 95 833 208 q 447 -18 607 -18 q 174 95 288 -18 q 61 368 61 208 q 174 642 61 528 q 447 755 288 755 m 447 610 q 276 539 347 610 q 205 368 205 468 q 276 197 205 268 q 447 127 347 127 q 618 197 547 127 q 689 368 689 268 q 618 539 689 468 q 447 610 547 610 m 488 954 l 659 954 l 475 765 l 341 765 l 488 954 z "},"ύ":{"ha":787,"x_min":102,"x_max":686,"o":"m 397 -9 q 184 72 264 -9 q 102 273 104 152 l 102 698 l 242 698 l 242 279 q 286 176 242 218 q 397 132 331 132 q 501 175 457 132 q 545 279 545 218 l 545 698 l 686 698 l 686 273 q 604 72 684 152 q 397 -9 523 -9 m 435 954 l 606 954 l 421 765 l 288 765 l 435 954 z "},"ώ":{"ha":1055,"x_min":54,"x_max":1001,"o":"m 597 188 q 701 119 617 119 q 816 179 775 119 q 857 385 857 239 q 783 698 857 519 l 904 698 q 1001 385 1001 533 q 926 89 1001 195 q 709 -18 851 -18 q 528 43 565 -18 q 348 -18 491 -18 q 129 89 205 -18 q 54 385 54 195 q 157 698 54 536 l 279 698 q 197 385 197 530 q 239 179 197 239 q 354 119 280 119 q 458 189 423 119 l 458 555 l 597 555 l 597 188 m 568 954 l 739 954 l 555 765 l 421 765 l 568 954 z "},"Ё":{"ha":771,"x_min":102,"x_max":686,"o":"m 686 1085 l 686 945 l 242 945 l 242 613 l 686 613 l 686 473 l 242 473 l 242 141 l 686 141 l 686 0 l 102 0 l 102 1085 l 686 1085 m 267 1362 q 336 1334 307 1362 q 365 1265 365 1305 q 336 1195 365 1223 q 267 1166 307 1166 q 197 1195 226 1166 q 168 1265 168 1223 q 197 1334 168 1305 q 267 1362 226 1362 m 522 1362 q 591 1334 562 1362 q 620 1265 620 1305 q 591 1195 620 1223 q 522 1166 562 1166 q 452 1195 481 1166 q 423 1265 423 1223 q 452 1334 423 1305 q 522 1362 481 1362 z "},"Ђ":{"ha":1116,"x_min":46,"x_max":1055,"o":"m 439 599 q 676 718 537 718 q 947 622 838 718 q 1055 336 1055 540 q 947 45 1055 134 q 856 -18 918 19 l 760 86 q 844 142 825 125 q 914 330 913 202 q 844 517 913 456 q 670 581 771 581 q 504 517 569 581 q 439 392 445 462 l 439 0 l 300 0 l 300 944 l 46 944 l 46 1085 l 693 1085 l 693 944 l 439 944 l 439 599 z "},"Ѓ":{"ha":648,"x_min":86,"x_max":608,"o":"m 608 1085 l 608 944 l 227 944 l 227 0 l 86 0 l 86 1085 l 608 1085 m 389 1341 l 559 1341 l 375 1152 l 241 1152 l 389 1341 z "},"Є":{"ha":1208,"x_min":75,"x_max":1177,"o":"m 833 614 l 833 473 l 219 473 q 338 251 225 363 q 630 130 459 130 q 922 251 801 130 q 1028 422 987 316 l 1177 422 q 1023 151 1119 247 q 630 -12 860 -12 q 237 151 400 -12 q 75 544 75 313 q 237 937 75 774 q 630 1099 400 1099 q 1023 937 860 1099 q 1143 771 1071 888 l 977 771 q 922 836 946 812 q 630 958 801 958 q 338 836 459 958 q 219 614 225 724 l 833 614 z "},"Ѕ":{"ha":747,"x_min":34,"x_max":712,"o":"m 378 557 q 191 667 262 595 q 119 844 119 739 q 194 1023 119 948 q 374 1097 268 1097 q 553 1023 478 1097 q 623 894 595 983 l 496 844 q 454 925 473 906 q 374 958 420 958 q 293 925 326 958 q 260 844 260 892 q 293 764 260 797 q 396 696 330 727 q 612 566 524 655 q 712 328 712 468 q 613 88 712 187 q 374 -12 513 -12 q 134 88 233 -12 q 34 307 55 168 l 170 357 q 233 186 183 237 q 374 128 292 128 q 514 186 456 128 q 572 328 572 245 q 514 468 572 410 q 378 557 458 524 z "},"І":{"ha":372,"x_min":115,"x_max":256,"o":"m 256 1085 l 256 0 l 115 0 l 115 1085 l 256 1085 z "},"Ї":{"ha":372,"x_min":-40,"x_max":412,"o":"m 256 1085 l 256 0 l 116 0 l 116 1085 l 256 1085 m 58 1362 q 127 1334 98 1362 q 157 1265 157 1305 q 127 1195 157 1223 q 58 1166 98 1166 q -11 1195 18 1166 q -40 1265 -40 1223 q -11 1334 -40 1305 q 58 1362 18 1362 m 313 1362 q 382 1334 353 1362 q 412 1265 412 1305 q 382 1195 412 1223 q 313 1166 353 1166 q 244 1195 273 1166 q 215 1265 215 1223 q 244 1334 215 1305 q 313 1362 273 1362 z "},"Ј":{"ha":635,"x_min":85,"x_max":530,"o":"m 530 233 q 468 58 530 120 q 309 -9 402 -9 q 150 57 216 -9 q 85 233 85 123 l 196 277 q 244 150 215 174 q 302 132 266 132 l 305 132 q 369 157 344 132 q 389 239 389 178 l 389 1085 l 530 1085 l 530 233 z "},"Љ":{"ha":1498,"x_min":39,"x_max":1438,"o":"m 730 0 l 730 944 l 302 944 l 302 219 q 238 61 302 125 q 39 -3 174 -3 l 39 138 q 139 161 115 138 q 161 227 161 183 l 161 1085 l 871 1085 l 871 612 l 1157 612 q 1359 522 1279 609 q 1438 310 1438 434 q 1359 91 1438 178 q 1157 0 1280 3 l 730 0 m 871 471 l 871 141 l 1152 141 q 1254 191 1210 141 q 1298 309 1298 241 q 1254 421 1298 371 q 1152 471 1210 471 l 871 471 z "},"Њ":{"ha":1414,"x_min":77,"x_max":1360,"o":"m 646 0 l 646 472 l 218 472 l 218 0 l 77 0 l 77 1085 l 218 1085 l 218 613 l 646 613 l 646 1085 l 787 1085 l 787 612 l 1079 612 q 1281 522 1201 609 q 1360 310 1360 434 q 1281 91 1360 178 q 1079 0 1201 3 l 646 0 m 787 471 l 787 141 l 1074 141 q 1176 191 1132 141 q 1220 309 1220 241 q 1176 421 1220 371 q 1074 471 1132 471 l 787 471 z "},"Ћ":{"ha":1116,"x_min":40,"x_max":1039,"o":"m 433 591 q 670 718 531 718 q 937 620 833 718 q 1039 319 1039 521 l 1039 0 l 893 0 l 894 325 q 829 522 894 456 q 673 584 766 584 l 665 584 q 498 517 564 581 q 433 391 439 462 l 433 0 l 294 0 l 294 944 l 40 944 l 40 1085 l 687 1085 l 687 944 l 433 944 l 433 591 z "},"Ќ":{"ha":818,"x_min":-4,"x_max":859,"o":"m 143 1341 l 314 1341 l 130 1152 l -4 1152 l 143 1341 z "},"Ў":{"ha":941,"x_min":-31,"x_max":973,"o":"m 973 1085 q 332 50 440 134 q 190 -7 258 -7 q 66 40 143 -7 l 134 161 q 210 129 193 129 q 223 131 217 129 q 340 282 246 138 l 415 403 l -31 1085 l 134 1085 l 493 537 l 813 1085 l 973 1085 m 412 1345 q 429 1293 419 1303 q 472 1276 447 1276 q 514 1294 496 1276 q 531 1345 524 1303 l 660 1345 q 606 1222 645 1262 q 472 1166 551 1166 q 338 1222 393 1166 q 283 1345 295 1265 l 412 1345 z "},"Џ":{"ha":892,"x_min":69,"x_max":823,"o":"m 374 0 l 69 0 l 69 1085 l 210 1085 l 210 142 l 683 142 l 683 1085 l 823 1085 l 823 0 l 513 0 l 513 -234 l 374 -234 l 374 0 z "},"А":{"ha":933,"x_min":34,"x_max":899,"o":"m 559 524 l 467 779 l 374 524 l 559 524 m 505 1085 l 899 0 l 750 0 l 610 384 l 323 384 l 184 0 l 34 0 l 429 1085 l 505 1085 z "},"Б":{"ha":823,"x_min":77,"x_max":781,"o":"m 77 1085 l 599 1085 l 599 944 l 218 944 l 218 613 l 499 613 q 701 523 622 610 q 781 311 781 435 q 701 90 781 180 q 499 0 622 0 l 77 0 l 77 1085 m 218 472 l 218 142 l 494 142 q 597 193 553 142 q 641 311 641 243 q 597 422 641 372 q 494 472 553 472 l 218 472 z "},"В":{"ha":764,"x_min":102,"x_max":703,"o":"m 321 1085 q 483 1018 416 1085 q 550 857 550 951 q 452 737 550 760 q 613 637 523 727 q 703 387 703 547 q 591 112 703 228 q 380 1 486 3 l 380 0 l 102 0 l 102 1085 l 321 1085 m 242 629 l 242 141 l 380 141 l 380 143 q 488 213 423 146 q 559 387 559 286 q 488 558 559 487 q 317 629 417 629 l 242 629 m 242 945 l 242 773 l 334 773 q 387 797 365 776 q 412 857 412 819 q 386 920 412 895 q 321 945 361 945 l 242 945 z "},"Г":{"ha":648,"x_min":86,"x_max":608,"o":"m 608 1085 l 608 944 l 227 944 l 227 0 l 86 0 l 86 1085 l 608 1085 z "},"Д":{"ha":918,"x_min":16,"x_max":849,"o":"m 652 146 l 652 944 l 385 944 q 395 768 395 889 q 228 146 395 326 l 652 146 m 794 146 l 849 146 l 849 -234 l 709 -234 l 709 0 l 156 0 l 156 -234 l 16 -234 l 16 146 l 45 146 q 255 768 255 387 q 208 1085 255 881 l 793 1085 l 794 146 z "},"Е":{"ha":771,"x_min":102,"x_max":686,"o":"m 686 1085 l 686 945 l 242 945 l 242 613 l 686 613 l 686 473 l 242 473 l 242 141 l 686 141 l 686 0 l 102 0 l 102 1085 l 686 1085 z "},"Ж":{"ha":1358,"x_min":-11,"x_max":1369,"o":"m 750 699 l 1019 1085 l 1191 1085 l 902 667 l 1369 0 l 1197 0 l 814 547 l 750 454 l 750 0 l 608 0 l 608 454 l 543 547 l 161 0 l -11 0 l 456 667 l 168 1085 l 338 1085 l 608 699 l 608 1085 l 750 1085 l 750 699 z "},"З":{"ha":748,"x_min":69,"x_max":693,"o":"m 509 429 q 488 452 509 429 q 392 475 468 475 l 114 475 l 114 616 l 392 616 q 509 663 468 616 q 549 789 549 709 q 496 910 549 866 q 368 954 442 954 q 69 830 236 954 l 69 989 q 354 1090 204 1090 q 595 1010 497 1090 q 693 798 693 931 q 616 550 693 597 q 693 295 693 511 q 595 81 693 161 q 354 1 497 1 q 69 107 201 1 l 69 310 q 354 144 214 144 q 490 186 430 144 q 549 301 549 227 q 509 429 549 382 z "},"И":{"ha":1045,"x_min":83,"x_max":961,"o":"m 961 1085 l 961 0 l 820 0 l 820 821 l 234 0 l 83 0 l 83 1085 l 224 1085 l 224 243 l 825 1085 l 961 1085 z "},"Й":{"ha":1045,"x_min":83,"x_max":961,"o":"m 961 1085 l 961 0 l 820 0 l 820 821 l 234 0 l 83 0 l 83 1085 l 224 1085 l 224 243 l 825 1085 l 961 1085 m 463 1345 q 480 1293 470 1303 q 523 1276 498 1276 q 565 1294 547 1276 q 582 1345 575 1303 l 711 1345 q 656 1222 696 1262 q 523 1166 602 1166 q 389 1222 444 1166 q 334 1345 346 1265 l 463 1345 z "},"К":{"ha":818,"x_min":102,"x_max":758,"o":"m 242 512 l 242 0 l 102 0 l 102 1085 l 242 1085 l 242 743 l 498 1085 l 676 1085 l 343 639 l 758 0 l 587 0 l 252 524 l 242 512 z "},"Л":{"ha":943,"x_min":39,"x_max":871,"o":"m 302 219 q 238 61 302 125 q 39 -3 174 -3 l 39 138 q 139 161 115 138 q 161 227 161 183 l 161 1085 l 871 1085 l 871 0 l 730 0 l 730 944 l 302 944 l 302 219 z "},"М":{"ha":1229,"x_min":135,"x_max":1094,"o":"m 263 1085 l 615 477 l 966 1085 l 1094 1085 l 1094 0 l 954 0 l 954 784 l 615 198 l 275 784 l 275 0 l 135 0 l 135 1085 l 263 1085 z "},"Н":{"ha":819,"x_min":102,"x_max":718,"o":"m 242 449 l 242 0 l 102 0 l 102 1085 l 242 1085 l 242 589 l 577 589 l 577 1085 l 718 1085 l 718 0 l 577 0 l 577 449 l 242 449 z "},"О":{"ha":1281,"x_min":85,"x_max":1196,"o":"m 640 1099 q 1033 937 870 1099 q 1196 544 1196 774 q 1033 151 1196 314 q 640 -12 870 -12 q 248 151 410 -12 q 85 544 85 314 q 248 937 85 774 q 640 1099 410 1099 m 640 958 q 348 837 469 958 q 227 544 227 715 q 348 251 227 372 q 640 130 469 130 q 933 251 812 130 q 1054 544 1054 372 q 933 837 1054 715 q 640 958 812 958 z "},"П":{"ha":854,"x_min":72,"x_max":782,"o":"m 213 944 l 213 0 l 72 0 l 72 1085 l 782 1085 l 782 0 l 641 0 l 641 944 l 213 944 z "},"Р":{"ha":777,"x_min":102,"x_max":739,"o":"m 242 347 l 242 0 l 102 0 l 102 1085 l 410 1085 q 631 977 541 1067 q 739 717 739 869 q 631 455 739 564 q 370 347 523 347 l 242 347 m 242 944 l 242 488 l 370 488 q 531 555 464 488 q 597 717 597 622 q 531 878 597 811 q 370 944 464 944 l 242 944 z "},"С":{"ha":1114,"x_min":85,"x_max":1046,"o":"m 941 258 l 1046 164 q 639 -12 854 -12 q 247 151 409 -12 q 85 543 85 313 q 247 935 85 772 q 639 1097 409 1097 q 1046 922 854 1097 l 941 826 q 639 955 796 955 q 348 834 469 955 q 227 543 227 713 q 348 250 227 371 q 639 130 469 130 q 941 258 796 130 z "},"Т":{"ha":715,"x_min":34,"x_max":681,"o":"m 428 945 l 428 0 l 287 0 l 287 945 l 34 945 l 34 1085 l 681 1085 l 681 945 l 428 945 z "},"У":{"ha":941,"x_min":-31,"x_max":973,"o":"m 973 1085 q 332 50 440 134 q 190 -7 258 -7 q 66 40 143 -7 l 134 161 q 210 129 193 129 q 223 131 217 129 q 340 282 246 138 l 415 403 l -31 1085 l 134 1085 l 493 537 l 813 1085 l 973 1085 z "},"Ф":{"ha":1210,"x_min":54,"x_max":1156,"o":"m 534 294 l 534 774 q 298 701 398 770 q 198 534 198 629 q 298 368 198 439 q 534 294 398 298 m 675 151 l 675 0 l 534 0 l 534 151 q 208 258 345 155 q 54 535 54 371 q 208 811 54 699 q 534 918 345 913 l 534 1085 l 675 1085 l 675 918 q 1003 811 864 913 q 1156 535 1156 699 q 1003 258 1156 371 q 675 151 865 155 m 675 774 l 675 294 q 911 368 811 298 q 1012 534 1012 439 q 911 701 1012 629 q 675 774 812 770 z "},"Х":{"ha":913,"x_min":34,"x_max":879,"o":"m 34 0 l 375 592 l 91 1085 l 252 1085 l 456 732 l 661 1085 l 822 1085 l 536 592 l 879 0 l 718 0 l 456 452 l 195 0 l 34 0 z "},"Ц":{"ha":900,"x_min":77,"x_max":884,"o":"m 744 0 l 77 0 l 77 1085 l 218 1085 l 218 141 l 690 141 l 690 1085 l 831 1085 l 831 145 l 884 145 l 884 -234 l 744 -234 l 744 0 z "},"Ч":{"ha":871,"x_min":62,"x_max":808,"o":"m 668 475 q 431 368 570 368 q 166 467 269 368 q 62 767 62 565 l 62 1085 l 208 1085 l 208 761 q 273 564 208 629 q 428 502 335 502 l 438 502 q 604 568 538 505 q 668 694 663 624 l 668 1085 l 808 1085 l 808 0 l 668 0 l 668 475 z "},"Ш":{"ha":1238,"x_min":77,"x_max":1162,"o":"m 77 1085 l 218 1085 l 218 142 l 549 142 l 549 1085 l 690 1085 l 690 142 l 1021 142 l 1021 1085 l 1162 1085 l 1162 0 l 77 0 l 77 1085 z "},"Щ":{"ha":1235,"x_min":77,"x_max":1215,"o":"m 1074 0 l 77 0 l 77 1085 l 218 1085 l 218 142 l 549 142 l 549 1085 l 690 1085 l 690 142 l 1021 142 l 1021 1085 l 1162 1085 l 1162 146 l 1215 146 l 1215 -234 l 1074 -234 l 1074 0 z "},"Ъ":{"ha":1035,"x_min":16,"x_max":962,"o":"m 256 944 l 16 944 l 16 1085 l 396 1085 l 396 612 l 681 612 q 883 522 804 609 q 962 310 962 434 q 883 91 962 178 q 681 0 804 3 l 256 0 l 256 944 m 396 471 l 396 141 l 675 141 q 778 191 734 141 q 822 309 822 241 q 778 421 822 371 q 675 471 734 471 l 396 471 z "},"Ы":{"ha":1083,"x_min":71,"x_max":1013,"o":"m 1013 1085 l 1013 0 l 872 0 l 872 1085 l 1013 1085 m 71 0 l 71 1085 l 212 1085 l 212 612 l 503 612 q 705 522 625 609 q 785 310 785 434 q 705 91 785 178 q 503 0 625 3 l 71 0 m 212 471 l 212 141 l 498 141 q 600 191 556 141 q 644 309 644 241 q 600 421 644 371 q 498 471 556 471 l 212 471 z "},"Ь":{"ha":823,"x_min":71,"x_max":785,"o":"m 71 0 l 71 1085 l 212 1085 l 212 612 l 503 612 q 705 522 625 609 q 785 310 785 434 q 705 91 785 178 q 503 0 625 3 l 71 0 m 212 471 l 212 141 l 498 141 q 600 191 556 141 q 644 309 644 241 q 600 421 644 371 q 498 471 556 471 l 212 471 z "},"Э":{"ha":1219,"x_min":47,"x_max":1149,"o":"m 1005 614 q 886 836 999 724 q 594 958 765 958 q 302 836 423 958 q 247 771 278 812 l 79 771 q 201 937 154 889 q 594 1099 364 1099 q 987 937 824 1099 q 1149 544 1149 774 q 987 151 1149 313 q 594 -12 824 -12 q 201 151 364 -12 q 47 422 104 247 l 195 422 q 302 251 236 316 q 594 130 423 130 q 886 251 765 130 q 1005 473 999 363 l 391 473 l 391 614 l 1005 614 z "},"Ю":{"ha":1538,"x_min":77,"x_max":1491,"o":"m 935 958 q 642 836 764 958 q 521 544 521 715 q 642 251 521 372 q 935 130 764 130 q 1227 251 1106 130 q 1349 544 1349 372 q 1227 836 1349 715 q 935 958 1106 958 m 382 472 l 218 472 l 218 0 l 77 0 l 77 1085 l 218 1085 l 218 613 l 382 613 q 543 937 390 785 q 935 1099 705 1099 q 1328 937 1165 1099 q 1491 544 1491 774 q 1328 151 1491 313 q 935 -12 1165 -12 q 543 151 705 -12 q 382 472 391 302 z "},"Я":{"ha":794,"x_min":62,"x_max":717,"o":"m 448 943 q 288 877 355 943 q 221 717 221 811 q 288 555 221 622 q 448 488 355 488 l 576 488 l 576 943 l 448 943 m 232 0 l 62 0 l 302 371 q 188 456 263 380 q 80 717 80 564 q 188 977 80 869 q 410 1085 278 1067 l 717 1085 l 717 0 l 576 0 l 576 347 l 453 347 l 232 0 z "},"а":{"ha":950,"x_min":85,"x_max":848,"o":"m 707 316 l 707 419 q 642 538 694 485 q 471 609 570 609 q 299 538 370 609 q 229 368 229 468 q 299 197 229 268 q 471 126 370 126 q 642 197 570 126 q 707 316 694 250 m 707 649 l 707 698 l 848 698 l 848 -1 l 707 -1 l 707 87 q 471 -18 605 -18 q 198 95 311 -18 q 85 368 85 208 q 198 641 85 528 q 471 753 311 753 q 707 649 605 753 z "},"б":{"ha":928,"x_min":75,"x_max":873,"o":"m 246 368 q 317 197 246 268 q 488 127 387 127 q 658 197 587 127 q 729 368 729 268 q 658 539 729 468 q 488 610 587 610 q 317 539 387 610 q 246 368 246 468 m 223 648 q 488 754 334 754 q 760 641 648 754 q 873 368 873 528 q 761 96 873 209 q 488 -18 648 -18 q 216 96 328 -18 q 95 323 115 196 q 75 555 75 451 q 177 906 75 768 q 479 1080 306 1080 q 552 1073 515 1080 q 686 1056 635 1056 q 810 1087 796 1056 l 810 971 q 690 917 774 917 q 545 936 634 917 q 490 942 516 942 q 286 815 371 942 q 223 648 238 745 z "},"в":{"ha":629,"x_min":77,"x_max":575,"o":"m 217 423 l 307 423 l 307 422 q 413 447 392 426 q 434 492 434 468 q 413 535 434 515 q 307 560 392 556 l 307 559 l 217 559 l 217 423 m 217 277 l 217 141 l 307 141 l 307 140 q 413 165 392 144 q 434 209 434 186 q 413 253 434 232 q 307 278 392 274 l 307 277 l 217 277 m 77 698 l 394 698 q 513 648 451 698 q 575 492 575 598 l 575 491 q 465 349 575 391 q 575 210 575 309 l 575 209 q 513 51 575 102 q 394 0 451 0 l 77 0 l 77 698 z "},"г":{"ha":524,"x_min":77,"x_max":470,"o":"m 217 557 l 217 0 l 77 0 l 77 698 l 470 698 l 470 557 l 217 557 z "},"д":{"ha":762,"x_min":39,"x_max":724,"o":"m 674 146 l 724 146 l 724 -234 l 583 -234 l 583 0 l 179 0 l 179 -234 l 39 -234 l 39 146 l 113 146 q 109 140 109 141 l 109 140 q 224 498 224 256 q 220 595 224 549 q 200 698 216 622 l 674 698 l 674 146 m 294 141 l 534 141 l 534 557 l 366 557 l 366 498 q 294 141 366 231 z "},"е":{"ha":856,"x_min":61,"x_max":795,"o":"m 319 158 q 447 127 354 127 q 618 197 547 127 q 654 239 627 207 l 795 189 q 720 95 743 118 q 447 -18 607 -18 q 174 95 288 -18 q 61 368 61 208 q 174 642 61 528 q 447 755 288 755 q 687 672 584 755 q 720 642 704 658 q 759 599 727 635 l 688 528 l 319 158 m 553 592 q 447 610 530 610 q 276 539 347 610 q 205 368 205 469 q 224 262 205 286 l 553 592 z "},"ж":{"ha":989,"x_min":-9,"x_max":998,"o":"m 565 490 l 744 698 l 924 698 l 735 465 l 998 0 l 831 0 l 639 351 l 565 269 l 565 0 l 423 0 l 423 269 l 349 351 l 157 0 l -9 0 l 253 465 l 64 698 l 244 698 l 423 490 l 423 698 l 565 698 l 565 490 z "},"з":{"ha":631,"x_min":45,"x_max":576,"o":"m 457 351 q 576 210 576 321 q 497 60 576 120 q 313 -1 418 -1 q 127 60 206 -1 q 48 210 48 120 l 48 258 l 193 258 l 193 210 q 226 155 193 180 q 313 130 259 130 q 399 155 366 130 q 432 210 432 180 q 402 263 432 240 q 359 298 380 279 l 201 298 l 201 411 l 376 411 q 401 440 387 429 q 432 493 432 463 q 399 548 432 523 q 313 573 366 573 q 223 547 259 573 q 188 464 196 526 l 45 464 q 130 646 56 589 q 313 703 206 703 q 497 643 418 703 q 576 493 576 583 q 457 351 576 382 z "},"и":{"ha":731,"x_min":69,"x_max":662,"o":"m 69 698 l 210 698 l 210 262 l 539 698 l 662 698 l 662 0 l 522 0 l 522 441 l 210 29 l 210 0 l 69 0 l 69 698 z "},"й":{"ha":731,"x_min":69,"x_max":662,"o":"m 69 698 l 210 698 l 210 262 l 539 698 l 662 698 l 662 0 l 522 0 l 522 441 l 210 29 l 210 0 l 69 0 l 69 698 m 306 958 q 323 906 313 916 q 366 888 341 888 q 408 907 391 888 q 425 958 418 916 l 554 958 q 500 835 539 875 q 366 779 445 779 q 232 835 287 779 q 178 958 189 878 l 306 958 z "},"к":{"ha":642,"x_min":77,"x_max":651,"o":"m 577 698 l 388 465 l 651 0 l 484 0 l 292 351 l 218 269 l 218 0 l 77 0 l 77 698 l 218 698 l 218 489 l 397 698 l 577 698 z "},"л":{"ha":789,"x_min":39,"x_max":720,"o":"m 720 698 l 720 0 l 580 0 l 580 557 l 254 557 l 254 184 q 39 -4 254 14 l 39 135 q 115 182 115 144 l 115 698 l 720 698 z "},"м":{"ha":787,"x_min":62,"x_max":726,"o":"m 394 233 l 595 698 l 726 698 l 726 0 l 585 0 l 585 315 l 449 0 l 338 0 l 202 315 l 202 0 l 62 0 l 62 698 l 192 698 l 394 233 z "},"н":{"ha":728,"x_min":62,"x_max":667,"o":"m 667 0 l 528 0 l 528 304 l 202 304 l 202 0 l 62 0 l 62 698 l 202 698 l 202 446 l 528 446 l 528 698 l 667 698 l 667 0 z "},"о":{"ha":894,"x_min":61,"x_max":833,"o":"m 447 755 q 720 642 607 755 q 833 368 833 528 q 720 95 833 208 q 447 -18 607 -18 q 174 95 288 -18 q 61 368 61 208 q 174 642 61 528 q 447 755 288 755 m 447 610 q 276 539 347 610 q 205 368 205 468 q 276 197 205 268 q 447 127 347 127 q 618 197 547 127 q 689 368 689 268 q 618 539 689 468 q 447 610 547 610 z "},"п":{"ha":744,"x_min":69,"x_max":675,"o":"m 210 557 l 210 0 l 69 0 l 69 698 l 675 698 l 675 0 l 535 0 l 535 557 l 210 557 z "},"р":{"ha":932,"x_min":102,"x_max":865,"o":"m 242 422 l 242 313 q 308 197 255 249 q 479 126 378 126 q 650 197 579 126 q 721 368 721 268 q 650 539 721 468 q 479 610 579 610 q 308 539 378 610 q 242 422 255 487 m 242 87 l 242 -235 l 102 -235 l 102 698 l 242 698 l 242 635 q 479 754 344 754 q 752 641 639 754 q 865 368 865 528 q 752 95 865 208 q 479 -18 639 -18 q 242 87 344 -18 z "},"с":{"ha":856,"x_min":61,"x_max":795,"o":"m 654 239 l 795 189 q 720 95 743 118 q 447 -18 607 -18 q 174 95 288 -18 q 61 368 61 208 q 174 642 61 528 q 447 755 288 755 q 720 642 607 755 q 795 549 743 618 l 654 497 q 618 540 627 530 q 447 610 547 610 q 276 539 347 610 q 205 368 205 469 q 276 198 205 269 q 447 127 347 127 q 618 197 547 127 q 654 239 627 207 z "},"т":{"ha":770,"x_min":62,"x_max":709,"o":"m 455 557 l 455 0 l 315 0 l 315 557 l 62 557 l 62 698 l 709 698 l 709 557 l 455 557 z "},"у":{"ha":772,"x_min":51,"x_max":720,"o":"m 273 -235 l 125 -235 l 311 155 l 51 698 l 209 698 l 386 316 l 563 698 l 720 698 l 273 -235 z "},"ф":{"ha":1486,"x_min":54,"x_max":1432,"o":"m 813 433 l 813 302 q 876 197 827 245 q 1046 126 946 126 q 1217 197 1146 126 q 1288 368 1288 268 q 1217 539 1288 468 q 1046 610 1146 610 q 876 539 946 610 q 813 433 827 490 m 672 302 l 672 433 q 610 539 659 490 q 439 610 538 610 q 268 539 339 610 q 197 368 197 468 q 268 197 197 268 q 439 126 339 126 q 610 197 538 126 q 672 302 659 245 m 672 675 l 672 960 l 813 960 l 813 675 q 1046 753 914 753 q 1319 641 1206 753 q 1432 368 1432 528 q 1319 96 1432 209 q 1046 -18 1206 -18 q 813 61 913 -18 l 813 -224 l 672 -224 l 672 61 q 439 -18 572 -18 q 166 96 279 -18 q 54 368 54 209 q 166 641 54 528 q 439 753 279 753 q 672 675 571 753 z "},"х":{"ha":699,"x_min":51,"x_max":648,"o":"m 614 698 l 430 379 l 648 0 l 486 0 l 350 235 l 214 0 l 51 0 l 270 379 l 86 698 l 248 698 l 350 524 l 451 698 l 614 698 z "},"ц":{"ha":764,"x_min":77,"x_max":732,"o":"m 592 0 l 77 0 l 77 699 l 217 699 l 217 141 l 543 141 l 543 699 l 682 699 l 682 146 l 732 146 l 732 -234 l 592 -234 l 592 0 z "},"ч":{"ha":842,"x_min":54,"x_max":772,"o":"m 631 331 q 409 222 541 222 q 150 321 245 222 q 54 621 54 420 l 54 698 l 201 698 l 199 614 q 259 416 199 482 q 406 355 315 355 l 416 355 q 573 420 515 359 q 631 547 627 476 l 631 698 l 772 698 l 772 0 l 631 0 l 631 331 z "},"ш":{"ha":941,"x_min":69,"x_max":871,"o":"m 69 698 l 210 698 l 210 142 l 399 142 l 399 698 l 541 698 l 541 142 l 730 142 l 730 698 l 871 698 l 871 0 l 69 0 l 69 698 z "},"щ":{"ha":970,"x_min":84,"x_max":939,"o":"m 799 0 l 84 0 l 84 698 l 225 698 l 225 142 l 414 142 l 414 698 l 555 698 l 555 142 l 745 142 l 745 698 l 886 698 l 886 146 l 939 146 l 939 -234 l 799 -234 l 799 0 z "},"ъ":{"ha":842,"x_min":23,"x_max":781,"o":"m 182 0 l 182 557 l 23 557 l 23 698 l 321 698 l 321 446 l 585 446 l 585 444 q 709 382 641 441 q 781 223 781 319 l 781 222 q 709 64 781 127 q 585 0 641 5 l 182 0 m 321 141 l 498 141 l 498 140 q 615 168 585 144 q 640 222 640 188 q 615 279 640 258 q 498 307 586 302 l 498 305 l 321 305 l 321 141 z "},"ы":{"ha":1001,"x_min":77,"x_max":924,"o":"m 217 141 l 465 141 l 465 140 q 581 168 551 144 q 605 222 605 188 q 581 279 605 258 q 465 307 551 302 l 465 305 l 217 305 l 217 141 m 924 0 l 784 0 l 784 698 l 924 698 l 924 0 m 77 0 l 77 698 l 217 698 l 217 446 l 551 446 l 551 444 q 674 382 607 441 q 746 223 746 319 l 746 222 q 674 64 746 127 q 551 0 607 0 l 77 0 z "},"ь":{"ha":729,"x_min":77,"x_max":675,"o":"m 217 141 l 393 141 l 393 140 q 510 168 481 144 q 534 222 534 188 q 510 279 534 258 q 393 307 481 302 l 393 305 l 217 305 l 217 141 m 77 0 l 77 698 l 217 698 l 217 446 l 480 446 l 480 444 q 604 382 536 441 q 675 223 675 319 l 675 222 q 604 64 675 127 q 480 0 536 0 l 77 0 z "},"э":{"ha":873,"x_min":55,"x_max":816,"o":"m 672 357 l 286 357 l 286 499 l 642 499 q 602 539 638 502 q 431 610 531 610 q 260 539 331 610 q 203 450 231 510 l 55 450 q 157 641 97 580 q 431 754 271 754 q 703 641 589 754 q 816 368 816 528 q 703 96 816 209 q 431 -18 590 -18 q 158 96 270 -18 q 64 201 137 116 l 256 201 q 431 127 336 127 q 602 197 531 127 q 672 357 669 264 z "},"ю":{"ha":1170,"x_min":77,"x_max":1116,"o":"m 559 539 q 524 504 559 539 q 488 368 488 468 q 559 197 488 268 q 730 127 630 127 q 901 197 830 127 q 972 368 972 268 q 901 539 972 468 q 730 610 830 610 q 559 539 630 610 m 348 304 l 217 304 l 217 0 l 77 0 l 77 698 l 217 698 l 217 446 l 350 446 q 458 641 359 543 q 730 754 571 754 q 1003 641 890 754 q 1116 368 1116 528 q 1003 96 1116 209 q 730 -18 890 -18 q 458 96 571 -18 q 348 304 353 200 z "},"я":{"ha":659,"x_min":54,"x_max":581,"o":"m 441 557 l 335 557 l 335 559 q 220 531 248 555 q 195 476 195 511 q 220 421 195 441 q 335 393 248 397 l 335 393 l 441 393 l 441 557 m 581 698 l 581 0 l 441 0 l 441 253 l 359 253 l 357 248 l 321 171 l 242 0 l 87 0 l 209 262 q 125 317 184 264 q 54 475 54 380 l 54 476 q 125 634 54 572 q 249 698 193 694 l 581 698 z "},"ё":{"ha":856,"x_min":61,"x_max":795,"o":"m 319 158 q 447 127 354 127 q 618 197 547 127 q 654 239 627 207 l 795 189 q 720 95 743 118 q 447 -18 607 -18 q 174 95 288 -18 q 61 368 61 208 q 174 642 61 528 q 447 755 288 755 q 687 672 584 755 q 720 642 704 658 q 759 599 727 635 l 688 528 l 319 158 m 553 592 q 447 610 530 610 q 276 539 347 610 q 205 368 205 469 q 224 262 205 286 l 553 592 m 300 975 q 370 947 340 975 q 399 878 399 918 q 370 808 399 836 q 300 779 340 779 q 231 808 260 779 q 202 878 202 836 q 231 947 202 918 q 300 975 260 975 m 555 975 q 625 947 595 975 q 654 878 654 918 q 625 808 654 836 q 555 779 595 779 q 486 808 515 779 q 457 878 457 836 q 486 947 457 918 q 555 975 515 975 z "},"ђ":{"ha":723,"x_min":16,"x_max":646,"o":"m 505 448 q 460 552 505 509 q 356 595 416 595 q 252 552 296 595 q 227 522 233 533 l 227 0 l 86 0 l 86 802 l 16 802 l 16 943 l 86 943 l 86 1085 l 227 1085 l 227 943 l 365 943 l 365 802 l 227 802 l 227 656 q 376 735 273 735 q 563 655 482 735 q 646 454 643 574 l 646 7 q 582 -151 646 -87 q 382 -216 517 -216 l 382 -75 q 482 -52 458 -75 q 505 14 505 -29 l 505 448 z "},"ѓ":{"ha":524,"x_min":77,"x_max":486,"o":"m 217 557 l 217 0 l 77 0 l 77 698 l 470 698 l 470 557 l 217 557 m 315 954 l 486 954 l 301 765 l 168 765 l 315 954 z "},"є":{"ha":873,"x_min":55,"x_max":816,"o":"m 229 499 l 585 499 l 585 357 l 199 357 q 270 197 202 264 q 440 127 340 127 q 616 201 535 127 l 806 201 q 713 96 734 116 q 440 -18 601 -18 q 168 96 281 -18 q 55 368 55 209 q 168 641 55 528 q 440 754 281 754 q 713 641 601 754 q 816 450 774 580 l 668 450 q 612 539 640 510 q 440 610 541 610 q 269 539 340 610 q 229 499 233 502 z "},"ѕ":{"ha":598,"x_min":84,"x_max":527,"o":"m 224 194 q 243 150 230 163 q 302 125 268 125 q 362 150 337 125 q 387 210 387 174 q 362 269 387 245 q 290 321 345 286 q 182 395 214 363 q 126 528 126 450 q 182 663 126 607 q 316 719 237 719 q 447 666 395 719 q 494 583 484 629 l 358 543 q 349 566 353 560 q 316 578 336 578 q 281 563 296 578 q 267 528 267 549 q 281 494 267 508 q 339 452 294 481 q 461 368 423 406 q 527 210 527 302 q 461 51 527 117 q 302 -16 396 -16 q 144 51 210 -16 q 84 164 98 96 l 224 194 z "},"і":{"ha":367,"x_min":85,"x_max":282,"o":"m 254 698 l 254 0 l 113 0 l 113 698 l 254 698 m 183 985 q 253 956 224 985 q 282 886 282 928 q 253 817 282 845 q 183 788 224 788 q 114 817 143 788 q 85 886 85 845 q 114 956 85 928 q 183 985 143 985 z "},"ї":{"ha":372,"x_min":-40,"x_max":412,"o":"m 256 699 l 256 0 l 116 0 l 116 699 l 256 699 m 58 975 q 127 947 98 975 q 157 878 157 918 q 127 808 157 836 q 58 779 98 779 q -11 808 18 779 q -40 878 -40 836 q -11 947 -40 918 q 58 975 18 975 m 313 975 q 382 947 353 975 q 412 878 412 918 q 382 808 412 836 q 313 779 353 779 q 244 808 273 779 q 215 878 215 836 q 244 947 215 918 q 313 975 273 975 z "},"ј":{"ha":380,"x_min":33,"x_max":278,"o":"m 33 -7 q 109 41 109 1 l 109 698 l 250 698 l 250 42 q 33 -146 250 -130 l 33 -7 m 179 985 q 249 956 220 985 q 278 886 278 928 q 249 817 278 845 q 179 788 220 788 q 110 817 139 788 q 81 886 81 845 q 110 956 81 928 q 179 985 139 985 z "},"љ":{"ha":1235,"x_min":40,"x_max":1181,"o":"m 723 141 l 899 141 l 899 139 q 1016 168 987 144 q 1040 222 1040 188 q 1016 279 1040 258 q 899 306 987 302 l 899 305 l 723 305 l 723 141 m 582 557 l 256 557 l 256 184 q 40 -4 256 14 l 40 135 q 116 182 116 144 l 116 698 l 722 698 l 722 447 l 986 446 l 986 444 q 1109 382 1042 441 q 1181 223 1181 319 l 1181 222 q 1109 64 1181 127 q 986 0 1042 5 l 582 0 l 582 557 z "},"њ":{"ha":1187,"x_min":69,"x_max":1133,"o":"m 675 141 l 852 141 l 852 140 q 968 168 939 144 q 993 222 993 188 q 968 279 993 258 q 852 307 939 302 l 852 305 l 675 305 l 675 141 m 535 0 l 535 304 l 210 304 l 210 0 l 69 0 l 69 698 l 210 698 l 210 446 l 535 446 l 535 698 l 675 698 l 675 446 l 938 446 l 938 444 q 1062 382 994 441 q 1133 223 1133 319 l 1133 222 q 1062 64 1133 127 q 938 0 994 5 l 535 0 z "},"ћ":{"ha":723,"x_min":16,"x_max":646,"o":"m 86 943 l 86 1085 l 227 1085 l 227 943 l 365 943 l 365 802 l 227 802 l 227 656 q 376 735 259 735 q 563 655 482 735 q 646 454 643 574 l 646 0 l 505 0 l 505 448 q 460 552 505 509 q 356 595 416 595 q 252 552 296 595 q 227 522 233 533 l 227 0 l 86 0 l 86 802 l 16 802 l 16 943 l 86 943 z "},"ќ":{"ha":642,"x_min":77,"x_max":651,"o":"m 577 698 l 388 465 l 651 0 l 484 0 l 292 351 l 218 269 l 218 0 l 77 0 l 77 698 l 218 698 l 218 489 l 397 698 l 577 698 m 405 954 l 576 954 l 391 765 l 258 765 l 405 954 z "},"ў":{"ha":772,"x_min":51,"x_max":720,"o":"m 273 -235 l 125 -235 l 311 155 l 51 698 l 209 698 l 386 316 l 563 698 l 720 698 l 273 -235 m 326 958 q 343 906 333 916 q 386 888 361 888 q 428 907 410 888 q 445 958 438 916 l 574 958 q 519 835 559 875 q 386 779 465 779 q 252 835 307 779 q 197 958 209 878 l 326 958 z "},"џ":{"ha":744,"x_min":69,"x_max":675,"o":"m 302 0 l 69 0 l 69 698 l 210 698 l 210 141 l 535 141 l 535 698 l 675 698 l 675 0 l 442 0 l 442 -234 l 302 -234 l 302 0 z "},"Ґ":{"ha":686,"x_min":86,"x_max":648,"o":"m 608 945 l 608 944 l 227 944 l 227 0 l 86 0 l 86 1085 l 508 1085 l 508 1255 l 648 1255 l 648 945 l 608 945 z "},"ґ":{"ha":547,"x_min":77,"x_max":509,"o":"m 217 557 l 217 0 l 77 0 l 77 698 l 368 698 l 368 867 l 509 867 l 509 557 l 217 557 z "},"Ẁ":{"ha":1143,"x_min":85,"x_max":1059,"o":"m 501 203 l 501 1085 l 642 1085 l 642 203 q 665 174 648 191 q 769 132 709 132 q 873 175 829 132 q 918 279 918 218 l 918 1085 l 1059 1085 l 1059 273 q 974 77 1056 159 q 769 -9 889 -9 q 572 75 650 -9 q 374 -9 493 -9 q 170 77 254 -9 q 85 273 87 158 l 85 1085 l 225 1085 l 225 279 q 269 175 225 218 q 374 132 313 132 q 478 174 435 132 q 501 203 495 191 m 677 1152 l 544 1152 l 359 1341 l 530 1341 l 677 1152 z "},"ẁ":{"ha":962,"x_min":102,"x_max":859,"o":"m 410 207 l 410 698 l 550 698 l 550 218 q 575 156 550 181 q 635 132 600 132 q 718 235 718 132 l 718 698 l 859 698 l 859 209 q 793 57 856 119 q 635 -9 728 -9 q 481 56 541 -9 q 326 -9 419 -9 q 167 57 233 -9 q 102 209 104 119 l 102 698 l 242 698 l 242 235 q 326 132 242 132 q 386 156 361 132 q 410 207 407 177 m 587 765 l 453 765 l 269 954 l 439 954 l 587 765 z "},"Ẃ":{"ha":1143,"x_min":85,"x_max":1059,"o":"m 501 203 l 501 1085 l 642 1085 l 642 203 q 665 174 648 191 q 769 132 709 132 q 873 175 829 132 q 918 279 918 218 l 918 1085 l 1059 1085 l 1059 273 q 974 77 1056 159 q 769 -9 889 -9 q 572 75 650 -9 q 374 -9 493 -9 q 170 77 254 -9 q 85 273 87 158 l 85 1085 l 225 1085 l 225 279 q 269 175 225 218 q 374 132 313 132 q 478 174 435 132 q 501 203 495 191 m 613 1341 l 784 1341 l 600 1152 l 466 1152 l 613 1341 z "},"ẃ":{"ha":962,"x_min":102,"x_max":859,"o":"m 410 207 l 410 698 l 550 698 l 550 218 q 575 156 550 181 q 635 132 600 132 q 718 235 718 132 l 718 698 l 859 698 l 859 209 q 793 57 856 119 q 635 -9 728 -9 q 481 56 541 -9 q 326 -9 419 -9 q 167 57 233 -9 q 102 209 104 119 l 102 698 l 242 698 l 242 235 q 326 132 242 132 q 386 156 361 132 q 410 207 407 177 m 522 954 l 692 954 l 508 765 l 374 765 l 522 954 z "},"Ẅ":{"ha":1143,"x_min":85,"x_max":1059,"o":"m 501 203 l 501 1085 l 642 1085 l 642 203 q 665 174 648 191 q 769 132 709 132 q 873 175 829 132 q 918 279 918 218 l 918 1085 l 1059 1085 l 1059 273 q 974 77 1056 159 q 769 -9 889 -9 q 572 75 650 -9 q 374 -9 493 -9 q 170 77 254 -9 q 85 273 87 158 l 85 1085 l 225 1085 l 225 279 q 269 175 225 218 q 374 132 313 132 q 478 174 435 132 q 501 203 495 191 m 444 1362 q 513 1334 484 1362 q 543 1265 543 1305 q 513 1195 543 1223 q 444 1166 484 1166 q 375 1195 404 1166 q 346 1265 346 1223 q 375 1334 346 1305 q 444 1362 404 1362 m 699 1362 q 768 1334 739 1362 q 798 1265 798 1305 q 768 1195 798 1223 q 699 1166 739 1166 q 630 1195 659 1166 q 601 1265 601 1223 q 630 1334 601 1305 q 699 1362 659 1362 z "},"ẅ":{"ha":962,"x_min":102,"x_max":859,"o":"m 410 207 l 410 698 l 550 698 l 550 218 q 575 156 550 181 q 635 132 600 132 q 718 235 718 132 l 718 698 l 859 698 l 859 209 q 793 57 856 119 q 635 -9 728 -9 q 481 56 541 -9 q 326 -9 419 -9 q 167 57 233 -9 q 102 209 104 119 l 102 698 l 242 698 l 242 235 q 326 132 242 132 q 386 156 361 132 q 410 207 407 177 m 353 975 q 422 947 393 975 q 452 878 452 918 q 422 808 452 836 q 353 779 393 779 q 284 808 313 779 q 255 878 255 836 q 284 947 255 918 q 353 975 313 975 m 608 975 q 677 947 648 975 q 707 878 707 918 q 677 808 707 836 q 608 779 648 779 q 539 808 568 779 q 510 878 510 836 q 539 947 510 918 q 608 975 568 975 z "},"Ỳ":{"ha":959,"x_min":34,"x_max":925,"o":"m 409 435 l 34 1085 l 195 1085 l 479 594 l 763 1085 l 925 1085 l 549 435 l 549 0 l 409 0 l 409 435 m 585 1152 l 452 1152 l 267 1341 l 438 1341 l 585 1152 z "},"ỳ":{"ha":772,"x_min":51,"x_max":720,"o":"m 273 -235 l 125 -235 l 311 155 l 51 698 l 209 698 l 386 316 l 563 698 l 720 698 l 273 -235 m 492 765 l 358 765 l 174 954 l 345 954 l 492 765 z "},"–":{"ha":634,"x_min":34,"x_max":600,"o":"m 34 483 l 600 483 l 600 342 l 34 342 l 34 483 z "},"—":{"ha":1032,"x_min":34,"x_max":998,"o":"m 34 483 l 998 483 l 998 342 l 34 342 l 34 483 z "},"―":{"ha":2058,"x_min":-51,"x_max":1354,"o":"m -51 483 l 1354 483 l 1354 342 l -51 342 l -51 483 z "},"‗":{"ha":743,"x_min":17,"x_max":726,"o":"m 17 -75 l 726 -75 l 726 -216 l 17 -216 l 17 -75 m 17 66 l 726 66 l 726 -75 l 17 -75 l 17 66 z "},"‘":{"ha":278,"x_min":34,"x_max":243,"o":"m 202 971 q 231 901 231 943 q 202 832 231 861 q 132 804 173 804 q 63 832 92 804 q 34 901 34 861 q 42 943 34 923 l 115 1092 l 243 1092 l 202 971 z "},"’":{"ha":278,"x_min":34,"x_max":243,"o":"m 75 924 q 47 994 47 953 q 76 1063 47 1035 q 145 1092 104 1092 q 214 1063 185 1092 q 243 994 243 1035 q 235 952 243 972 l 162 804 l 34 804 l 75 924 z "},"‚":{"ha":278,"x_min":34,"x_max":243,"o":"m 75 16 q 47 85 47 44 q 76 155 47 126 q 145 183 104 183 q 214 155 185 183 q 243 85 243 126 q 235 43 243 64 l 162 -105 l 34 -105 l 75 16 z "},"‛":{"ha":278,"x_min":34,"x_max":243,"o":"m 243 804 l 115 804 l 42 952 q 34 994 34 972 q 63 1063 34 1035 q 132 1092 92 1092 q 202 1063 173 1092 q 231 994 231 1035 q 202 924 231 953 l 243 804 z "},"“":{"ha":505,"x_min":35,"x_max":470,"o":"m 203 971 q 231 901 231 943 q 202 832 231 861 q 133 804 174 804 q 64 832 93 804 q 35 901 35 861 q 43 943 35 923 l 116 1092 l 244 1092 l 203 971 m 429 971 q 457 901 457 943 q 428 832 457 861 q 359 804 399 804 q 290 832 319 804 q 260 901 260 861 q 269 943 260 923 l 342 1092 l 470 1092 l 429 971 z "},"”":{"ha":505,"x_min":35,"x_max":470,"o":"m 302 924 q 273 994 273 953 q 302 1063 273 1035 q 372 1092 331 1092 q 441 1063 412 1092 q 470 994 470 1035 q 462 952 470 972 l 389 804 l 260 804 l 302 924 m 76 924 q 47 994 47 953 q 76 1063 47 1035 q 146 1092 105 1092 q 215 1063 186 1092 q 244 994 244 1035 q 236 952 244 972 l 163 804 l 35 804 l 76 924 z "},"„":{"ha":504,"x_min":34,"x_max":469,"o":"m 75 -23 q 47 47 47 5 q 76 116 47 87 q 145 144 104 144 q 214 116 185 144 q 243 47 243 87 q 235 5 243 25 l 162 -144 l 34 -144 l 75 -23 m 301 -23 q 273 47 273 5 q 301 116 273 87 q 371 144 330 144 q 440 116 411 144 q 469 47 469 87 q 461 5 469 25 l 388 -144 l 260 -144 l 301 -23 z "},"†":{"ha":569,"x_min":68,"x_max":501,"o":"m 224 1082 l 224 1219 l 345 1219 l 345 1082 l 501 1082 l 501 962 l 345 962 l 345 109 l 224 109 l 224 962 l 68 962 l 68 1082 l 224 1082 z "},"‡":{"ha":569,"x_min":68,"x_max":501,"o":"m 224 962 l 68 962 l 68 1082 l 224 1082 l 224 1219 l 345 1219 l 345 1082 l 501 1082 l 501 962 l 345 962 l 345 743 l 501 743 l 501 623 l 345 623 l 345 109 l 224 109 l 224 623 l 68 623 l 68 743 l 224 743 l 224 962 z "},"•":{"ha":583,"x_min":154,"x_max":429,"o":"m 292 644 q 389 604 348 644 q 429 507 429 564 q 389 410 429 450 q 292 370 348 370 q 195 410 235 370 q 154 507 154 450 q 195 604 154 564 q 292 644 235 644 z "},"…":{"ha":1389,"x_min":68,"x_max":1191,"o":"m 166 188 q 236 159 207 188 q 264 90 264 131 q 236 20 264 48 q 166 -9 207 -9 q 97 20 126 -9 q 68 90 68 48 q 97 159 68 131 q 166 188 126 188 m 629 188 q 699 159 670 188 q 728 90 728 131 q 699 20 728 48 q 629 -9 670 -9 q 560 20 589 -9 q 531 90 531 48 q 560 159 531 131 q 629 188 589 188 m 1093 188 q 1162 159 1133 188 q 1191 90 1191 131 q 1162 20 1191 48 q 1093 -9 1133 -9 q 1023 20 1053 -9 q 994 90 994 48 q 1023 159 994 131 q 1093 188 1053 188 z "},"‰":{"ha":1201,"x_min":54,"x_max":1147,"o":"m 241 705 q 207 691 221 705 q 193 658 193 677 q 207 624 193 637 q 241 610 221 610 q 275 624 260 610 q 289 658 289 637 q 275 691 289 677 q 241 705 260 705 m 960 330 q 926 316 940 330 q 912 283 912 302 q 926 249 912 262 q 960 235 940 235 q 994 249 979 235 q 1008 283 1008 262 q 994 316 1008 302 q 960 330 979 330 m 616 330 q 582 316 596 330 q 568 283 568 302 q 582 249 568 262 q 616 235 596 235 q 650 249 635 235 q 664 283 664 262 q 650 316 664 302 q 616 330 635 330 m 798 875 l 175 -14 l 60 66 l 682 954 l 798 875 m 788 208 q 749 151 774 176 q 616 96 694 96 q 484 150 538 96 q 429 283 429 205 q 484 415 429 360 q 616 469 538 469 q 749 415 694 469 q 788 357 774 389 q 828 415 802 389 q 960 469 882 469 q 1092 415 1038 469 q 1147 283 1147 360 q 1092 150 1147 205 q 960 96 1038 96 q 828 151 882 96 q 788 208 802 176 m 373 790 q 400 762 373 790 q 427 658 427 735 q 373 526 427 581 q 241 471 318 471 q 109 526 163 471 q 54 658 54 581 q 109 790 54 735 q 241 844 163 844 q 373 790 318 844 z "},"′":{"ha":311,"x_min":85,"x_max":225,"o":"m 85 624 l 85 1083 l 225 1083 l 225 624 l 85 624 z "},"″":{"ha":423,"x_min":37,"x_max":385,"o":"m 37 624 l 37 1083 l 178 1083 l 178 624 l 37 624 m 245 624 l 245 1083 l 385 1083 l 385 624 l 245 624 z "},"‹":{"ha":505,"x_min":68,"x_max":436,"o":"m 68 332 l 436 726 l 436 537 l 244 332 l 436 125 l 436 -64 l 68 332 z "},"›":{"ha":505,"x_min":68,"x_max":436,"o":"m 68 -64 l 68 125 l 260 332 l 68 537 l 68 726 l 436 332 l 68 -64 z "},"‼":{"ha":734,"x_min":85,"x_max":648,"o":"m 183 188 q 253 159 224 188 q 281 90 281 131 q 253 20 281 48 q 183 -9 224 -9 q 114 20 143 -9 q 85 90 85 48 q 114 159 85 131 q 183 188 143 188 m 252 1085 l 252 309 l 112 309 l 112 1085 l 252 1085 m 550 188 q 620 159 591 188 q 648 90 648 131 q 620 20 648 48 q 550 -9 591 -9 q 481 20 510 -9 q 452 90 452 48 q 481 159 452 131 q 550 188 510 188 m 619 1085 l 619 309 l 479 309 l 479 1085 l 619 1085 z "},"‾":{"ha":743,"x_min":17,"x_max":726,"o":"m 17 1217 l 726 1217 l 726 1076 l 17 1076 l 17 1217 z "},"⁄":{"ha":125,"x_min":-272,"x_max":465,"o":"m 465 947 l -156 58 l -272 138 l 351 1027 l 465 947 z "},"ⁿ":{"ha":770,"x_min":102,"x_max":668,"o":"m 242 860 l 242 350 l 102 350 l 102 1048 l 242 1048 l 242 973 q 406 1085 287 1085 q 586 1005 505 1085 q 668 803 666 924 l 668 350 l 528 350 l 528 798 q 484 902 528 859 q 379 945 439 945 q 275 902 319 945 q 242 860 250 878 z "},"₣":{"ha":725,"x_min":34,"x_max":657,"o":"m 135 377 l 135 1085 l 657 1085 l 657 945 l 276 945 l 276 613 l 657 613 l 657 473 l 276 473 l 276 377 l 456 377 l 456 237 l 276 237 l 276 0 l 135 0 l 135 237 l 34 237 l 34 377 l 135 377 z "},"₤":{"ha":823,"x_min":68,"x_max":755,"o":"m 390 345 q 307 106 390 191 q 428 142 362 142 q 465 139 446 142 q 602 127 551 127 q 729 148 646 127 l 755 9 q 602 -14 661 -14 q 479 1 541 -14 q 380 13 422 13 q 321 5 345 13 q 170 -62 258 -18 l 68 59 q 191 174 174 153 q 250 347 249 243 l 102 347 l 102 486 l 219 486 q 191 542 218 488 q 108 772 117 661 q 106 800 106 786 q 174 983 106 902 q 369 1084 249 1072 q 395 1084 382 1084 q 578 1017 497 1084 q 680 823 669 940 q 682 791 682 806 q 650 667 682 743 l 519 711 q 540 797 540 772 q 539 811 540 804 q 488 909 534 870 q 396 943 447 943 q 382 942 389 943 q 283 891 322 937 q 250 800 250 850 q 250 785 250 792 q 294 642 256 722 q 366 486 350 552 l 498 486 l 498 347 l 390 345 z "},"₧":{"ha":1372,"x_min":102,"x_max":1301,"o":"m 228 944 l 228 488 l 343 488 q 488 555 428 488 q 548 717 548 622 q 488 878 548 811 q 343 944 428 944 l 228 944 m 644 557 q 578 456 620 503 q 343 347 481 347 l 228 347 l 228 0 l 102 0 l 102 1085 l 379 1085 q 578 977 496 1067 q 675 717 675 869 q 674 698 675 707 l 703 698 l 703 960 l 843 960 l 843 698 l 968 698 l 968 675 q 1090 719 1020 719 q 1221 666 1168 719 q 1268 583 1258 629 l 1132 543 q 1122 566 1127 560 q 1090 578 1110 578 q 1055 563 1069 578 q 1040 528 1040 549 q 1055 494 1040 508 q 1113 452 1067 481 q 1235 368 1197 406 q 1301 210 1301 302 q 1235 51 1301 117 q 1076 -16 1170 -16 q 918 51 983 -16 q 858 164 872 96 l 998 194 q 1017 150 1004 163 q 1076 125 1042 125 q 1136 150 1111 125 q 1160 210 1160 174 q 1136 269 1160 245 q 1063 321 1119 286 q 956 395 987 363 q 900 528 900 450 q 902 557 900 543 l 843 557 l 843 0 l 703 0 l 703 557 l 644 557 z "},"€":{"ha":1022,"x_min":68,"x_max":954,"o":"m 182 659 l 182 700 q 295 972 182 859 q 568 1085 408 1085 q 869 942 728 1085 l 768 841 q 568 941 668 941 q 396 870 467 941 q 326 700 326 800 l 326 659 l 746 659 l 718 531 l 326 531 l 326 493 l 720 493 l 692 366 l 326 368 q 396 197 326 268 q 568 127 467 127 q 739 198 668 127 q 808 326 783 242 l 954 326 q 840 96 918 174 q 568 -17 728 -17 q 295 96 408 -17 q 182 368 182 209 l 182 366 l 68 366 l 96 493 l 182 493 l 182 531 l 94 531 l 122 659 l 182 659 z "},"℅":{"ha":1331,"x_min":61,"x_max":1270,"o":"m 513 701 l 637 656 q 573 573 591 591 q 361 486 485 486 q 149 573 237 486 q 61 785 61 661 q 149 997 61 909 q 361 1085 237 1085 q 573 997 485 1085 q 638 916 591 979 l 513 869 q 481 907 488 899 q 361 956 431 956 q 240 906 290 956 q 191 785 191 856 q 240 665 191 715 q 361 614 290 614 q 481 665 431 614 q 513 701 488 671 m 1041 947 l 420 58 l 304 138 l 926 1027 l 1041 947 m 970 587 q 1182 499 1094 587 q 1270 287 1270 411 q 1182 75 1270 163 q 970 -13 1094 -13 q 758 75 846 -13 q 670 287 670 163 q 758 499 670 411 q 970 587 846 587 m 970 458 q 849 408 899 458 q 799 287 799 357 q 849 166 799 216 q 970 117 899 117 q 1090 166 1040 117 q 1141 287 1141 216 q 1090 408 1141 357 q 970 458 1040 458 z "},"№":{"ha":1466,"x_min":85,"x_max":1433,"o":"m 1326 981 l 1433 981 l 1433 502 l 905 502 l 905 608 l 1326 608 l 1326 981 m 1056 792 q 1123 816 1101 794 q 1147 873 1147 840 q 1123 931 1147 907 q 1056 955 1101 953 q 989 931 1010 953 q 965 873 965 907 q 989 816 965 840 q 1056 792 1010 794 m 1046 659 q 895 722 957 659 q 832 873 832 785 q 895 1025 832 962 q 1046 1088 957 1088 l 1065 1088 q 1217 1025 1154 1088 q 1279 873 1279 962 q 1217 722 1279 785 q 1065 659 1154 659 l 1046 659 m 85 1085 l 213 1085 l 661 311 l 661 1085 l 802 1085 l 802 0 l 679 0 l 225 784 l 225 0 l 85 0 l 85 1085 z "},"™":{"ha":851,"x_min":34,"x_max":817,"o":"m 330 968 l 268 968 l 268 591 l 148 591 l 148 968 l 34 968 l 34 1085 l 430 1085 l 574 865 l 718 1085 l 817 1085 l 817 591 l 698 591 l 698 838 l 574 647 l 449 839 l 449 591 l 330 591 l 330 968 z "},"Ω":{"ha":1168,"x_min":100,"x_max":1068,"o":"m 323 140 q 239 209 288 162 q 100 528 100 338 q 231 932 100 779 q 579 1085 362 1085 l 589 1085 q 937 932 806 1085 q 1068 528 1068 779 q 930 209 1068 338 q 846 140 880 162 l 1004 140 l 1004 0 l 653 0 l 653 132 q 834 266 741 168 q 927 528 927 365 q 834 840 927 726 q 585 954 741 954 l 583 954 q 334 840 427 954 q 241 528 241 726 q 334 266 241 365 q 515 132 427 168 l 515 0 l 163 0 l 163 140 l 323 140 z "},"←":{"ha":1244,"x_min":77,"x_max":1167,"o":"m 285 747 l 285 608 l 1167 608 l 1167 467 l 285 467 l 285 326 l 77 537 l 285 747 z "},"↑":{"ha":882,"x_min":231,"x_max":651,"o":"m 651 884 l 511 884 l 511 2 l 370 2 l 370 884 l 231 884 l 440 1093 l 651 884 z "},"→":{"ha":1244,"x_min":77,"x_max":1167,"o":"m 1167 537 l 959 326 l 959 467 l 77 467 l 77 608 l 959 608 l 959 747 l 1167 537 z "},"↓":{"ha":882,"x_min":231,"x_max":651,"o":"m 440 -15 l 231 193 l 370 193 l 370 1076 l 511 1076 l 511 193 l 651 193 l 440 -15 z "},"↔":{"ha":1262,"x_min":77,"x_max":1185,"o":"m 976 608 l 976 747 l 1185 537 l 976 326 l 976 467 l 285 467 l 285 326 l 77 537 l 285 747 l 285 608 l 976 608 z "},"↕":{"ha":1415,"x_min":498,"x_max":918,"o":"m 779 193 l 918 193 l 709 -15 l 498 193 l 638 193 l 638 884 l 498 884 l 709 1093 l 918 884 l 779 884 l 779 193 z "},"↨":{"ha":1415,"x_min":498,"x_max":919,"o":"m 707 1090 l 559 1090 l 559 1232 l 859 1232 l 859 1090 l 712 1090 l 919 884 l 780 884 l 780 193 l 919 193 l 713 -11 l 859 -11 l 859 -151 l 559 -151 l 559 -11 l 705 -11 l 498 193 l 639 193 l 639 884 l 498 884 l 707 1090 z "},"∂":{"ha":709,"x_min":39,"x_max":671,"o":"m 516 472 q 183 253 257 439 q 177 207 177 228 q 283 138 177 138 q 516 472 452 155 m 531 610 q 533 686 533 635 q 435 943 533 924 q 391 946 413 946 q 181 787 290 946 l 111 928 q 386 1076 233 1076 q 489 1063 435 1076 q 671 702 671 1016 q 657 507 671 616 q 283 7 580 14 q 39 203 39 7 q 49 284 39 239 q 531 610 137 562 z "},"∆":{"ha":899,"x_min":-23,"x_max":899,"o":"m 37 1 l -23 1 l 372 1085 l 500 1085 l 899 0 l 37 0 l 37 1 m 698 141 l 436 850 l 177 141 l 698 141 z "},"∏":{"ha":925,"x_min":72,"x_max":852,"o":"m 213 944 l 213 -233 l 72 -233 l 72 1085 l 852 1085 l 852 -233 l 711 -233 l 711 944 l 213 944 z "},"∑":{"ha":858,"x_min":39,"x_max":788,"o":"m 788 1085 l 788 944 l 256 944 l 498 426 l 256 -92 l 788 -92 l 788 -233 l 39 -233 l 341 426 l 39 1085 l 788 1085 z "},"−":{"ha":754,"x_min":85,"x_max":669,"o":"m 85 483 l 669 483 l 669 342 l 85 342 l 85 483 z "},"√":{"ha":1088,"x_min":39,"x_max":1088,"o":"m 595 307 l 938 1173 l 1088 1173 l 600 -91 l 179 439 l 119 412 l 39 512 l 298 658 l 595 307 z "},"∞":{"ha":850,"x_min":55,"x_max":793,"o":"m 665 552 q 634 626 665 595 q 560 656 604 656 q 481 626 515 656 q 435 536 447 594 q 481 445 447 477 q 560 414 515 414 q 634 445 604 414 q 665 552 665 475 m 793 552 q 725 354 793 422 q 560 286 656 286 q 359 416 416 286 q 235 349 308 349 q 108 401 161 349 q 55 543 55 453 q 107 671 55 618 q 235 724 160 724 q 359 654 309 724 q 560 785 423 785 q 725 716 656 785 q 793 552 793 648 m 183 536 q 198 492 183 507 q 235 477 213 477 q 275 494 256 477 q 300 536 293 511 q 275 577 293 559 q 235 594 256 594 q 198 579 213 594 q 183 536 183 564 z "},"∫":{"ha":440,"x_min":24,"x_max":415,"o":"m 290 -8 q 24 -227 281 -227 l 24 -90 q 150 -7 145 -90 l 150 940 q 415 1158 167 1158 l 415 1029 q 290 937 299 1026 l 290 -8 z "},"≈":{"ha":901,"x_min":85,"x_max":816,"o":"m 184 558 l 85 574 q 103 686 88 649 q 227 803 140 774 q 275 810 250 810 q 470 743 352 810 q 620 680 578 680 l 626 680 q 665 718 654 688 q 671 800 671 734 l 816 777 q 795 665 810 702 q 714 568 768 601 l 816 552 q 795 440 810 477 q 672 323 759 353 q 624 316 650 316 q 429 384 547 316 q 279 446 320 446 q 273 446 275 446 q 234 408 245 437 q 226 327 227 391 l 85 349 q 103 461 88 424 q 184 558 130 526 m 671 549 q 624 541 649 541 q 429 609 547 541 q 279 671 320 671 q 273 671 275 671 q 234 633 245 663 q 227 578 229 620 l 227 578 q 275 585 250 585 q 470 517 352 585 q 620 455 578 455 l 626 455 q 665 492 654 463 q 671 549 670 505 z "},"≠":{"ha":859,"x_min":76,"x_max":783,"o":"m 368 442 l 137 442 l 137 583 l 495 583 l 605 705 l 783 705 l 673 583 l 722 583 l 722 442 l 545 442 l 492 382 l 722 382 l 722 242 l 364 242 l 254 120 l 76 120 l 186 242 l 137 242 l 137 382 l 313 382 l 368 442 z "},"≡":{"ha":754,"x_min":85,"x_max":669,"o":"m 85 483 l 669 483 l 669 342 l 85 342 l 85 483 m 85 289 l 669 289 l 669 149 l 85 149 l 85 289 m 85 670 l 669 670 l 669 530 l 85 530 l 85 670 z "},"≤":{"ha":1020,"x_min":68,"x_max":951,"o":"m 764 141 l 68 395 l 951 716 l 951 566 l 479 395 l 951 222 l 951 0 l 180 0 l 180 141 l 764 141 z "},"≥":{"ha":1020,"x_min":68,"x_max":951,"o":"m 840 141 l 840 0 l 68 0 l 68 222 l 541 395 l 68 566 l 68 716 l 951 395 l 256 141 l 840 141 z "},"⌠":{"ha":498,"x_min":154,"x_max":420,"o":"m 294 -227 l 154 -227 l 154 940 q 419 1158 172 1158 l 420 1029 q 294 937 304 1026 l 294 -227 z "},"⌡":{"ha":497,"x_min":77,"x_max":343,"o":"m 203 1158 l 343 1158 l 343 -8 q 77 -227 326 -227 l 77 -98 q 203 -5 194 -94 l 203 1158 z "},"":{"ha":709,"x_min":61,"x_max":607,"o":"m 509 916 q 578 888 549 916 q 607 819 607 859 q 578 749 607 777 q 509 720 549 720 q 439 749 468 720 q 410 819 410 777 q 439 888 410 859 q 509 916 468 916 m 438 558 l 264 558 l 264 0 l 123 0 l 123 558 l 61 558 l 61 699 l 123 699 l 123 824 q 189 972 128 911 q 337 1032 254 1032 q 465 1003 379 1032 l 418 870 q 342 896 359 896 q 288 871 315 896 q 264 819 265 850 l 264 699 l 578 699 l 578 42 q 362 -146 578 -128 l 362 -6 q 438 41 438 3 l 438 558 z "},"":{"ha":793,"x_min":61,"x_max":760,"o":"m 566 604 q 760 715 644 710 l 760 570 q 637 520 682 566 q 566 359 569 453 l 566 0 l 426 0 l 426 558 l 264 558 l 264 0 l 123 0 l 123 558 l 61 558 l 61 699 l 123 699 l 123 824 q 189 972 128 911 q 337 1032 254 1032 q 465 1003 379 1032 l 418 870 q 342 896 359 896 q 288 871 315 896 q 264 819 265 850 l 264 699 l 566 699 l 566 604 z "},"":{"ha":677,"x_min":14,"x_max":644,"o":"m 216 699 l 378 699 l 378 893 q 326 896 370 896 q 240 871 267 896 q 216 819 218 850 l 216 699 m 76 699 l 76 824 q 142 972 81 911 q 321 1032 206 1032 q 519 981 422 1032 l 519 699 l 644 699 l 644 558 l 519 558 l 519 0 l 378 0 l 378 558 l 216 558 l 216 0 l 76 0 l 76 558 l 14 558 l 14 699 l 76 699 z "},"":{"ha":1074,"x_min":61,"x_max":1022,"o":"m 421 558 l 264 558 l 264 0 l 123 0 l 123 558 l 61 558 l 61 699 l 123 699 l 123 824 q 189 972 128 911 q 337 1032 254 1032 q 465 1003 379 1032 l 418 870 q 342 896 359 896 q 288 871 315 896 q 264 819 265 850 l 264 699 l 511 699 l 688 317 l 865 699 l 1022 699 l 646 -90 l 646 -88 l 576 -234 l 428 -234 l 614 155 l 421 558 z "},"":{"ha":1167,"x_min":61,"x_max":1106,"o":"m 264 558 l 264 0 l 123 0 l 123 558 l 61 558 l 61 699 l 123 699 l 123 824 q 189 972 128 911 q 337 1032 254 1032 q 465 1003 379 1032 l 418 870 q 342 896 359 896 q 288 871 315 896 q 264 819 265 850 l 264 699 l 450 699 l 450 824 q 517 972 455 911 q 664 1032 581 1032 q 791 1003 706 1032 l 745 870 q 670 896 686 896 q 615 871 642 896 q 591 819 593 850 l 591 699 l 840 699 l 840 960 l 981 960 l 981 699 l 1106 699 l 1106 558 l 981 558 l 981 0 l 840 0 l 840 558 l 591 558 l 591 0 l 450 0 l 450 558 l 264 558 z "},"":{"ha":1400,"x_min":61,"x_max":1350,"o":"m 264 558 l 264 0 l 123 0 l 123 558 l 61 558 l 61 699 l 123 699 l 123 824 q 189 972 128 911 q 337 1032 254 1032 q 465 1003 379 1032 l 418 870 q 342 896 359 896 q 288 871 315 896 q 264 819 265 850 l 264 699 l 450 699 l 450 824 q 517 972 455 911 q 664 1032 581 1032 q 791 1003 706 1032 l 745 870 q 670 896 686 896 q 615 871 642 896 q 591 819 593 850 l 591 699 l 839 699 l 1016 317 l 1192 699 l 1350 699 l 973 -90 l 973 -88 l 903 -234 l 755 -234 l 941 155 l 748 558 l 591 558 l 591 0 l 450 0 l 450 558 l 264 558 z "},"":{"ha":1491,"x_min":61,"x_max":1441,"o":"m 264 558 l 264 0 l 123 0 l 123 558 l 61 558 l 61 699 l 123 699 l 123 824 q 189 972 128 911 q 337 1032 254 1032 q 465 1003 379 1032 l 418 870 q 342 896 359 896 q 288 871 315 896 q 264 819 265 850 l 264 699 l 513 699 l 513 960 l 654 960 l 654 699 l 930 699 l 1107 317 l 1284 699 l 1441 699 l 1065 -90 l 1065 -88 l 995 -234 l 847 -234 l 1033 155 l 840 558 l 654 558 l 654 0 l 513 0 l 513 558 l 264 558 z "},"":{"ha":885,"x_min":61,"x_max":851,"o":"m 658 636 q 851 715 736 710 l 851 570 q 729 520 774 566 q 658 359 661 453 l 658 0 l 517 0 l 517 558 l 327 558 l 327 0 l 186 0 l 186 558 l 61 558 l 61 699 l 186 699 l 186 960 l 327 960 l 327 699 l 658 699 l 658 636 z "},"":{"ha":932,"x_min":61,"x_max":871,"o":"m 327 558 l 327 0 l 186 0 l 186 558 l 61 558 l 61 699 l 186 699 l 186 960 l 327 960 l 327 699 l 605 699 l 605 960 l 746 960 l 746 699 l 871 699 l 871 558 l 746 558 l 746 0 l 605 0 l 605 558 l 327 558 z "},"":{"ha":1165,"x_min":61,"x_max":1114,"o":"m 513 558 l 327 558 l 327 0 l 186 0 l 186 558 l 61 558 l 61 699 l 186 699 l 186 960 l 327 960 l 327 699 l 621 699 l 621 662 l 781 317 l 958 699 l 1114 699 l 739 -90 l 739 -88 l 668 -234 l 519 -234 l 705 155 l 513 558 z "},"":{"ha":1148,"x_min":61,"x_max":1053,"o":"m 327 558 l 327 0 l 186 0 l 186 558 l 61 558 l 61 699 l 186 699 l 186 960 l 327 960 l 327 699 l 1053 699 l 730 142 l 1045 142 l 1045 0 l 487 0 l 808 558 l 327 558 z "},"":{"ha":692,"x_min":61,"x_max":607,"o":"m 264 0 l 123 0 l 123 558 l 61 558 l 61 699 l 123 699 l 123 824 q 189 972 128 911 q 337 1032 254 1032 q 465 1003 379 1032 l 418 870 q 342 896 359 896 q 288 871 315 896 q 264 819 265 850 l 264 0 m 578 699 l 578 0 l 438 0 l 438 699 l 578 699 m 509 916 q 578 888 549 916 q 607 819 607 859 q 578 749 607 777 q 509 720 549 720 q 439 749 468 720 q 410 819 410 777 q 439 888 410 859 q 509 916 468 916 z "},"":{"ha":668,"x_min":61,"x_max":566,"o":"m 426 893 q 374 896 418 896 q 288 871 315 896 q 264 819 265 850 l 264 0 l 123 0 l 123 558 l 61 558 l 61 699 l 123 699 l 123 824 q 189 972 128 911 q 368 1032 254 1032 q 566 981 470 1032 l 566 0 l 426 0 l 426 893 z "},"ﬀ":{"ha":751,"x_min":61,"x_max":791,"o":"m 264 558 l 264 0 l 123 0 l 123 558 l 61 558 l 61 699 l 123 699 l 123 824 q 189 972 128 911 q 337 1032 254 1032 q 465 1003 379 1032 l 418 870 q 342 896 359 896 q 288 871 315 896 q 264 819 265 850 l 264 699 l 450 699 l 450 824 q 517 972 455 911 q 664 1032 581 1032 q 791 1003 706 1032 l 745 870 q 670 896 686 896 q 615 871 642 896 q 591 819 593 850 l 591 699 l 716 699 l 716 558 l 591 558 l 591 0 l 450 0 l 450 558 l 264 558 z "},"ﬁ":{"ha":692,"x_min":61,"x_max":607,"o":"m 509 916 q 578 888 549 916 q 607 819 607 859 q 578 749 607 777 q 509 720 549 720 q 439 749 468 720 q 410 819 410 777 q 439 888 410 859 q 509 916 468 916 m 438 558 l 264 558 l 264 0 l 123 0 l 123 558 l 61 558 l 61 699 l 123 699 l 123 824 q 189 972 128 911 q 337 1032 254 1032 q 465 1003 379 1032 l 418 870 q 342 896 359 896 q 288 871 315 896 q 264 819 265 850 l 264 699 l 578 699 l 578 0 l 438 0 l 438 558 z "},"ﬂ":{"ha":668,"x_min":61,"x_max":566,"o":"m 426 893 q 374 896 418 896 q 288 871 315 896 q 264 819 265 850 l 264 699 l 389 699 l 389 558 l 264 558 l 264 0 l 123 0 l 123 558 l 61 558 l 61 699 l 123 699 l 123 824 q 189 972 128 911 q 368 1032 254 1032 q 566 981 470 1032 l 566 0 l 426 0 l 426 893 z "},"ﬃ":{"ha":1019,"x_min":61,"x_max":934,"o":"m 836 916 q 905 888 876 916 q 934 819 934 859 q 905 749 934 777 q 836 720 876 720 q 766 749 795 720 q 737 819 737 777 q 766 888 737 859 q 836 916 795 916 m 264 558 l 264 0 l 123 0 l 123 558 l 61 558 l 61 699 l 123 699 l 123 824 q 189 972 128 911 q 337 1032 254 1032 q 465 1003 379 1032 l 418 870 q 342 896 359 896 q 288 871 315 896 q 264 819 265 850 l 264 699 l 450 699 l 450 824 q 517 972 455 911 q 664 1032 581 1032 q 791 1003 706 1032 l 745 870 q 670 896 686 896 q 615 871 642 896 q 591 819 593 850 l 591 699 l 906 699 l 906 0 l 765 0 l 765 558 l 591 558 l 591 0 l 450 0 l 450 558 l 264 558 z "},"ﬄ":{"ha":995,"x_min":61,"x_max":893,"o":"m 264 558 l 264 0 l 123 0 l 123 558 l 61 558 l 61 699 l 123 699 l 123 824 q 189 972 128 911 q 337 1032 254 1032 q 465 1003 379 1032 l 418 870 q 342 896 359 896 q 288 871 315 896 q 264 819 265 850 l 264 699 l 450 699 l 450 824 q 517 972 455 911 q 695 1032 581 1032 q 893 981 798 1032 l 893 0 l 753 0 l 753 893 q 701 896 745 896 q 615 871 642 896 q 591 819 593 850 l 591 699 l 716 699 l 716 558 l 591 558 l 591 0 l 450 0 l 450 558 l 264 558 z "},"ﬅ":{"ha":677,"x_min":14,"x_max":644,"o":"m 378 558 l 253 558 l 253 699 l 378 699 l 378 893 q 326 896 370 896 q 240 871 267 896 q 216 819 218 850 l 216 0 l 76 0 l 76 558 l 14 558 l 14 699 l 76 699 l 76 824 q 142 972 81 911 q 321 1032 206 1032 q 519 981 422 1032 l 519 699 l 644 699 l 644 558 l 519 558 l 519 0 l 378 0 l 378 558 z "}}}
